<?xml version="1.0" standalone="no"?>
<!DOCTYPE svg PUBLIC "-//W3C//DTD SVG 20010904//EN"
 "http://www.w3.org/TR/2001/REC-SVG-20010904/DTD/svg10.dtd">
<svg version="1.0" xmlns="http://www.w3.org/2000/svg"
 width="4110.000000pt" height="1203.000000pt" viewBox="0 0 4110.000000 1203.000000"
 preserveAspectRatio="xMidYMid meet">

<g transform="translate(0.000000,1203.000000) scale(0.100000,-0.100000)"
fill="#000000" stroke="none">
<path d="M0 6015 l0 -6015 415 0 415 0 0 100 0 100 235 0 235 0 0 300 0 300
383 0 c210 0 453 3 540 7 l157 6 0 -61 0 -62 345 0 345 0 2 568 3 567 372 3
373 2 2 -262 3 -263 253 -3 252 -2 0 465 0 465 85 0 85 0 0 520 0 520 245 0
245 0 -2 433 -3 432 -87 3 -88 3 0 74 0 75 155 0 155 0 0 215 0 215 521 0 522
0 -6 228 c-4 125 -7 687 -7 1250 l0 1022 -40 0 -40 0 0 85 0 85 90 0 90 0 0
105 0 105 100 0 100 0 0 270 0 269 123 3 122 3 3 193 2 192 30 0 30 0 0 -195
0 -195 66 0 c74 0 61 14 118 -137 l28 -73 269 0 269 0 0 -165 0 -165 700 0
700 0 0 -105 0 -105 90 0 90 0 0 -85 0 -85 -45 0 -45 0 0 -2096 0 -2095 -42 6
c-24 4 -138 8 -253 9 -116 1 -216 5 -222 9 -6 4 -14 4 -17 -1 -2 -4 -50 -7
-105 -7 l-100 2 1 -29 1 -29 133 3 c72 2 130 -1 127 -6 -3 -4 1 -13 8 -18 11
-7 11 -11 2 -15 -10 -4 -13 -92 -13 -394 l0 -389 580 0 580 0 0 1800 0 1800
30 0 30 0 0 130 0 129 63 3 62 3 -4 443 -3 442 26 0 26 0 0 -439 c0 -421 1
-440 19 -446 10 -3 32 -4 50 -3 l31 2 0 359 0 358 23 -3 22 -3 3 -358 2 -358
105 3 105 3 0 -132 0 -133 135 0 135 0 0 -470 0 -470 250 0 250 0 0 -35 c0
-32 -2 -35 -30 -35 l-30 0 0 -90 0 -90 167 0 166 0 -6 1173 c-4 644 -7 1301
-7 1460 0 280 0 287 -20 287 -16 0 -20 7 -20 35 l0 35 165 0 165 0 0 230 c0
223 -1 230 -20 230 -16 0 -20 7 -20 35 l0 35 155 0 155 0 0 130 0 130 -25 0
c-20 0 -25 5 -25 25 0 23 3 24 78 27 l77 3 3 123 3 122 69 0 70 0 2 243 3 242
23 3 22 3 0 -245 0 -246 30 0 30 0 0 435 0 435 25 0 25 0 0 -435 0 -435 75 0
75 0 0 -125 0 -125 65 0 c62 0 65 -1 65 -24 0 -13 -7 -26 -15 -30 -12 -4 -15
-29 -15 -131 l0 -125 155 0 155 0 0 -35 c0 -28 -4 -35 -20 -35 -19 0 -20 -7
-20 -230 l0 -230 170 0 170 0 0 -35 c0 -31 -3 -35 -25 -35 l-25 0 0 -1910 0
-1910 515 0 515 0 0 -265 0 -265 185 0 185 0 0 1410 0 1410 -110 0 -110 0 0
40 0 40 110 0 110 0 0 60 0 60 120 1 c66 1 125 3 130 4 6 1 14 3 18 4 5 0 7
40 6 89 -2 48 -1 95 2 105 5 16 46 17 670 17 l664 0 0 1205 0 1205 155 0 155
0 0 970 0 970 305 0 305 0 0 525 0 525 45 0 45 0 0 -525 0 -525 95 0 95 0 0
420 0 420 40 0 40 0 0 -420 0 -420 485 0 485 0 0 -575 0 -575 85 0 85 0 0
-395 0 -395 245 0 245 0 0 -1460 0 -1460 95 0 95 0 0 -335 c0 -262 3 -335 13
-334 6 0 68 15 137 32 l125 32 3 78 3 77 119 0 120 0 0 -45 c0 -29 4 -45 13
-45 6 0 105 23 219 51 l207 51 3 86 3 87 122 3 122 3 3 -58 3 -58 203 48 202
49 0 424 c0 233 3 423 8 423 4 -1 28 -1 55 0 l47 1 0 730 0 730 260 0 260 0 0
280 0 280 145 0 145 0 0 235 0 235 50 0 50 0 0 400 c0 349 2 400 15 400 13 0
15 -51 15 -399 l0 -400 48 -3 47 -3 3 -232 2 -233 140 0 140 0 0 -280 0 -280
265 0 265 0 0 -736 0 -737 50 6 50 6 0 -2011 c0 -1106 2 -2009 5 -2007 3 4
235 1179 235 1194 0 3 56 5 125 5 l125 0 0 540 0 540 -55 0 c-52 0 -55 1 -55
25 l0 25 685 0 685 0 0 300 0 300 -80 0 -80 0 0 30 c0 28 -3 30 -35 30 l-35 0
0 95 0 95 180 0 180 0 0 99 c0 96 -1 100 -22 103 -18 2 -23 10 -23 33 l0 30
400 0 400 0 0 -30 c0 -23 -5 -31 -22 -33 -22 -3 -23 -7 -23 -103 l0 -99 522 2
523 3 32 121 c17 67 53 176 78 244 26 67 43 126 38 130 -4 4 -41 22 -81 40
l-74 34 -25 -32 c-78 -100 -247 -94 -312 12 -94 151 54 342 220 284 84 -29
129 -95 129 -190 l0 -55 73 -32 c39 -18 77 -35 83 -37 6 -3 30 32 54 78 101
195 225 369 374 524 l93 99 -65 71 -65 72 -40 -21 c-118 -61 -264 17 -275 147
-2 29 1 70 7 89 21 63 113 127 181 127 34 0 91 -22 121 -47 68 -57 87 -155 46
-235 l-23 -45 66 -69 66 -69 94 78 c182 151 401 284 617 372 l91 37 -36 104
-37 104 -48 0 c-60 0 -104 19 -143 61 -55 60 -68 133 -35 204 84 187 361 129
361 -75 0 -74 -48 -154 -102 -172 -8 -3 0 -37 22 -100 18 -53 36 -101 39 -107
4 -7 33 -2 86 14 178 55 386 90 606 101 l136 7 7 60 c3 33 6 90 6 126 l0 66
-50 23 c-87 40 -131 143 -101 235 16 47 89 114 136 123 120 22 223 -53 233
-171 8 -98 -58 -186 -150 -201 l-37 -6 -6 -62 c-4 -33 -5 -92 -3 -131 l3 -70
95 -7 c52 -4 121 -11 153 -16 l57 -9 0 46 c0 25 -21 515 -46 1089 -26 573 -45
1045 -42 1047 2 3 792 -159 1754 -358 l1749 -363 3 -1917 2 -1917 305 0 305 0
0 985 0 985 545 0 545 0 0 395 0 395 35 0 35 0 0 -395 0 -395 55 0 55 0 2 728
3 727 33 3 32 3 0 -730 0 -731 70 0 70 0 0 525 0 525 30 0 30 0 0 -525 0 -525
93 0 93 0 -4 -2395 -5 -2395 287 0 286 0 0 945 0 945 45 0 45 0 0 165 0 165
45 0 45 0 0 115 0 115 315 0 315 0 0 -115 0 -115 45 0 45 0 0 -165 0 -165 165
0 165 0 0 70 0 70 75 0 75 0 0 -70 0 -70 30 0 30 0 0 185 0 185 110 0 110 0 0
-185 0 -185 33 0 32 0 68 -507 c38 -280 72 -511 76 -516 4 -4 117 -6 252 -5
l244 3 3 243 c2 234 3 242 22 242 19 0 20 -7 20 -245 l0 -245 90 0 90 0 0 300
c0 293 0 300 20 300 20 0 20 -7 20 -300 l0 -300 135 0 135 0 0 -70 0 -70 -35
0 -35 0 0 -765 0 -765 285 0 c157 0 285 -2 285 -5 0 -3 16 -113 36 -243 20
-130 62 -406 93 -612 l57 -375 442 -3 442 -2 0 -100 0 -100 555 0 555 0 0
6015 0 6015 -20550 0 -20550 0 0 -6015z m6772 2591 c18 -40 5 -56 -47 -56 -43
0 -45 1 -45 28 0 36 16 52 52 52 20 0 32 -7 40 -24z m1703 -5586 c3 -5 -1 -10
-10 -10 -9 0 -13 5 -10 10 3 6 8 10 10 10 2 0 7 -4 10 -10z m70 -10 c10 -11
14 -20 9 -20 -5 0 -15 9 -22 20 -7 11 -11 20 -9 20 2 0 12 -9 22 -20z"/>
<path d="M28620 7403 c-199 -15 -560 -97 -560 -126 0 -12 206 -596 212 -602 2
-2 40 7 86 21 112 32 235 52 368 60 l112 7 6 171 c3 94 9 240 12 324 l6 152
-98 -2 c-55 -1 -119 -3 -144 -5z"/>
<path d="M28886 7383 c-3 -15 -8 -162 -12 -325 l-7 -297 34 -5 c19 -3 61 -8
94 -11 33 -4 100 -15 149 -26 49 -10 90 -18 92 -16 3 3 -26 650 -31 663 -2 6
-52 16 -112 23 -59 6 -129 14 -155 17 -44 5 -46 5 -52 -23z"/>
<path d="M27904 7226 c-139 -60 -274 -134 -389 -214 -89 -62 -210 -158 -239
-191 -20 -22 -20 -22 20 -64 22 -23 112 -118 199 -212 87 -93 168 -180 180
-193 l22 -24 89 72 c107 87 254 175 374 226 l88 37 -44 124 c-24 69 -72 204
-106 301 -34 97 -64 180 -67 184 -3 3 -60 -17 -127 -46z"/>
<path d="M27133 6683 c-49 -54 -109 -125 -134 -158 -114 -149 -269 -409 -253
-425 10 -10 572 -270 583 -270 4 0 19 26 35 58 48 98 153 248 237 337 l81 85
-148 158 c-227 242 -296 312 -304 312 -5 0 -48 -44 -97 -97z"/>
<path d="M28625 6713 c-150 -19 -335 -66 -335 -85 0 -18 471 -1352 481 -1362
5 -5 11 -7 15 -4 7 8 26 514 39 1068 3 118 8 254 11 303 l6 87 -94 -1 c-51 -1
-106 -4 -123 -6z"/>
<path d="M28856 6479 c-4 -134 -9 -278 -11 -319 -4 -70 -22 -586 -27 -799 -1
-60 2 -96 9 -98 5 -2 104 225 220 509 l210 513 -8 150 c-4 83 -8 167 -8 187
-1 35 -4 38 -42 48 -70 19 -181 38 -260 46 l-76 6 -7 -243z"/>
<path d="M28167 6590 c-48 -21 -120 -57 -160 -80 -81 -48 -233 -158 -262 -190
-18 -20 -18 -21 7 -48 312 -336 963 -1028 969 -1030 5 -2 11 2 14 10 4 11
-453 1329 -473 1364 -5 8 -33 1 -95 -26z"/>
<path d="M27639 6213 c-89 -93 -152 -178 -221 -297 -52 -90 -56 -101 -40 -110
9 -5 307 -144 662 -307 416 -193 648 -295 654 -289 7 7 -9 31 -45 68 -31 31
-255 270 -498 530 -243 259 -443 472 -445 472 -1 0 -32 -30 -67 -67z"/>
<path d="M29071 5764 c-102 -247 -190 -463 -198 -481 -10 -24 -10 -33 0 -41 9
-7 67 42 216 181 l203 191 -6 61 c-3 33 -8 146 -12 250 -12 341 9 358 -203
-161z"/>
<path d="M26681 5967 c-42 -109 -87 -256 -97 -319 l-7 -38 177 0 177 0 -3 -92
-3 -93 -37 -3 c-34 -3 -38 -6 -38 -32 l0 -29 -77 -3 -78 -3 -3 -64 c-2 -35 1
-67 5 -71 4 -4 114 -11 244 -15 l236 -7 7 79 c15 160 65 358 130 513 5 12 -58
44 -282 148 -158 72 -292 132 -299 132 -6 0 -30 -46 -52 -103z"/>
<path d="M27340 5762 c-52 -111 -109 -337 -125 -494 l-6 -66 73 -6 c40 -3 367
-15 727 -26 526 -16 656 -18 662 -8 5 8 0 17 -14 24 -23 12 -1161 538 -1253
580 l-51 23 -13 -27z"/>
<path d="M29105 5406 c-99 -93 -185 -174 -192 -180 -7 -6 -9 -16 -5 -23 6 -9
58 6 196 57 104 39 191 70 193 70 5 0 2 106 -6 180 l-6 64 -180 -168z"/>
<path d="M29105 5236 c-114 -43 -171 -69 -173 -80 -3 -13 6 -16 51 -16 29 0
115 -3 190 -7 l137 -6 0 40 c0 66 -12 133 -24 132 -6 0 -87 -29 -181 -63z"/>
<path d="M26690 4841 l0 -351 45 0 c45 0 45 0 45 -35 0 -35 0 -35 -45 -35 -38
0 -45 -3 -45 -20 0 -11 5 -20 12 -20 11 0 559 199 567 206 1 1 -6 31 -18 66
-35 105 -61 255 -68 391 -3 70 -9 129 -12 131 -3 2 -113 7 -243 11 l-238 7 0
-351z"/>
<path d="M27212 5162 c-8 -22 6 -209 23 -302 17 -93 65 -260 74 -260 3 0 310
112 681 249 471 174 676 254 678 265 3 12 -5 16 -29 16 -33 0 -1219 37 -1348
43 -55 2 -75 -1 -79 -11z"/>
<path d="M28925 5111 c-4 -7 -5 -14 -3 -17 11 -10 392 -184 396 -179 2 2 1 47
-3 100 l-7 95 -76 0 c-43 0 -127 3 -188 6 -82 5 -113 4 -119 -5z"/>
<path d="M28150 4884 c-289 -107 -594 -219 -677 -250 -112 -41 -153 -61 -153
-73 0 -24 99 -217 152 -297 26 -38 72 -100 103 -138 l57 -68 47 44 c25 25 260
246 523 491 262 245 479 451 483 457 4 7 3 15 -1 20 -5 4 -245 -80 -534 -186z"/>
<path d="M28910 5055 c0 -17 55 -80 255 -293 l160 -171 3 77 c1 42 -1 108 -5
146 l-8 70 -170 79 c-238 110 -235 109 -235 92z"/>
<path d="M28377 4383 l-346 -638 76 -38 c41 -21 76 -37 77 -35 4 5 33 76 286
693 133 325 248 605 256 623 7 17 9 32 5 32 -4 0 -163 -287 -354 -637z"/>
<path d="M28853 5013 c3 -5 110 -305 237 -668 128 -363 237 -670 241 -683 7
-18 13 -21 26 -13 17 8 17 24 8 248 l-10 238 -240 443 c-132 243 -246 442
-253 442 -7 0 -11 -3 -9 -7z"/>
<path d="M28751 4988 c-11 -29 -301 -736 -438 -1067 -57 -139 -101 -257 -96
-261 32 -30 307 -96 437 -106 l86 -7 0 69 c0 38 9 328 20 644 23 666 24 750
10 750 -6 0 -14 -10 -19 -22z"/>
<path d="M28806 4978 c-3 -18 -12 -276 -21 -573 -8 -297 -18 -612 -22 -699
l-6 -159 139 6 c178 8 415 60 414 90 -1 27 -479 1362 -488 1365 -6 2 -13 -12
-16 -30z"/>
<path d="M28141 4503 l-490 -458 83 -80 c75 -74 250 -204 260 -194 2 2 135
247 296 544 161 297 306 564 322 593 16 28 27 52 24 52 -3 0 -226 -206 -495
-457z"/>
<path d="M28991 4904 c7 -20 352 -654 355 -651 2 1 0 68 -3 147 l-6 144 -155
166 c-190 202 -195 208 -191 194z"/>
<path d="M26990 4457 c-151 -57 -281 -106 -289 -111 -24 -15 -6 -87 52 -206
90 -185 198 -345 357 -529 l21 -24 57 55 c31 30 136 128 232 218 96 90 176
167 178 171 2 4 -25 42 -60 86 -82 101 -144 202 -208 336 -28 59 -55 107 -58
106 -4 0 -131 -46 -282 -102z"/>
<path d="M26692 3843 l3 -258 43 -3 c41 -3 42 -4 42 -38 0 -34 0 -34 -45 -34
l-45 0 0 -40 c0 -22 1 -40 3 -40 1 0 20 7 42 15 59 21 105 18 161 -10 l49 -25
67 67 67 66 -55 66 c-121 143 -229 302 -293 429 -17 34 -34 62 -36 62 -3 0 -4
-116 -3 -257z"/>
<path d="M27390 3798 c-129 -121 -236 -223 -238 -228 -3 -8 153 -154 235 -220
79 -62 255 -180 270 -180 7 0 22 18 33 40 16 32 20 59 20 139 l0 100 57 3 57
3 73 135 c40 74 73 138 73 142 0 4 -41 35 -92 70 -50 34 -128 97 -172 139
l-81 76 -235 -219z"/>
<path d="M27948 3593 c-35 -65 -64 -124 -66 -130 -2 -9 10 -13 37 -13 l41 0 0
-162 1 -163 104 254 c58 139 105 255 105 257 0 3 -149 74 -156 74 -1 0 -31
-53 -66 -117z"/>
<path d="M28077 3346 c-64 -156 -117 -291 -117 -300 0 -14 16 -16 110 -16
l110 0 0 210 0 210 115 0 115 0 0 -210 0 -210 154 0 153 0 7 133 c3 72 7 182
8 242 l2 110 -90 7 c-134 12 -330 57 -434 102 -13 5 -39 -50 -133 -278z"/>
<path d="M29362 3611 c-11 -6 -11 -14 2 -42 l14 -34 1 43 c1 23 0 42 -1 42 -2
0 -9 -4 -16 -9z"/>
<path d="M29270 3584 c-111 -36 -356 -74 -482 -74 -25 0 -27 -3 -32 -62 -3
-35 -8 -143 -10 -240 l-6 -178 50 0 50 0 0 210 0 210 271 0 c213 0 270 3 266
13 -2 6 -14 40 -27 75 -12 34 -25 62 -29 61 -3 -1 -26 -7 -51 -15z"/>
<path d="M27027 3457 l-69 -62 21 -45 c25 -56 26 -103 2 -155 -46 -99 -149
-141 -248 -100 -19 8 -37 15 -39 15 -2 0 -4 -97 -4 -215 l0 -215 45 0 c45 0
45 0 45 -34 0 -34 -1 -35 -42 -38 l-43 -3 -3 -417 -2 -418 45 0 c45 0 45 0 45
-35 0 -35 0 -35 -45 -35 l-45 0 0 -130 c0 -122 1 -130 20 -130 12 0 28 15 44
43 25 43 280 513 438 808 l88 165 -2 205 -3 204 -37 3 -38 3 0 80 0 79 198 0
198 0 18 36 c9 20 16 37 14 39 -2 1 -49 32 -105 69 -128 83 -234 167 -339 268
-44 43 -83 78 -85 78 -2 0 -35 -28 -72 -63z"/>
<path d="M8340 3100 c0 -5 5 -10 10 -10 6 0 10 5 10 10 0 6 -4 10 -10 10 -5 0
-10 -4 -10 -10z"/>
<path d="M8380 3100 c0 -5 5 -10 10 -10 6 0 10 5 10 10 0 6 -4 10 -10 10 -5 0
-10 -4 -10 -10z"/>
<path d="M8420 3100 c0 -5 5 -10 10 -10 6 0 10 5 10 10 0 6 -4 10 -10 10 -5 0
-10 -4 -10 -10z"/>
<path d="M8460 3100 c0 -5 5 -10 10 -10 6 0 10 5 10 10 0 6 -4 10 -10 10 -5 0
-10 -4 -10 -10z"/>
<path d="M8500 3100 c0 -5 5 -10 10 -10 6 0 10 5 10 10 0 6 -4 10 -10 10 -5 0
-10 -4 -10 -10z"/>
<path d="M8540 3100 c0 -5 5 -10 10 -10 6 0 10 5 10 10 0 6 -4 10 -10 10 -5 0
-10 -4 -10 -10z"/>
<path d="M8580 3100 c0 -5 5 -10 10 -10 6 0 10 5 10 10 0 6 -4 10 -10 10 -5 0
-10 -4 -10 -10z"/>
<path d="M8620 3100 c0 -5 5 -10 10 -10 6 0 10 5 10 10 0 6 -4 10 -10 10 -5 0
-10 -4 -10 -10z"/>
<path d="M8660 3100 c0 -5 5 -10 10 -10 6 0 10 5 10 10 0 6 -4 10 -10 10 -5 0
-10 -4 -10 -10z"/>
<path d="M8700 3100 c0 -5 5 -10 10 -10 6 0 10 5 10 10 0 6 -4 10 -10 10 -5 0
-10 -4 -10 -10z"/>
<path d="M8740 3100 c0 -5 5 -10 10 -10 6 0 10 5 10 10 0 6 -4 10 -10 10 -5 0
-10 -4 -10 -10z"/>
<path d="M8780 3100 c0 -5 5 -10 10 -10 6 0 10 5 10 10 0 6 -4 10 -10 10 -5 0
-10 -4 -10 -10z"/>
<path d="M8860 3100 c0 -5 5 -10 10 -10 6 0 10 5 10 10 0 6 -4 10 -10 10 -5 0
-10 -4 -10 -10z"/>
<path d="M8900 3100 c0 -5 5 -10 10 -10 6 0 10 5 10 10 0 6 -4 10 -10 10 -5 0
-10 -4 -10 -10z"/>
<path d="M27660 3061 c-15 -28 -13 -31 20 -31 31 0 39 17 18 38 -17 17 -26 15
-38 -7z"/>
<path d="M17300 2991 c0 -12 5 -21 10 -21 6 0 10 6 10 14 0 8 -4 18 -10 21 -5
3 -10 -3 -10 -14z"/>
<path d="M17340 2991 c0 -12 5 -21 10 -21 6 0 10 6 10 14 0 8 -4 18 -10 21 -5
3 -10 -3 -10 -14z"/>
<path d="M17380 2990 c0 -11 5 -20 10 -20 6 0 10 9 10 20 0 11 -4 20 -10 20
-5 0 -10 -9 -10 -20z"/>
<path d="M17420 2990 c0 -11 5 -20 10 -20 6 0 10 9 10 20 0 11 -4 20 -10 20
-5 0 -10 -9 -10 -20z"/>
<path d="M17460 2990 c0 -11 5 -20 10 -20 6 0 10 9 10 20 0 11 -4 20 -10 20
-5 0 -10 -9 -10 -20z"/>
<path d="M17500 2990 c0 -11 5 -20 10 -20 6 0 10 9 10 20 0 11 -4 20 -10 20
-5 0 -10 -9 -10 -20z"/>
<path d="M17540 2990 c0 -11 5 -20 10 -20 6 0 10 9 10 20 0 11 -4 20 -10 20
-5 0 -10 -9 -10 -20z"/>
<path d="M17580 2990 c0 -11 5 -20 10 -20 6 0 10 9 10 20 0 11 -4 20 -10 20
-5 0 -10 -9 -10 -20z"/>
<path d="M17620 2990 c0 -11 5 -20 10 -20 6 0 10 9 10 20 0 11 -4 20 -10 20
-5 0 -10 -9 -10 -20z"/>
<path d="M17660 2990 c0 -11 5 -20 10 -20 6 0 10 9 10 20 0 11 -4 20 -10 20
-5 0 -10 -9 -10 -20z"/>
<path d="M17700 2990 c0 -11 5 -20 10 -20 6 0 10 9 10 20 0 11 -4 20 -10 20
-5 0 -10 -9 -10 -20z"/>
<path d="M17740 2990 c0 -11 5 -20 10 -20 6 0 10 9 10 20 0 11 -4 20 -10 20
-5 0 -10 -9 -10 -20z"/>
<path d="M17780 2990 c0 -11 5 -20 10 -20 6 0 10 9 10 20 0 11 -4 20 -10 20
-5 0 -10 -9 -10 -20z"/>
<path d="M17820 2990 c0 -11 5 -20 10 -20 6 0 10 9 10 20 0 11 -4 20 -10 20
-5 0 -10 -9 -10 -20z"/>
<path d="M17860 2990 c0 -11 5 -20 10 -20 6 0 10 9 10 20 0 11 -4 20 -10 20
-5 0 -10 -9 -10 -20z"/>
<path d="M17900 2990 c0 -11 5 -20 10 -20 6 0 10 9 10 20 0 11 -4 20 -10 20
-5 0 -10 -9 -10 -20z"/>
<path d="M17940 2990 c0 -11 5 -20 10 -20 6 0 10 9 10 20 0 11 -4 20 -10 20
-5 0 -10 -9 -10 -20z"/>
<path d="M17980 2990 c0 -11 5 -20 10 -20 6 0 10 9 10 20 0 11 -4 20 -10 20
-5 0 -10 -9 -10 -20z"/>
<path d="M18020 2990 c0 -11 5 -20 10 -20 6 0 10 9 10 20 0 11 -4 20 -10 20
-5 0 -10 -9 -10 -20z"/>
<path d="M18060 2990 c0 -11 5 -20 10 -20 6 0 10 9 10 20 0 11 -4 20 -10 20
-5 0 -10 -9 -10 -20z"/>
<path d="M18100 2990 c0 -11 5 -20 10 -20 6 0 10 9 10 20 0 11 -4 20 -10 20
-5 0 -10 -9 -10 -20z"/>
<path d="M18140 2990 c0 -11 5 -20 10 -20 6 0 10 9 10 20 0 11 -4 20 -10 20
-5 0 -10 -9 -10 -20z"/>
<path d="M18180 2990 c0 -11 5 -20 10 -20 6 0 10 9 10 20 0 11 -4 20 -10 20
-5 0 -10 -9 -10 -20z"/>
<path d="M18220 2990 c0 -11 5 -20 10 -20 6 0 10 9 10 20 0 11 -4 20 -10 20
-5 0 -10 -9 -10 -20z"/>
<path d="M18260 2990 c0 -11 5 -20 10 -20 6 0 10 9 10 20 0 11 -4 20 -10 20
-5 0 -10 -9 -10 -20z"/>
<path d="M18300 2990 c0 -11 5 -20 10 -20 6 0 10 9 10 20 0 11 -4 20 -10 20
-5 0 -10 -9 -10 -20z"/>
<path d="M18340 2990 c0 -11 5 -20 10 -20 6 0 10 9 10 20 0 11 -4 20 -10 20
-5 0 -10 -9 -10 -20z"/>
<path d="M18380 2990 c0 -11 5 -20 10 -20 6 0 10 9 10 20 0 11 -4 20 -10 20
-5 0 -10 -9 -10 -20z"/>
<path d="M18420 2990 c0 -11 5 -20 10 -20 6 0 10 9 10 20 0 11 -4 20 -10 20
-5 0 -10 -9 -10 -20z"/>
<path d="M18460 2990 c0 -11 5 -20 10 -20 6 0 10 9 10 20 0 11 -4 20 -10 20
-5 0 -10 -9 -10 -20z"/>
<path d="M18500 2990 c0 -11 5 -20 10 -20 6 0 10 9 10 20 0 11 -4 20 -10 20
-5 0 -10 -9 -10 -20z"/>
<path d="M18540 2990 c0 -11 5 -20 10 -20 6 0 10 9 10 20 0 11 -4 20 -10 20
-5 0 -10 -9 -10 -20z"/>
<path d="M18580 2990 c0 -11 5 -20 10 -20 6 0 10 9 10 20 0 11 -4 20 -10 20
-5 0 -10 -9 -10 -20z"/>
<path d="M18620 2990 c0 -11 5 -20 10 -20 6 0 10 9 10 20 0 11 -4 20 -10 20
-5 0 -10 -9 -10 -20z"/>
<path d="M18660 2990 c0 -11 5 -20 10 -20 6 0 10 9 10 20 0 11 -4 20 -10 20
-5 0 -10 -9 -10 -20z"/>
<path d="M18700 2990 c0 -11 5 -20 10 -20 6 0 10 9 10 20 0 11 -4 20 -10 20
-5 0 -10 -9 -10 -20z"/>
<path d="M30504 2994 c-4 -10 -9 -22 -11 -26 -2 -4 2 -10 8 -14 8 -5 9 -3 4 6
-6 10 -4 12 8 7 12 -4 15 -1 12 15 -6 30 -13 34 -21 12z"/>
<path d="M30900 2992 c0 -9 9 -23 19 -29 18 -11 18 -10 4 18 -17 33 -23 37
-23 11z"/>
<path d="M30940 2990 c0 -11 5 -20 10 -20 6 0 10 9 10 20 0 11 -4 20 -10 20
-5 0 -10 -9 -10 -20z"/>
<path d="M30980 2990 c0 -11 5 -20 10 -20 6 0 10 9 10 20 0 11 -4 20 -10 20
-5 0 -10 -9 -10 -20z"/>
<path d="M31020 2990 c0 -11 5 -20 10 -20 6 0 10 9 10 20 0 11 -4 20 -10 20
-5 0 -10 -9 -10 -20z"/>
<path d="M31060 2990 c0 -11 5 -20 10 -20 6 0 10 9 10 20 0 11 -4 20 -10 20
-5 0 -10 -9 -10 -20z"/>
<path d="M31100 2990 c0 -11 5 -20 10 -20 6 0 10 9 10 20 0 11 -4 20 -10 20
-5 0 -10 -9 -10 -20z"/>
<path d="M31140 2990 c0 -11 5 -20 10 -20 6 0 10 9 10 20 0 11 -4 20 -10 20
-5 0 -10 -9 -10 -20z"/>
<path d="M31180 2990 c0 -11 5 -20 10 -20 6 0 10 9 10 20 0 11 -4 20 -10 20
-5 0 -10 -9 -10 -20z"/>
<path d="M31220 2990 c0 -11 5 -20 10 -20 6 0 10 9 10 20 0 11 -4 20 -10 20
-5 0 -10 -9 -10 -20z"/>
<path d="M31260 2990 c0 -11 5 -20 10 -20 6 0 10 9 10 20 0 11 -4 20 -10 20
-5 0 -10 -9 -10 -20z"/>
<path d="M31300 2990 c0 -11 5 -20 10 -20 6 0 10 9 10 20 0 11 -4 20 -10 20
-5 0 -10 -9 -10 -20z"/>
<path d="M31340 2990 c0 -11 5 -20 10 -20 6 0 10 9 10 20 0 11 -4 20 -10 20
-5 0 -10 -9 -10 -20z"/>
<path d="M31380 2990 c0 -11 5 -20 10 -20 6 0 10 9 10 20 0 11 -4 20 -10 20
-5 0 -10 -9 -10 -20z"/>
<path d="M31420 2990 c0 -11 5 -20 10 -20 6 0 10 9 10 20 0 11 -4 20 -10 20
-5 0 -10 -9 -10 -20z"/>
<path d="M31460 2990 c0 -11 5 -20 10 -20 6 0 10 9 10 20 0 11 -4 20 -10 20
-5 0 -10 -9 -10 -20z"/>
<path d="M31500 2990 c0 -11 5 -20 10 -20 6 0 10 9 10 20 0 11 -4 20 -10 20
-5 0 -10 -9 -10 -20z"/>
<path d="M31540 2990 c0 -11 5 -20 10 -20 6 0 10 9 10 20 0 11 -4 20 -10 20
-5 0 -10 -9 -10 -20z"/>
<path d="M31580 2990 c0 -11 5 -20 10 -20 6 0 10 9 10 20 0 11 -4 20 -10 20
-5 0 -10 -9 -10 -20z"/>
<path d="M31620 2990 c0 -11 5 -20 10 -20 6 0 10 9 10 20 0 11 -4 20 -10 20
-5 0 -10 -9 -10 -20z"/>
<path d="M31660 2990 c0 -11 5 -20 10 -20 6 0 10 9 10 20 0 11 -4 20 -10 20
-5 0 -10 -9 -10 -20z"/>
<path d="M31700 2990 c0 -11 5 -20 10 -20 6 0 10 9 10 20 0 11 -4 20 -10 20
-5 0 -10 -9 -10 -20z"/>
<path d="M31740 2990 c0 -11 5 -20 10 -20 6 0 10 9 10 20 0 11 -4 20 -10 20
-5 0 -10 -9 -10 -20z"/>
<path d="M31780 2990 c0 -11 5 -20 10 -20 6 0 10 9 10 20 0 11 -4 20 -10 20
-5 0 -10 -9 -10 -20z"/>
<path d="M31820 2990 c0 -11 5 -20 10 -20 6 0 10 9 10 20 0 11 -4 20 -10 20
-5 0 -10 -9 -10 -20z"/>
<path d="M31860 2990 c0 -11 5 -20 10 -20 6 0 10 9 10 20 0 11 -4 20 -10 20
-5 0 -10 -9 -10 -20z"/>
<path d="M31900 2990 c0 -11 5 -20 10 -20 6 0 10 9 10 20 0 11 -4 20 -10 20
-5 0 -10 -9 -10 -20z"/>
<path d="M31940 2990 c0 -11 5 -20 10 -20 6 0 10 9 10 20 0 11 -4 20 -10 20
-5 0 -10 -9 -10 -20z"/>
<path d="M31980 2990 c0 -11 5 -20 10 -20 6 0 10 9 10 20 0 11 -4 20 -10 20
-5 0 -10 -9 -10 -20z"/>
<path d="M30855 2960 c-2 -3 5 -7 16 -7 10 -1 19 2 19 6 0 9 -29 10 -35 1z"/>
<path d="M30575 2872 c-16 -1 -82 -6 -145 -10 l-115 -7 -3 -187 -3 -187 280
-518 280 -518 260 -3 261 -2 0 505 0 505 305 0 305 0 0 210 0 210 -697 2
c-384 2 -711 2 -728 0z m-195 -26 c0 -2 -7 -6 -15 -10 -8 -3 -15 -1 -15 4 0 6
7 10 15 10 8 0 15 -2 15 -4z m141 -19 c-10 -9 -11 -8 -5 6 3 10 9 15 12 12 3
-3 0 -11 -7 -18z"/>
<path d="M17290 2680 l0 -190 575 0 575 0 0 -525 0 -525 165 0 165 0 0 715 -1
715 -739 0 -740 0 0 -190z"/>
<path d="M30310 1902 l0 -462 250 0 c138 0 250 2 250 4 0 2 -50 95 -111 207
-61 112 -132 242 -157 289 -25 47 -88 161 -139 255 l-93 170 0 -463z"/>
<path d="M27051 1938 c-124 -227 -235 -432 -249 -455 l-24 -43 251 0 251 0 0
455 c0 250 -1 455 -3 455 -1 0 -103 -186 -226 -412z"/>
</g>
</svg>
