<svg xmlns="http://www.w3.org/2000/svg" viewBox="0 0 64 64"><path d="M 41.970703 2 A 1 1 0 0 0 41 3 L 41 6 L 39 6 A 1 1 0 0 0 38 7 L 38 12 L 37 12 A 1 1 0 0 0 36 13 L 36 18 L 34 18 A 1 1 0 0 0 33 19 L 33 22 L 31 22 L 31 19 A 1 1 0 0 0 30 18 L 29 18 L 29 15 A 1 1 0 0 0 27 15 L 27 18 L 26 18 A 1 1 0 0 0 25 19 L 25 43 A 1 1 0 0 0 27 43 L 27 24 L 33 24 L 33 43 A 1 1 0 0 0 35 43 L 35 40 L 38 40 L 38 43 A 1 1 0 0 0 40 43 L 40 40 L 44 40 L 44 43 A 1 1 0 0 0 46 43 L 46 36 L 49 36 L 49 43 A 1 1 0 0 0 51 43 L 51 36 L 54 36 L 54 55 A 1 1 0 0 0 55 56 L 58 56 A 2 2 0 0 1 58 60 L 14 60 L 14 54.589844 A 1 1 0 0 0 12 54.589844 L 12 61 A 1 1 0 0 0 13 62 L 58 62 A 4 4 0 0 0 62 58 L 62 32 A 4 4 0 0 0 58 28 L 55 28 A 1 1 0 0 0 54 29 L 54 34 L 51 34 L 51 19 A 1 1 0 0 0 50 18 L 48 18 L 48 13 A 1 1 0 0 0 47 12 L 46 12 L 46 7 A 1 1 0 0 0 45 6 L 43 6 L 43 3 A 1 1 0 0 0 41.970703 2 z M 40 8 L 44 8 L 44 12 L 40 12 L 40 8 z M 7.109375 13.410156 A 5.0012389 5.0012389 0 0 0 2.3007812 20.119141 L 4.3554688 25.759766 L 6.9082031 32.775391 A 1 1 0 0 0 8.7871094 32.09375 L 6.5761719 26.015625 L 8.4550781 25.332031 L 16.664062 47.884766 L 14.773438 48.572266 L 10.15625 35.851562 A 1.0001111 1.0001111 0 1 0 8.2753906 36.535156 L 13.234375 50.199219 L 13.251953 50.189453 A 1.006 1.006 0 0 0 13.5 50.576172 L 19.994141 56.726562 A 1 1 0 0 0 20.681641 57 L 50 57 A 1 1 0 0 0 51 56 L 51 48 A 1 1 0 0 0 49 48 L 49 50.089844 A 6.008 6.008 0 0 0 44.089844 55 L 37 55 L 37 48 A 1 1 0 0 0 36 47 L 30 47 A 1 1 0 0 0 29 48 L 29 55 L 21.800781 55 L 22.693359 47.228516 A 0.993 0.993 0 0 0 22.587891 46.667969 L 13.748047 22.341797 L 12.380859 18.582031 L 11.699219 16.699219 A 5.0012389 5.0012389 0 0 0 7.109375 13.410156 z M 38 14 L 42 14 L 42 18 L 38 18 L 38 14 z M 44 14 L 46 14 L 46 18 L 44 18 L 44 14 z M 6.8535156 15.416016 A 3 3 0 0 1 9.8203125 17.386719 L 10.162109 18.326172 L 4.5234375 20.378906 L 4.1816406 19.4375 A 3 3 0 0 1 5.9746094 15.59375 A 3 3 0 0 1 6.8535156 15.416016 z M 27 20 L 29 20 L 29 22 L 27 22 L 27 20 z M 35 20 L 38 20 L 38 26 L 35 26 L 35 20 z M 40 20 L 44 20 L 44 22 L 40 22 L 40 20 z M 46 20 L 49 20 L 49 22 L 46 22 L 46 20 z M 10.845703 20.205078 L 11.529297 22.085938 L 5.8925781 24.136719 L 5.2070312 22.257812 L 10.845703 20.205078 z M 12.214844 23.964844 L 20.414062 46.521484 L 18.546875 47.201172 L 10.335938 24.648438 L 12.214844 23.964844 z M 40 24 L 44 24 L 44 26 L 40 26 L 40 24 z M 46 24 L 49 24 L 49 30 L 46 30 L 46 24 z M 30 26 A 1 1 0 0 0 30 28 A 1 1 0 0 0 30 26 z M 35 28 L 38 28 L 38 30 L 35 30 L 35 28 z M 40 28 L 44 28 L 44 30 L 40 30 L 40 28 z M 30 30 A 1 1 0 0 0 30 32 A 1 1 0 0 0 30 30 z M 56 30 L 58 30 A 2 2 0 0 1 60 32 L 60 54.537109 A 3.97 3.97 0 0 0 58 54 L 56 54 L 56 30 z M 35 32 L 38 32 L 38 38 L 35 38 L 35 32 z M 40 32 L 44 32 L 44 34 L 40 34 L 40 32 z M 46 32 L 49 32 L 49 34 L 46 34 L 46 32 z M 21.300781 34 A 1 1 0 0 0 21.300781 36 L 22 36 A 1 1 0 0 0 22 34 L 21.300781 34 z M 30 34 A 1 1 0 0 0 30 36 A 1 1 0 0 0 30 34 z M 40 36 L 44 36 L 44 38 L 40 38 L 40 36 z M 30 38 A 1 1 0 0 0 30 40 A 1 1 0 0 0 30 38 z M 20.525391 48.607422 L 19.917969 53.900391 L 16.048828 50.238281 L 20.525391 48.607422 z M 31 49 L 35 49 L 35 51 L 34 51 A 1 1 0 0 0 34 53 L 35 53 L 35 55 L 31 55 L 31 49 z M 49 52.126953 L 49 55 L 46.126953 55 A 4.015 4.015 0 0 1 49 52.126953 z"></path></svg>