<svg xmlns="http://www.w3.org/2000/svg" viewBox="0 0 128 128">    <path d="M 68.400391 6.1992188 L 59.5 6.4003906 L 59.5 11.5 C 59.1 11.6 58.8 11.799609 58.5 12.099609 L 8.9003906 52.699219 C 8.3003906 53.199219 7.9007812 53.899219 7.8007812 54.699219 C 7.7007813 55.499219 8 56.300391 8.5 56.900391 L 13.099609 62.400391 C 13.699609 63.100391 14.500391 63.5 15.400391 63.5 L 16.599609 63.5 L 16.599609 117.5 C 16.599609 119.2 17.899609 120.5 19.599609 120.5 L 108.5 120.5 C 110.2 120.5 111.5 119.2 111.5 117.5 L 111.5 64.099609 C 111.9 64.299609 112.29922 64.400391 112.69922 64.400391 C 113.59922 64.400391 114.4 64.000781 115 63.300781 L 119.59961 57.800781 C 120.69961 56.500781 120.49922 54.599609 119.19922 53.599609 L 69.5 12.099609 C 69.2 11.799609 68.800391 11.6 68.400391 11.5 L 68.400391 6.1992188 z M 59.5 18.900391 L 59.5 72.900391 L 55.099609 81.800781 L 55.099609 114.5 L 22.599609 114.5 L 22.599609 61.5 C 22.599609 61.3 22.5 61.2 22.5 61 C 22.5 60.8 22.599609 60.7 22.599609 60.5 C 22.599609 58.8 21.299609 57.5 19.599609 57.5 L 16.800781 57.5 L 15 55.400391 L 59.5 18.900391 z M 68.5 19 L 113 56.300781 L 111.80078 57.800781 L 108.5 57.800781 C 106.8 57.800781 105.40039 59.100781 105.40039 60.800781 L 105.40039 114.5 L 72.900391 114.5 L 72.900391 81.800781 L 68.5 72.900391 L 68.5 19 z M 28.599609 60.400391 L 28.599609 73.800781 L 48.199219 73.800781 L 48.199219 60.400391 L 28.599609 60.400391 z M 79.900391 60.400391 L 79.900391 73.800781 L 99.5 73.800781 L 99.5 60.400391 L 79.900391 60.400391 z M 28.599609 90.699219 L 28.599609 104.09961 L 48.199219 104.09961 L 48.199219 90.699219 L 28.599609 90.699219 z M 79.900391 90.699219 L 79.900391 104.09961 L 99.5 104.09961 L 99.5 90.699219 L 79.900391 90.699219 z"></path></svg>