<svg xmlns="http://www.w3.org/2000/svg" viewBox="0 0 50 50"><path d="M 11 0 C 4.953125 0 0 4.953125 0 11 L 0 39 C 0 40.125 0.367188 41.160156 1 42 L 1 45 C 1 46.644531 2.355469 48 4 48 L 8 48 C 9.644531 48 11 46.644531 11 45 L 11 44 L 22 44 L 22 42 L 5 42 C 3.34375 42 2 40.65625 2 39 L 2 11 C 2 6.046875 6.046875 2 11 2 L 27 2 C 31.953125 2 36 6.046875 36 11 L 36 25 L 38 25 L 38 11 C 38 4.953125 33.046875 0 27 0 Z M 12 3 C 11.476563 3 10.941406 3.183594 10.5625 3.5625 C 10.183594 3.941406 10 4.476563 10 5 L 10 7 C 10 7.523438 10.183594 8.058594 10.5625 8.4375 C 10.941406 8.816406 11.476563 9 12 9 L 27 9 C 27.523438 9 28.058594 8.816406 28.4375 8.4375 C 28.816406 8.058594 29 7.523438 29 7 L 29 5 C 29 4.476563 28.816406 3.941406 28.4375 3.5625 C 28.058594 3.183594 27.523438 3 27 3 Z M 12 5 L 27 5 L 27 7 L 12 7 Z M 7 10 C 5.300781 10 4 11.300781 4 13 L 4 26 C 4 27.699219 5.300781 29 7 29 L 24.90625 29 L 26 27 L 7 27 C 6.398438 27 6 26.601563 6 26 L 6 13 C 6 12.398438 6.398438 12 7 12 L 31 12 C 31.601563 12 32 12.398438 32 13 L 32 25 L 34 25 L 34 13 C 34 11.300781 32.699219 10 31 10 Z M 31.59375 27 C 29.617188 27 27.851563 28.144531 27 29.96875 L 27 30 L 24.375 35.78125 L 24.375 35.84375 C 24.117188 36.492188 24 37.179688 24 37.8125 L 24 48 C 24 48.523438 24.183594 49.058594 24.5625 49.4375 C 24.941406 49.816406 25.476563 50 26 50 L 29 50 C 29.523438 50 30.058594 49.816406 30.4375 49.4375 C 30.816406 49.058594 31 48.523438 31 48 L 31 47 L 43 47 L 43 48 C 43 48.523438 43.183594 49.058594 43.5625 49.4375 C 43.941406 49.816406 44.476563 50 45 50 L 48 50 C 48.523438 50 49.058594 49.816406 49.4375 49.4375 C 49.816406 49.058594 50 48.523438 50 48 L 50 37.8125 C 50 37.101563 49.867188 36.449219 49.625 35.84375 L 49.625 35.78125 L 47 30 L 47 29.96875 C 46.148438 28.144531 44.382813 27 42.40625 27 Z M 31.59375 29 L 42.40625 29 C 43.632813 29 44.640625 29.636719 45.1875 30.8125 L 46 32.625 L 46 34 C 46 34.554688 45.554688 35 45 35 L 29 35 C 28.445313 35 28 34.554688 28 34 L 28 32.625 L 28.8125 30.8125 C 29.359375 29.636719 30.367188 29 31.59375 29 Z M 8.5 31 C 6.027344 31 4 33.027344 4 35.5 C 4 37.972656 6.027344 40 8.5 40 C 10.972656 40 13 37.972656 13 35.5 C 13 33.027344 10.972656 31 8.5 31 Z M 8.5 33 C 9.890625 33 11 34.109375 11 35.5 C 11 36.890625 9.890625 38 8.5 38 C 7.109375 38 6 36.890625 6 35.5 C 6 34.109375 7.109375 33 8.5 33 Z M 26.5625 35.78125 C 27.109375 36.527344 28.011719 37 29 37 L 45 37 C 45.988281 37 46.890625 36.527344 47.4375 35.78125 L 47.78125 36.5625 C 47.785156 36.570313 47.777344 36.585938 47.78125 36.59375 C 47.929688 36.976563 48 37.335938 48 37.8125 L 48 45 L 26 45 L 26 37.8125 C 26 37.453125 26.085938 36.941406 26.21875 36.59375 C 26.222656 36.585938 26.214844 36.570313 26.21875 36.5625 Z M 30 39 C 28.894531 39 28 39.894531 28 41 C 28 42.105469 28.894531 43 30 43 C 31.105469 43 32 42.105469 32 41 C 32 39.894531 31.105469 39 30 39 Z M 44 39 C 42.894531 39 42 39.894531 42 41 C 42 42.105469 42.894531 43 44 43 C 45.105469 43 46 42.105469 46 41 C 46 39.894531 45.105469 39 44 39 Z M 3 43.5625 C 3.613281 43.835938 4.289063 44 5 44 L 9 44 L 9 45 C 9 45.554688 8.554688 46 8 46 L 4 46 C 3.445313 46 3 45.554688 3 45 Z M 26 47 L 29 47 L 29 48 L 26 48 Z M 45 47 L 48 47 L 48 48 L 45 48 Z"></path></svg>