<svg xmlns="http://www.w3.org/2000/svg" viewBox="0 0 512 512"><path d="M 204.17773 10 C 185.25173 10 170 25.966797 170 45.591797 L 170 123 L 132.64844 123 A 22.03 22.03 0 0 0 111 144.91797 L 111 209.06836 A 22.041 22.041 0 0 0 132.64844 231 L 144.91602 231 L 146.65039 256.58203 A 7.9 7.9 0 0 0 151.30664 263.25195 A 8.166 8.166 0 0 0 159.44531 262.43359 L 201.25977 231 L 242.01562 231 C 253.68463 231 263 221.08636 263 209.06836 L 263 175 L 287.12305 175 L 341.85938 227.11914 A 8.084 8.084 0 0 0 347.36914 229.40039 A 7.946 7.946 0 0 0 350.39844 228.8457 A 8.207 8.207 0 0 0 355.36133 221.56836 L 356.94336 175 L 376.18945 175 A 35.128 35.128 0 0 0 411 139.74609 L 411 45.591797 C 411 25.966797 395.11545 10 376.18945 10 L 204.17773 10 z M 204.17773 26 L 376.18945 26 C 386.29245 26 395 34.789797 395 45.591797 L 395 139.74609 A 19.113 19.113 0 0 1 376.18945 159 L 349.21289 159 A 8.145 8.145 0 0 0 341.21289 166.90039 L 339.97266 203.36133 L 295.81641 161.32812 A 8.124 8.124 0 0 0 290.31445 159 L 204.17773 159 C 194.07773 159 186 150.54809 186 139.74609 L 186 45.591797 C 186 34.789797 194.07473 26 204.17773 26 z M 212.73242 63 A 8 8 0 0 0 212.73242 79 L 291.69922 79 A 8 8 0 0 0 291.69922 63 L 212.73242 63 z M 212.73242 105 A 8 8 0 0 0 212.73242 121 L 364.3457 121 A 8 8 0 0 0 364.3457 105 L 212.73242 105 z M 132.64844 139 L 170 139 L 170 139.74609 C 170 159.37109 185.25173 175 204.17773 175 L 247 175 L 247 209.06836 C 247 212.26836 244.86162 215 242.01562 215 L 198.58398 215 A 7.932 7.932 0 0 0 193.77148 216.54297 L 161.61719 240.73242 L 160.375 222.4082 A 7.955 7.955 0 0 0 152.39453 215 L 132.64844 215 A 6.04 6.04 0 0 1 127 209.06836 L 127 144.91797 A 6.027 6.027 0 0 1 132.64844 139 z M 246.55469 242 A 28.664 28.664 0 0 0 230.42188 247.17578 A 67.1 67.1 0 0 0 188 309.0918 L 188 348.875 A 67.951 67.951 0 0 0 207.7168 396.23047 A 82.307 82.307 0 0 0 217 403.90625 L 217 411 L 196.14844 411 C 169.78944 411 148 432.4535 148 458.8125 L 148 494 A 8.3 8.3 0 0 0 156.3457 502 L 355.6543 502 A 8.3 8.3 0 0 0 364 494 L 364 458.8125 C 364 432.4535 342.21056 411 315.85156 411 L 295 411 L 295 402.14453 C 297 400.33053 299.53719 398.36747 301.61719 396.23047 A 67.62 67.62 0 0 0 321 348.875 L 321 298 L 327.35156 298 A 8.081 8.081 0 0 0 335.35156 289.90625 A 47.947 47.947 0 0 0 287.53711 242 L 246.55469 242 z M 246.55273 258 L 246.55469 258 L 287.53516 258 C 302.31416 258 314.77113 269 318.32812 282 L 246.55469 282 A 12 12 0 0 1 246.55273 258 z M 218.90039 273.94336 A 27.94 27.94 0 0 0 231.42773 293.71484 A 46.446 46.446 0 0 1 204.59961 305.88477 A 50.512 50.512 0 0 1 218.90039 273.94336 z M 249.24023 298 L 305 298 L 305 348.875 A 51.637 51.637 0 0 1 290.2168 385.06836 A 49.239 49.239 0 0 1 254.74805 400.28711 A 49.789 49.789 0 0 1 219.03711 385.06836 A 51.887 51.887 0 0 1 204 348.875 L 204 321.91406 C 215 321.18006 233.70023 317 249.24023 298 z M 78.089844 303.00586 C 54.478844 303.00586 35.269531 321.63616 35.269531 344.53516 C 35.269531 367.43516 54.478844 386.06445 78.089844 386.06445 C 101.70084 386.06445 120.91016 367.43516 120.91016 344.53516 C 120.91016 321.63516 101.70084 303.00586 78.089844 303.00586 z M 433.91016 303.00586 C 410.29916 303.00586 391.08984 321.63616 391.08984 344.53516 C 391.08984 367.43516 410.29916 386.06445 433.91016 386.06445 C 457.52116 386.06445 476.73047 367.43516 476.73047 344.53516 C 476.73047 321.63516 457.52116 303.00586 433.91016 303.00586 z M 78.089844 319.00586 C 92.878844 319.00586 104.91016 330.45816 104.91016 344.53516 C 104.91016 358.61216 92.878844 370.06445 78.089844 370.06445 C 63.300844 370.06445 51.269531 358.61216 51.269531 344.53516 C 51.269531 330.45816 63.299844 319.00586 78.089844 319.00586 z M 433.91016 319.00586 C 448.69916 319.00586 460.73047 330.45816 460.73047 344.53516 C 460.73047 358.61216 448.69916 370.06445 433.91016 370.06445 C 419.12116 370.06445 407.08984 358.61216 407.08984 344.53516 C 407.08984 330.45816 419.12116 319.00586 433.91016 319.00586 z M 219.71289 329.52539 A 8 8 0 0 0 211.94727 337.52148 A 17.946 17.946 0 1 0 247.83984 337.52148 A 8 8 0 0 0 231.83984 337.52148 A 1.946 1.946 0 0 1 227.94727 337.52148 A 8 8 0 0 0 219.71289 329.52539 z M 269.44141 329.52539 A 8 8 0 0 0 261.67578 337.52148 A 17.966 17.966 0 0 0 279.62109 355.46875 A 17.965 17.965 0 0 0 297.56641 337.52148 A 8 8 0 0 0 281.56641 337.52148 A 1.946 1.946 0 1 1 277.67578 337.52148 A 8 8 0 0 0 269.44141 329.52539 z M 78 388.13281 C 40.456 388.13281 10 417.67814 10 453.99414 L 10 464.25 A 7.791 7.791 0 0 0 18 472 L 138.17969 472 A 7.639 7.639 0 0 0 146 464.25 L 146 453.99414 C 146 417.67814 115.544 388.13281 78 388.13281 z M 434 388.13281 C 396.456 388.13281 366 417.67814 366 453.99414 L 366 464.25 A 7.639 7.639 0 0 0 373.82031 472 L 494 472 A 7.791 7.791 0 0 0 502 464.25 L 502 453.99414 C 502 417.67814 471.544 388.13281 434 388.13281 z M 78 404.13281 C 106.722 404.13281 130 426.50014 130 453.99414 L 130 456 L 26 456 L 26 453.99414 C 26 426.50014 49.278 404.13281 78 404.13281 z M 434 404.13281 C 462.722 404.13281 486 426.50014 486 453.99414 L 486 456 L 382 456 L 382 453.99414 C 382 426.50014 405.278 404.13281 434 404.13281 z M 279 411.51172 L 279 414.56445 L 255.35352 429.41211 L 233 414.67773 L 233 412.41992 A 63.329 63.329 0 0 0 254.83594 416.28711 A 64.668 64.668 0 0 0 279 411.51172 z M 196.14844 427 L 222.33984 427 L 247 443.22852 L 247 486 L 164 486 L 164 458.8125 C 164 441.2755 178.61244 427 196.14844 427 z M 289.41016 427 L 315.85156 427 C 333.38756 427 348 441.2755 348 458.8125 L 348 486 L 263 486 L 263 443.34375 L 289.41016 427 z"></path></svg>