<svg xmlns="http://www.w3.org/2000/svg" viewBox="0 0 480 480"><path d="M 88.113281 0 C 60.541281 0 39.460328 23.192906 40.736328 49.628906 C 27.503328 53.271906 18.585938 65.272188 18.585938 78.742188 C 18.585938 95.427188 32.15875 109 48.84375 109 L 130.92773 109 C 150.34773 109 166.14648 93.199297 166.14648 73.779297 C 166.14648 54.359297 150.34773 38.560547 130.92773 38.560547 C 119.71373 38.560547 109.06912 43.975875 102.45312 53.046875 C 99.849125 56.616875 100.63412 61.620609 104.20312 64.224609 C 107.77412 66.827609 112.77881 66.043609 115.38281 62.474609 C 118.99581 57.518609 124.80773 54.560547 130.92773 54.560547 C 141.52573 54.560547 150.14648 63.181297 150.14648 73.779297 C 150.14648 84.377297 141.52473 93 130.92773 93 L 48.84375 93 C 40.98275 93 34.585938 86.604187 34.585938 78.742188 C 34.585938 71.101187 40.643078 64.306906 49.580078 64.503906 C 54.853078 64.603906 58.736969 59.728016 57.542969 54.666016 C 52.871969 34.889016 67.885281 16 88.113281 16 C 93.479281 16 98.773828 17.375563 103.42383 19.976562 C 107.27883 22.133563 112.15255 20.756391 114.31055 16.900391 C 116.46855 13.044391 115.09133 8.1716719 111.23633 6.0136719 C 104.20433 2.0796719 96.209281 1.1842379e-15 88.113281 0 z M 283 47 C 278.582 47 275 50.582 275 55 L 275 90.806641 C 275 95.224641 278.582 98.806641 283 98.806641 C 287.418 98.806641 291 95.224641 291 90.806641 L 291 63 L 464 63 L 464 464 L 388 464 L 388 155.59766 C 388 152.05166 385.66562 148.92783 382.26562 147.92383 L 219.26562 99.798828 C 214.14562 98.287828 209 102.12966 209 107.47266 L 209 135.96875 C 209 140.38675 212.582 143.96875 217 143.96875 C 221.418 143.96875 225 140.38675 225 135.96875 L 225 118.17578 L 372 161.57617 L 372 464 L 332 464 L 332 298 C 332 293.582 328.418 290 324 290 L 298.5 290 C 294.082 290 290.5 293.582 290.5 298 C 290.5 302.418 294.082 306 298.5 306 L 316 306 L 316 464 L 271 464 L 271 178 C 271 173.582 267.418 170 263 170 L 69 170 C 64.582 170 61 173.582 61 178 L 61 464 L 16 464 L 16 306 L 33.806641 306 C 38.224641 306 41.806641 302.418 41.806641 298 C 41.806641 293.582 38.224641 290 33.806641 290 L 8 290 C 3.582 290 0 293.582 0 298 L 0 472 C 0 476.418 3.582 480 8 480 L 472 480 C 476.418 480 480 476.418 480 472 L 480 55 C 480 50.582 476.418 47 472 47 L 283 47 z M 359.19336 100 C 354.77536 100 351.19336 103.582 351.19336 108 C 351.19336 112.418 354.77536 116 359.19336 116 L 430 116 C 434.418 116 438 112.418 438 108 C 438 103.582 434.418 100 430 100 L 359.19336 100 z M 415 180 C 410.582 180 407 183.582 407 188 C 407 192.418 410.582 196 415 196 L 430 196 C 434.418 196 438 192.418 438 188 C 438 183.582 434.418 180 430 180 L 415 180 z M 77 186 L 255 186 L 255 464 L 220 464 L 220 398 C 220 393.582 216.418 390 212 390 L 120 390 C 115.582 390 112 393.582 112 398 L 112 464 L 77 464 L 77 186 z M 318 205 C 313.582 205 310 208.582 310 213 C 310 217.418 313.582 221 318 221 L 336 221 C 340.418 221 344 217.418 344 213 C 344 208.582 340.418 205 336 205 L 318 205 z M 166 219 C 161.582 219 158 222.582 158 227 L 158 357 C 158 361.418 161.582 365 166 365 C 170.418 365 174 361.418 174 357 L 174 227 C 174 222.582 170.418 219 166 219 z M 116 228 C 111.582 228 108 231.582 108 236 L 108 348 C 108 352.418 111.582 356 116 356 C 120.418 356 124 352.418 124 348 L 124 236 C 124 231.582 120.418 228 116 228 z M 216 228 C 211.582 228 208 231.582 208 236 L 208 348 C 208 352.418 211.582 356 216 356 C 220.418 356 224 352.418 224 348 L 224 236 C 224 231.582 220.418 228 216 228 z M 415 250 C 410.582 250 407 253.582 407 258 C 407 262.418 410.582 266 415 266 L 430 266 C 434.418 266 438 262.418 438 258 C 438 253.582 434.418 250 430 250 L 415 250 z M 415 320 C 410.582 320 407 323.582 407 328 C 407 332.418 410.582 336 415 336 L 430 336 C 434.418 336 438 332.418 438 328 C 438 323.582 434.418 320 430 320 L 415 320 z M 415 390 C 410.582 390 407 393.582 407 398 C 407 402.418 410.582 406 415 406 L 430 406 C 434.418 406 438 402.418 438 398 C 438 393.582 434.418 390 430 390 L 415 390 z M 128 406 L 204 406 L 204 464 L 128 464 L 128 406 z"></path></svg>