<svg xmlns="http://www.w3.org/2000/svg" viewBox="0 0 64 64"><path d="M 52.171875 2.0234375 A 4 4 0 0 0 49.080078 3.3300781 A 1 1 0 0 0 50.560547 4.6699219 L 50.519531 4.6699219 A 2 2 0 0 1 53.519531 4.6699219 A 1 1 0 0 0 54.259766 5 A 1 1 0 0 0 54.929688 4.7402344 A 1 1 0 0 0 55 3.3300781 A 4 4 0 0 0 52.171875 2.0234375 z M 25 7 A 4 4 0 0 0 25 15 L 26 15 L 26 21 L 18 21 A 5 5 0 0 0 13 26 L 13 36 A 3 3 0 0 0 16 39 L 17 39 A 1 1 0 0 0 17 37 L 16 37 A 1 1 0 0 1 15 36 L 15 26 A 3 3 0 0 1 18 23 L 26 23 L 26 24 A 3 3 0 0 0 32 24 L 32 23 L 40 23 A 3 3 0 0 1 43 26 L 43 36 A 1 1 0 0 1 42 37 L 41 37 A 1 1 0 0 0 41 39 L 42 39 A 3 3 0 0 0 45 36 L 45 26 A 5 5 0 0 0 40 21 L 32 21 L 32 15 L 58 15 A 1 1 0 0 0 58 13 L 25 13 A 2 2 0 0 1 25 9 L 58 9 A 1 1 0 0 0 58 7 L 25 7 z M 28 15 L 30 15 L 30 24 A 1 1 0 0 1 28 24 L 28 15 z M 48.970703 17 A 1 1 0 0 0 48 18 L 48 45 L 44 45 A 1 1 0 0 0 43 46 L 43 55 L 33 55 A 4.84 4.84 0 0 0 33.929688 53 L 34 53 A 3 3 0 0 0 34 47 L 32 47 L 32 40.619141 L 33.449219 39.890625 A 1 1 0 0 0 34 39 L 34 36 A 1 1 0 0 0 33.619141 35.210938 A 1 1 0 0 0 32.759766 35.029297 L 29 36 L 25.240234 35 A 1 1 0 0 0 24.380859 35.179688 A 1 1 0 0 0 24 36 L 24 39 A 1 1 0 0 0 24.550781 39.890625 L 26 40.619141 L 26 44 A 1 1 0 0 0 28 44 L 28 40 A 1 1 0 0 0 27.449219 39.109375 L 26 38.380859 L 26 37.279297 L 28.759766 37.970703 A 1 1 0 0 0 29.240234 37.970703 L 32 37.279297 L 32 38.380859 L 30.550781 39.109375 A 1 1 0 0 0 30 40 L 30 47 L 25 47 L 25 44.240234 A 1 1 0 0 0 24.630859 43.460938 A 7 7 0 1 1 33.369141 43.460938 A 1 1 0 1 0 34.630859 45 A 9 9 0 1 0 23 44.699219 L 23 47.179688 A 3 3 0 0 0 24 53 L 24.099609 53 A 4.84 4.84 0 0 0 25 55 L 18 55 L 18 46 A 1 1 0 0 0 17 45 L 7 45 A 1 1 0 0 0 6 46 L 6 55 L 5 55 A 3 3 0 0 0 2 58 L 2 59 A 3 3 0 0 0 5 62 L 60 62 A 3 3 0 0 0 63 59 L 63 58 A 3 3 0 0 0 60 55 L 45 55 L 45 52 L 50 52 A 1 1 0 0 0 50 50 L 45 50 L 45 47 L 59 47 L 59 50 L 56 50 A 1 1 0 0 0 56 52 L 59 52 A 1 1 0 0 0 61 52 L 61 46 A 1 1 0 0 0 60 45 L 56 45 L 56 18 A 1 1 0 0 0 54 18 L 54 45 L 50 45 L 50 18 A 1 1 0 0 0 48.970703 17 z M 8 47 L 11 47 L 11 49 A 1 1 0 0 0 13 49 L 13 47 L 16 47 L 16 55 L 8 55 L 8 47 z M 24 49 L 34 49 A 1 1 0 0 1 34 51 L 24 51 A 1 1 0 0 1 23 50 A 1 1 0 0 1 24 49 z M 26.169922 53 L 31.830078 53 A 3 3 0 0 1 26.169922 53 z M 5 57 L 11 57 L 11 60 L 5 60 A 1 1 0 0 1 4 59 L 4 58 A 1 1 0 0 1 5 57 z M 13 57 L 18 57 L 18 60 L 13 60 L 13 57 z M 20 57 L 25 57 L 25 60 L 20 60 L 20 57 z M 27 57 L 32 57 L 32 60 L 27 60 L 27 57 z M 34 57 L 39 57 L 39 60 L 34 60 L 34 57 z M 41 57 L 46 57 L 46 60 L 41 60 L 41 57 z M 48 57 L 53 57 L 53 60 L 48 60 L 48 57 z M 55 57 L 60 57 A 1 1 0 0 1 61 58 L 61 59 A 1 1 0 0 1 60 60 L 55 60 L 55 57 z"></path></svg>