<svg xmlns="http://www.w3.org/2000/svg" viewBox="0 0 50 50"><path d="M 35.1875 0 L 21.8125 13.40625 L 24.59375 16.1875 L 27.1875 13.59375 L 38 2.8125 Z M 20.375 0.5 C 20.125 0.507813 19.867188 0.601563 19.6875 0.78125 L 10.4375 9.96875 C 12.613281 15.367188 19.730469 22.597656 23.5 26.40625 L 24.8125 27.65625 C 30.242188 32.878906 35.445313 37.859375 39.8125 39.59375 L 49.21875 30.21875 C 49.738281 29.699219 50.371094 29.042969 44.5 21.9375 L 38 28.40625 C 37.609375 28.796875 37.105469 29 36.59375 29 C 36.082031 29 35.578125 28.796875 35.1875 28.40625 L 32.375 25.625 C 32 25.25 31.8125 24.71875 31.8125 24.1875 C 31.8125 23.65625 32 23.15625 32.375 22.78125 L 35 20.1875 L 39.15625 16.03125 C 38.34375 15.160156 37.480469 14.292969 36.59375 13.40625 C 35.503906 12.316406 34.453125 11.265625 33.375 10.25 L 26 17.625 C 25.625 18 25.125 18.1875 24.59375 18.1875 C 24.0625 18.1875 23.5625 18 23.1875 17.625 L 20.375 14.8125 C 20 14.4375 19.8125 13.9375 19.8125 13.40625 C 19.8125 12.875 20 12.375 20.375 12 L 27.375 5 C 24.773438 2.898438 21.859375 0.804688 20.625 0.53125 C 20.542969 0.511719 20.457031 0.496094 20.375 0.5 Z M 47.1875 10.8125 L 33.8125 24.1875 L 36.59375 27 L 50 13.59375 Z M 9.09375 11.9375 L 5.625 26.4375 C 5.503906 26.867188 5.132813 28.15625 13.375 36.59375 C 16.300781 39.585938 21.296875 44.375 23.3125 44.375 C 23.382813 44.375 23.46875 44.386719 23.53125 44.375 L 37.90625 40.9375 C 33.511719 38.78125 28.742188 34.191406 23.4375 29.09375 L 22.09375 27.8125 C 15.925781 21.582031 11.257813 16.320313 9.09375 11.9375 Z M 6.84375 32.46875 L 4.34375 34.96875 C 4.171875 35.140625 4.09375 35.351563 4.09375 35.59375 C 4.09375 35.835938 4.171875 36.078125 4.34375 36.25 L 13.75 45.65625 C 13.925781 45.835938 14.175781 45.90625 14.40625 45.90625 C 14.636719 45.90625 14.855469 45.835938 15.03125 45.65625 L 17.46875 43.1875 C 16.015625 41.972656 14.242188 40.324219 11.96875 38 C 9.742188 35.71875 8.070313 33.929688 6.84375 32.46875 Z M 5.4375 40.15625 L 0.28125 45.28125 C 0.09375 45.46875 0 45.734375 0 46 C 0 46.265625 0.09375 46.53125 0.28125 46.71875 L 3.28125 49.71875 C 3.476563 49.914063 3.742188 50 4 50 C 4.257813 50 4.523438 49.914063 4.71875 49.71875 L 9.84375 44.5625 Z"></path></svg>