<svg xmlns="http://www.w3.org/2000/svg" viewBox="0 0 64 64"><path d="M 43.75 2 A 8.2 8.2 0 0 0 36.009766 10 L 27 10 A 7.008 7.008 0 0 0 20 17 L 20 18.183594 A 2.982 2.982 0 0 0 20 23.816406 L 20 24 L 16 24 L 16 23 A 3 3 0 0 0 10 23 L 10 31 A 3 3 0 0 0 16 31 L 16 30 L 20 30 L 20 30.171875 A 2.992 2.992 0 0 0 20 35.816406 L 20 37 L 3 37 A 1 1 0 0 0 3 39 L 21 39 A 1 1 0 0 0 22 38 L 22 36 L 28 36 L 28 40 A 5.006 5.006 0 0 1 23 45 L 20 45 A 1 1 0 0 0 20 47 L 23 47 A 7.008 7.008 0 0 0 30 40 L 30 35.816406 A 2.982 2.982 0 0 0 30 30.183594 L 30 23.828125 A 3.006 3.006 0 0 0 32 21 A 2.966 2.966 0 0 0 31.816406 20 L 33 20 A 1 1 0 0 0 33 18 L 22 18 L 22 17 A 5.006 5.006 0 0 1 27 12 L 36 12 L 36 22.423828 A 5 5 0 0 0 38 32 L 41 32 L 41 35.642578 A 2.716 2.716 0 0 0 41 39.853516 L 41 40.5 A 1.5 1.5 0 0 1 38 40.5 L 38 34.857422 A 1 1 0 0 0 36 34.857422 L 36 40.5 A 3.492 3.492 0 0 0 42.978516 40.712891 L 45.355469 41.505859 L 45.878906 54.105469 A 4.062 4.062 0 0 0 54 53.9375 L 54 36 A 1 1 0 0 0 52 36 L 52 53.9375 A 2.062 2.062 0 0 1 47.876953 54.023438 L 47.324219 40.734375 A 1 1 0 0 0 46.642578 39.826172 L 42.509766 38.449219 A 0.743 0.743 0 0 1 42.742188 37 L 46.167969 37 A 1 1 0 0 0 47.167969 35.966797 L 47 30.966797 A 1 1 0 0 0 46 30 L 38 30 A 3 3 0 0 1 38 24 L 52 24 L 52 32 A 1 1 0 0 0 54 32 L 54 20 L 56 20 L 56 21 A 1 1 0 0 0 57 22 L 61 22 A 1 1 0 0 0 62 21 L 62 9 A 1 1 0 0 0 61 8 A 1 1 0 0 0 60 9 L 60 20 L 58 20 L 58 9 A 1 1 0 0 0 56 9 L 56 10 L 53.941406 10 A 8.992 8.992 0 0 0 45 2 L 43.75 2 z M 43.783203 4 L 45 4 A 6.951 6.951 0 0 1 49.890625 6 L 44 6 A 1 1 0 0 0 43 7 L 43 10 L 42 10 A 1 1 0 0 0 41 11 L 41 22 L 38 22 L 38 10.292969 A 6.2 6.2 0 0 1 43.783203 4 z M 45 8 L 51.318359 8 A 6.936 6.936 0 0 1 51.929688 10 L 45 10 L 45 8 z M 43 12 L 56 12 L 56 18 L 54 18 A 1 1 0 0 0 53 17 L 46 17 A 1 1 0 0 0 45 18 L 43 18 L 43 12 z M 47 19 L 52 19 L 52 22 L 47 22 L 47 19 z M 20.958984 20 A 1 1 0 0 1 21 20 L 29 20 A 1 1 0 0 1 30 21 A 1 1 0 0 1 29 22 A 1 1 0 0 0 28 23 L 28 30 L 25 30 A 1 1 0 0 0 25 32 L 29 32 A 1 1 0 0 1 29 34 L 21 34 A 1 1 0 0 1 21 32 A 1 1 0 0 0 22 31 L 22 24 L 25 24 A 1 1 0 0 0 25 22 L 21 22 A 1 1 0 0 1 20.958984 20 z M 43 20 L 45 20 L 45 22 L 43 22 L 43 20 z M 13.029297 22 A 1 1 0 0 1 14 23 L 14 31 A 1 1 0 0 1 12 31 L 12 23 A 1 1 0 0 1 13.029297 22 z M 16 26 L 20 26 L 20 28 L 16 28 L 16 26 z M 39 26 A 1 1 0 0 0 39 28 L 49 28 A 1 1 0 0 0 49 26 L 39 26 z M 43 32 L 45.033203 32 L 45.132812 35 L 43 35 L 43 32 z M 3 45 A 1 1 0 0 0 3 47 L 16 47 A 1 1 0 0 0 16 45 L 3 45 z M 22.984375 49 A 1 1 0 0 0 22.292969 49.292969 C 21.853969 49.731969 18 53.682 18 57 A 5 5 0 0 0 28 57 C 28 53.682 24.146031 49.731969 23.707031 49.292969 A 1 1 0 0 0 22.984375 49 z M 23 51.470703 C 24.216 52.860703 26 55.27 26 57 A 3 3 0 0 1 23 60 A 3 3 0 0 1 20 57 C 20 55.273 21.784 52.860703 23 51.470703 z"></path></svg>