<svg xmlns="http://www.w3.org/2000/svg" viewBox="0 0 80 80"><path d="M 36.324219 6 L 34.050781 11.675781 C 30.46875 12.425781 27.136719 13.828125 24.171875 15.765625 L 18.558594 13.359375 L 13.359375 18.558594 L 15.765625 24.171875 C 13.824219 27.136719 12.425781 30.46875 11.675781 34.050781 L 6 36.324219 L 6 43.675781 L 11.675781 45.949219 C 12.425781 49.53125 13.828125 52.863281 15.765625 55.828125 L 13.359375 61.441406 L 18.558594 66.640625 L 24.171875 64.234375 C 27.136719 66.175781 30.46875 67.574219 34.050781 68.324219 L 36.324219 74 L 43.675781 74 L 45.949219 68.324219 C 49.53125 67.574219 52.863281 66.171875 55.828125 64.234375 L 61.441406 66.640625 L 66.640625 61.441406 L 64.234375 55.828125 C 66.175781 52.863281 67.574219 49.53125 68.324219 45.949219 L 74 43.675781 L 74 36.324219 L 68.324219 34.050781 C 67.574219 30.46875 66.171875 27.136719 64.234375 24.171875 L 66.640625 18.558594 L 61.441406 13.359375 L 55.828125 15.765625 C 52.863281 13.824219 49.53125 12.425781 45.949219 11.675781 L 43.675781 6 Z M 37.675781 8 L 42.324219 8 L 44.46875 13.371094 L 45.011719 13.46875 C 48.738281 14.171875 52.199219 15.632813 55.21875 17.699219 L 55.671875 18.003906 L 60.984375 15.730469 L 64.269531 19.015625 L 61.992188 24.328125 L 62.300781 24.78125 C 64.367188 27.800781 65.828125 31.257813 66.527344 34.988281 L 66.628906 35.53125 L 72 37.675781 L 72 42.324219 L 66.628906 44.46875 L 66.53125 45.011719 C 65.828125 48.738281 64.367188 52.199219 62.300781 55.21875 L 61.996094 55.671875 L 64.269531 60.984375 L 60.984375 64.269531 L 55.671875 61.992188 L 55.21875 62.300781 C 52.199219 64.367188 48.742188 65.828125 45.011719 66.527344 L 44.46875 66.628906 L 42.324219 72 L 37.675781 72 L 35.53125 66.628906 L 34.988281 66.53125 C 31.261719 65.828125 27.800781 64.367188 24.78125 62.300781 L 24.328125 61.996094 L 19.015625 64.269531 L 15.730469 60.984375 L 18.007813 55.671875 L 17.699219 55.21875 C 15.632813 52.199219 14.171875 48.742188 13.472656 45.011719 L 13.371094 44.46875 L 8 42.324219 L 8 37.675781 L 13.371094 35.53125 L 13.46875 34.988281 C 14.171875 31.261719 15.632813 27.800781 17.699219 24.78125 L 18.003906 24.328125 L 15.730469 19.015625 L 19.015625 15.730469 L 24.328125 18.007813 L 24.78125 17.699219 C 27.800781 15.632813 31.257813 14.171875 34.988281 13.472656 L 35.53125 13.371094 Z M 40 14 C 39.449219 14 39 14.449219 39 15 C 39 15.550781 39.449219 16 40 16 C 40.550781 16 41 15.550781 41 15 C 41 14.449219 40.550781 14 40 14 Z M 42 18.082031 L 42 26.121094 L 42.800781 26.28125 C 49.1875 27.578125 54 33.214844 54 40 C 54 41.546875 53.738281 43.03125 53.269531 44.433594 L 53.015625 45.203125 L 59.988281 49.234375 L 60.421875 48.160156 C 61.429688 45.636719 62 42.886719 62 40 C 62 28.929688 53.796875 19.777344 43.140625 18.25 Z M 38 18.085938 L 36.859375 18.25 C 26.203125 19.777344 18 28.929688 18 40 C 18 42.886719 18.570313 45.636719 19.578125 48.160156 L 20.011719 49.230469 L 26.984375 45.203125 L 26.730469 44.429688 C 26.261719 43.03125 26 41.546875 26 40 C 26 33.214844 30.8125 27.578125 37.199219 26.28125 L 38 26.121094 Z M 36 20.5 L 36 24.636719 C 29.125 26.429688 24 32.574219 24 40 C 24 41.480469 24.316406 42.867188 24.691406 44.21875 L 21.105469 46.292969 C 20.4375 44.300781 20 42.210938 20 40 C 20 30.324219 26.886719 22.363281 36 20.5 Z M 44 20.5 C 53.113281 22.363281 60 30.324219 60 40 C 60 42.210938 59.5625 44.304688 58.894531 46.292969 L 55.308594 44.21875 C 55.683594 42.867188 56 41.480469 56 40 C 56 32.574219 50.875 26.429688 44 24.632813 Z M 22.335938 21.324219 C 22.066406 21.316406 21.804688 21.421875 21.613281 21.613281 C 21.222656 22.003906 21.222656 22.640625 21.613281 23.03125 C 21.800781 23.21875 22.054688 23.324219 22.320313 23.324219 C 22.585938 23.324219 22.839844 23.21875 23.03125 23.03125 C 23.417969 22.640625 23.417969 22.003906 23.03125 21.613281 C 22.84375 21.429688 22.597656 21.324219 22.335938 21.324219 Z M 57.691406 21.324219 C 57.421875 21.320313 57.160156 21.425781 56.96875 21.613281 C 56.582031 22.003906 56.582031 22.640625 56.96875 23.03125 C 57.359375 23.417969 57.996094 23.417969 58.386719 23.03125 C 58.773438 22.640625 58.773438 22.003906 58.386719 21.613281 C 58.199219 21.429688 57.953125 21.324219 57.691406 21.324219 Z M 40 29 C 39.449219 29 39 29.449219 39 30 C 39 30.550781 39.449219 31 40 31 C 40.550781 31 41 30.550781 41 30 C 41 29.449219 40.550781 29 40 29 Z M 34.976563 30.339844 C 34.808594 30.34375 34.644531 30.390625 34.5 30.472656 C 34.269531 30.605469 34.101563 30.824219 34.03125 31.082031 C 33.964844 31.335938 34 31.609375 34.132813 31.839844 C 34.265625 32.070313 34.484375 32.238281 34.742188 32.304688 C 34.996094 32.375 35.269531 32.339844 35.5 32.203125 C 35.976563 31.929688 36.140625 31.316406 35.863281 30.839844 C 35.683594 30.523438 35.34375 30.332031 34.976563 30.339844 Z M 44.953125 30.34375 C 44.613281 30.359375 44.304688 30.546875 44.132813 30.839844 C 44 31.070313 43.964844 31.34375 44.03125 31.597656 C 44.101563 31.855469 44.269531 32.074219 44.5 32.207031 C 44.976563 32.484375 45.589844 32.316406 45.863281 31.839844 C 46.140625 31.363281 45.976563 30.75 45.5 30.472656 C 45.332031 30.378906 45.144531 30.332031 44.953125 30.34375 Z M 48.636719 34 C 48.46875 34.003906 48.304688 34.050781 48.15625 34.132813 C 47.929688 34.265625 47.761719 34.484375 47.691406 34.742188 C 47.625 34.996094 47.660156 35.269531 47.792969 35.5 C 48.070313 35.976563 48.679688 36.140625 49.15625 35.863281 C 49.636719 35.589844 49.800781 34.976563 49.527344 34.5 C 49.34375 34.183594 49 33.992188 48.636719 34 Z M 31.292969 34 C 30.953125 34.019531 30.644531 34.207031 30.472656 34.5 C 30.339844 34.730469 30.304688 35.003906 30.371094 35.257813 C 30.441406 35.515625 30.609375 35.734375 30.839844 35.867188 C 31.316406 36.144531 31.929688 35.976563 32.203125 35.5 C 32.480469 35.023438 32.316406 34.410156 31.839844 34.136719 C 31.671875 34.039063 31.484375 33.992188 31.292969 34 Z M 40 35 C 37.25 35 35 37.25 35 40 C 35 42.75 37.25 45 40 45 C 42.75 45 45 42.75 45 40 C 45 37.25 42.75 35 40 35 Z M 40 37 C 41.667969 37 43 38.332031 43 40 C 43 41.667969 41.667969 43 40 43 C 38.332031 43 37 41.667969 37 40 C 37 38.332031 38.332031 37 40 37 Z M 15 39 C 14.449219 39 14 39.449219 14 40 C 14 40.550781 14.449219 41 15 41 C 15.550781 41 16 40.550781 16 40 C 16 39.449219 15.550781 39 15 39 Z M 30 39 C 29.449219 39 29 39.449219 29 40 C 29 40.550781 29.449219 41 30 41 C 30.550781 41 31 40.550781 31 40 C 31 39.449219 30.550781 39 30 39 Z M 50 39 C 49.449219 39 49 39.449219 49 40 C 49 40.550781 49.449219 41 50 41 C 50.550781 41 51 40.550781 51 40 C 51 39.449219 50.550781 39 50 39 Z M 65 39 C 64.449219 39 64 39.449219 64 40 C 64 40.550781 64.449219 41 65 41 C 65.550781 41 66 40.550781 66 40 C 66 39.449219 65.550781 39 65 39 Z M 31.316406 44 C 31.148438 44.003906 30.984375 44.046875 30.839844 44.132813 C 30.363281 44.410156 30.195313 45.019531 30.472656 45.5 C 30.605469 45.726563 30.824219 45.894531 31.082031 45.964844 C 31.335938 46.035156 31.609375 46 31.839844 45.863281 C 32.070313 45.734375 32.238281 45.515625 32.304688 45.257813 C 32.375 45 32.339844 44.726563 32.203125 44.5 C 32.023438 44.179688 31.683594 43.988281 31.316406 44 Z M 48.609375 44 C 48.269531 44.019531 47.960938 44.207031 47.792969 44.5 C 47.515625 44.980469 47.679688 45.589844 48.15625 45.867188 C 48.636719 46.144531 49.246094 45.980469 49.523438 45.5 C 49.65625 45.273438 49.691406 45 49.625 44.742188 C 49.554688 44.484375 49.386719 44.265625 49.15625 44.136719 C 48.992188 44.039063 48.800781 43.992188 48.609375 44 Z M 44.972656 47.65625 C 44.808594 47.664063 44.644531 47.707031 44.5 47.792969 C 44.019531 48.070313 43.855469 48.679688 44.132813 49.15625 C 44.410156 49.636719 45.019531 49.800781 45.5 49.527344 C 45.726563 49.394531 45.894531 49.175781 45.964844 48.917969 C 46.035156 48.660156 46 48.386719 45.863281 48.15625 C 45.683594 47.839844 45.339844 47.648438 44.972656 47.65625 Z M 34.953125 47.660156 C 34.613281 47.679688 34.304688 47.867188 34.132813 48.160156 C 34 48.390625 33.964844 48.664063 34.03125 48.917969 C 34.101563 49.175781 34.269531 49.394531 34.5 49.527344 C 34.726563 49.660156 35 49.695313 35.257813 49.628906 C 35.515625 49.558594 35.734375 49.390625 35.863281 49.160156 C 36.140625 48.683594 35.976563 48.070313 35.5 47.796875 C 35.332031 47.699219 35.140625 47.652344 34.953125 47.660156 Z M 28.992188 48.664063 L 22.015625 52.691406 L 22.730469 53.601563 C 26.753906 58.707031 32.996094 62 40 62 C 47.003906 62 53.246094 58.707031 57.269531 53.601563 L 57.984375 52.691406 L 51.007813 48.664063 L 50.464844 49.277344 C 47.898438 52.171875 44.175781 54 40 54 C 35.824219 54 32.101563 52.171875 29.535156 49.277344 Z M 40 49 C 39.449219 49 39 49.449219 39 50 C 39 50.550781 39.449219 51 40 51 C 40.550781 51 41 50.550781 41 50 C 41 49.449219 40.550781 49 40 49 Z M 28.65625 51.167969 C 31.554688 54.113281 35.542969 56 40 56 C 44.457031 56 48.445313 54.113281 51.34375 51.167969 L 54.875 53.203125 C 51.210938 57.332031 45.953125 60 40 60 C 34.046875 60 28.789063 57.332031 25.125 53.203125 Z M 22.335938 56.675781 C 22.066406 56.675781 21.804688 56.78125 21.613281 56.96875 C 21.226563 57.359375 21.226563 57.996094 21.613281 58.386719 C 22.003906 58.773438 22.640625 58.773438 23.03125 58.386719 C 23.417969 57.996094 23.417969 57.359375 23.03125 56.96875 C 22.84375 56.785156 22.597656 56.679688 22.335938 56.675781 Z M 57.691406 56.675781 C 57.421875 56.675781 57.160156 56.78125 56.96875 56.96875 C 56.582031 57.359375 56.582031 57.996094 56.96875 58.386719 C 57.359375 58.773438 57.996094 58.773438 58.386719 58.386719 C 58.773438 57.996094 58.773438 57.359375 58.386719 56.96875 C 58.199219 56.785156 57.953125 56.679688 57.691406 56.675781 Z M 40 64 C 39.449219 64 39 64.449219 39 65 C 39 65.550781 39.449219 66 40 66 C 40.550781 66 41 65.550781 41 65 C 41 64.449219 40.550781 64 40 64 Z"></path></svg>