<svg xmlns="http://www.w3.org/2000/svg" viewBox="0 0 64 64"><path d="M 16 0 A 1 1 0 0 0 15.292969 0.29296875 L 7.2929688 8.2929688 A 1 1 0 0 0 7.25 8.3378906 A 1 1 0 0 0 7.1933594 8.4082031 A 1 1 0 0 0 7.1894531 8.4140625 A 1 1 0 0 0 7.1582031 8.4609375 A 1 1 0 0 0 7.1230469 8.5214844 A 1 1 0 0 0 7.0917969 8.5839844 A 1 1 0 0 0 7.0605469 8.6640625 A 1 1 0 0 0 7.0527344 8.6835938 A 1 1 0 0 0 7.0273438 8.7734375 A 1 1 0 0 0 7.0136719 8.8378906 A 1 1 0 0 0 7.0058594 8.9003906 A 1 1 0 0 0 7 8.9921875 A 1 1 0 0 0 7 9 L 7 41 L 9 41 L 9 10 L 14 10 A 3 3 0 0 0 17 7 L 17 2 L 52 2 A 3 3 0 0 1 55 5 L 55 9 L 57 9 L 57 5 A 5.006 5.006 0 0 0 52 0 L 16.015625 0 L 16 0 z M 15 3.4140625 L 15 7 A 1 1 0 0 1 14 8 L 10.414062 8 L 15 3.4140625 z M 60.328125 9.0371094 A 3.9 3.9 0 0 0 57.490234 10.117188 L 41.511719 26.097656 L 35.441406 20.027344 A 4 4 0 0 0 36 18 A 4 4 0 1 0 28.558594 20.027344 L 22.029297 26.556641 A 4 4 0 1 0 20 34 A 4 4 0 0 0 24 30 A 4 4 0 0 0 23.443359 27.970703 L 29.972656 21.441406 A 4 4 0 0 0 32 22 A 4 4 0 0 0 34.027344 21.441406 L 40.097656 27.511719 L 34.945312 32.662109 A 1 1 0 0 0 34.701172 33.058594 L 32.070312 39.628906 A 1 1 0 0 0 33 41 A 1 1 0 0 0 33.369141 40.929688 L 39.964844 38.289062 A 1 1 0 0 0 40.337891 38.054688 L 62.882812 15.509766 A 3.817 3.817 0 0 0 62.882812 10.117188 A 3.9 3.9 0 0 0 60.328125 9.0371094 z M 60.115234 11.023438 A 1.858 1.858 0 0 1 61.46875 11.535156 A 1.816 1.816 0 0 1 61.46875 14.099609 L 60.851562 14.716797 L 58.287109 12.152344 L 58.904297 11.535156 A 1.858 1.858 0 0 1 60.115234 11.023438 z M 56.873047 13.566406 L 59.435547 16.130859 L 58.199219 17.369141 L 55.634766 14.804688 L 56.873047 13.566406 z M 32 16 A 2 2 0 0 1 34 18 A 2 2 0 1 1 32 16 z M 54.220703 16.21875 L 54.794922 16.792969 L 39.21875 32.369141 L 38.066406 32.369141 L 54.220703 16.21875 z M 56.208984 18.207031 L 56.785156 18.783203 L 40.630859 34.933594 L 40.630859 33.785156 L 56.208984 18.207031 z M 55 25 L 55 27 L 57 27 L 57 25 L 55 25 z M 20 28 A 2 2 0 0 1 22 30 A 2 2 0 1 1 20 28 z M 55 29 L 55 43 L 1 43 A 1 1 0 0 0 0 44 L 0 54 A 1 1 0 0 0 1 55 L 7 55 L 7 59 A 5.006 5.006 0 0 0 12 64 L 52 64 A 5.006 5.006 0 0 0 57 59 L 57 55 L 63 55 A 1 1 0 0 0 64 54 L 64 44 A 1 1 0 0 0 63 43 L 57 43 L 57 29 L 55 29 z M 36.330078 34.369141 L 38.630859 34.369141 L 38.630859 36.673828 L 37.980469 36.933594 L 36.070312 35.023438 L 36.330078 34.369141 z M 35.263672 37.044922 L 35.960938 37.742188 L 34.800781 38.205078 L 35.263672 37.044922 z M 11 39 L 11 41 L 13 41 L 13 39 L 11 39 z M 15 39 L 15 41 L 31 41 L 31 39 L 15 39 z M 2 45 L 5 45 L 5 48 L 7 48 L 7 45 L 9 45 L 9 50 L 11 50 L 11 45 L 13 45 L 13 48 L 15 48 L 15 45 L 17 45 L 17 50 L 19 50 L 19 45 L 21 45 L 21 48 L 23 48 L 23 45 L 25 45 L 25 50 L 27 50 L 27 45 L 29 45 L 29 48 L 31 48 L 31 45 L 33 45 L 33 50 L 35 50 L 35 45 L 37 45 L 37 48 L 39 48 L 39 45 L 41 45 L 41 50 L 43 50 L 43 45 L 45 45 L 45 48 L 47 48 L 47 45 L 49 45 L 49 50 L 51 50 L 51 45 L 53 45 L 53 48 L 55 48 L 55 45 L 57 45 L 57 50 L 59 50 L 59 45 L 62 45 L 62 53 L 2 53 L 2 45 z M 9 55 L 55 55 L 55 59 A 3 3 0 0 1 52 62 L 12 62 A 3 3 0 0 1 9 59 L 9 55 z"></path></svg>