<svg xmlns="http://www.w3.org/2000/svg" viewBox="0 0 480 480"><path d="M368,175H112.272c-4.262,0-7.982,3.218-8.255,7.471c-0.299,4.66,3.388,8.529,7.983,8.529h6v46c0,4.418,3.582,8,8,8h228	c4.418,0,8-3.582,8-8v-46h5.728c4.262,0,7.982-3.218,8.255-7.471C376.282,178.869,372.595,175,368,175z M186,224h-12	c-4.42,0-8-3.58-8-8s3.58-8,8-8h12c4.42,0,8,3.58,8,8S190.42,224,186,224z M246,224h-12c-4.42,0-8-3.58-8-8s3.58-8,8-8h12	c4.42,0,8,3.58,8,8S250.42,224,246,224z M306,224h-12c-4.42,0-8-3.58-8-8s3.58-8,8-8h12c4.42,0,8,3.58,8,8S310.42,224,306,224z M336.85,159h-193.7c-5.471,0-9.31-5.363-7.588-10.555C149.281,107.09,186.917,76.548,232,73.29V8c0-4.418,3.582-8,8-8h57	c4.418,0,8,3.582,8,8v42c0,4.418-3.582,8-8,8h-49v15.29c45.083,3.258,82.719,33.8,96.438,75.155	C346.16,153.637,342.321,159,336.85,159z M444,261H36c-4.418,0-8,3.582-8,8v203c0,4.418,3.582,8,8,8h140c4.418,0,8-3.582,8-8V358	h-2.726c-4.261,0-7.981-3.215-8.257-7.467C172.715,345.874,176.406,342,181,342h117.726c4.261,0,7.981,3.215,8.257,7.467	c0.302,4.659-3.388,8.533-7.983,8.533h-3v114c0,4.418,3.582,8,8,8h140c4.418,0,8-3.582,8-8V269C452,264.582,448.418,261,444,261z M148,419H72c-4.418,0-8-3.582-8-8s3.582-8,8-8h1v-61c0-20.402,16.598-37,37-37s37,16.598,37,37v61h1c4.418,0,8,3.582,8,8	S152.418,419,148,419z M408,419h-76c-4.418,0-8-3.582-8-8s3.582-8,8-8h1v-61c0-20.402,16.598-37,37-37s37,16.598,37,37v61h1	c4.418,0,8,3.582,8,8S412.418,419,408,419z M131,342v53c0,4.418-3.582,8-8,8H97c-4.418,0-8-3.582-8-8v-52.484	c0-11.372,8.825-21.07,20.189-21.501C121.136,320.563,131,330.152,131,342z M391,342v53c0,4.418-3.582,8-8,8h-26	c-4.418,0-8-3.582-8-8v-52.484c0-11.372,8.825-21.07,20.189-21.501C381.136,320.563,391,330.152,391,342z M200,472V366	c0-4.418,3.582-8,8-8h64c4.418,0,8,3.582,8,8v106c0,4.418-3.582,8-8,8h-64C203.582,480,200,476.418,200,472z"></path></svg>