<?xml version="1.0" encoding="UTF-8"?><svg xmlns="http://www.w3.org/2000/svg" xmlns:xlink="http://www.w3.org/1999/xlink" contentScriptType="text/ecmascript" width="36" zoomAndPan="magnify" contentStyleType="text/css" viewBox="0 0 36 36.000001" height="36.000001" preserveAspectRatio="xMidYMid meet" version="1.0"><defs><clipPath id="clip-0"><path d="M 33.871094 4.507812 L 35.433594 4.507812 L 35.433594 6.140625 L 33.871094 6.140625 Z M 33.871094 4.507812 " clip-rule="nonzero"/></clipPath><clipPath id="clip-1"><path d="M 3 0.832031 L 20 0.832031 L 20 19 L 3 19 Z M 3 0.832031 " clip-rule="nonzero"/></clipPath><clipPath id="clip-2"><path d="M 0.488281 26 L 20 26 L 20 29 L 0.488281 29 Z M 0.488281 26 " clip-rule="nonzero"/></clipPath><clipPath id="clip-3"><path d="M 33.871094 16.351562 L 35.433594 16.351562 L 35.433594 18 L 33.871094 18 Z M 33.871094 16.351562 " clip-rule="nonzero"/></clipPath><clipPath id="clip-4"><path d="M 33.871094 10.222656 L 35.433594 10.222656 L 35.433594 12.265625 L 33.871094 12.265625 Z M 33.871094 10.222656 " clip-rule="nonzero"/></clipPath><clipPath id="clip-5"><path d="M 33.871094 7.367188 L 35.433594 7.367188 L 35.433594 9.40625 L 33.871094 9.40625 Z M 33.871094 7.367188 " clip-rule="nonzero"/></clipPath><clipPath id="clip-6"><path d="M 33.871094 13.492188 L 35.433594 13.492188 L 35.433594 15.125 L 33.871094 15.125 Z M 33.871094 13.492188 " clip-rule="nonzero"/></clipPath><clipPath id="clip-7"><path d="M 0.589844 32.683594 L 17 32.683594 L 17 34.398438 L 0.589844 34.398438 Z M 0.589844 32.683594 " clip-rule="nonzero"/></clipPath><clipPath id="clip-8"><path d="M 0.488281 29 L 20 29 L 20 32 L 0.488281 32 Z M 0.488281 29 " clip-rule="nonzero"/></clipPath></defs><path fill="rgb(32%, 50%, 200%)" d="M 29.5 6.054688 L 28.019531 6.054688 L 28.019531 7.546875 L 29.5 7.546875 L 29.5 6.054688 " fill-opacity="1" fill-rule="nonzero"/><path fill="rgb(32%, 50%, 200%)" d="M 29.5 9.039062 L 28.019531 9.039062 L 28.019531 10.53125 L 29.5 10.53125 L 29.5 9.039062 " fill-opacity="1" fill-rule="nonzero"/><path fill="rgb(32%, 50%, 200%)" d="M 22.828125 6.054688 L 23.570312 6.054688 L 23.570312 4.5625 L 22.828125 4.5625 C 22.417969 4.5625 22.085938 4.898438 22.085938 5.308594 C 22.085938 5.722656 22.417969 6.054688 22.828125 6.054688 " fill-opacity="1" fill-rule="nonzero"/><path fill="rgb(32%, 50%, 200%)" d="M 26.535156 6.054688 L 25.054688 6.054688 L 25.054688 7.546875 L 26.535156 7.546875 L 26.535156 6.054688 " fill-opacity="1" fill-rule="nonzero"/><path fill="rgb(32%, 50%, 200%)" d="M 25.054688 4.5625 L 25.054688 3.070312 C 25.054688 2.660156 24.722656 2.324219 24.3125 2.324219 C 23.902344 2.324219 23.570312 2.660156 23.570312 3.070312 L 23.570312 4.5625 L 25.054688 4.5625 " fill-opacity="1" fill-rule="nonzero"/><path fill="rgb(32%, 50%, 200%)" d="M 25.054688 16.5 L 26.535156 16.5 L 26.535156 15.007812 L 25.054688 15.007812 L 25.054688 16.5 " fill-opacity="1" fill-rule="nonzero"/><path fill="rgb(32%, 50%, 200%)" d="M 26.535156 9.039062 L 25.054688 9.039062 L 25.054688 10.53125 L 26.535156 10.53125 L 26.535156 9.039062 " fill-opacity="1" fill-rule="nonzero"/><path fill="rgb(32%, 50%, 200%)" d="M 26.535156 12.023438 L 25.054688 12.023438 L 25.054688 13.511719 L 26.535156 13.511719 L 26.535156 12.023438 " fill-opacity="1" fill-rule="nonzero"/><path fill="rgb(32%, 50%, 200%)" d="M 28.019531 4.5625 L 28.019531 3.070312 C 28.019531 2.660156 27.6875 2.324219 27.277344 2.324219 C 26.867188 2.324219 26.535156 2.660156 26.535156 3.070312 L 26.535156 4.5625 L 28.019531 4.5625 " fill-opacity="1" fill-rule="nonzero"/><path fill="rgb(32%, 50%, 200%)" d="M 32.464844 12.023438 L 30.984375 12.023438 L 30.984375 13.511719 L 32.464844 13.511719 L 32.464844 12.023438 " fill-opacity="1" fill-rule="nonzero"/><path fill="rgb(32%, 50%, 200%)" d="M 30.984375 16.5 L 32.464844 16.5 L 32.464844 15.007812 L 30.984375 15.007812 L 30.984375 16.5 " fill-opacity="1" fill-rule="nonzero"/><path fill="rgb(32%, 50%, 200%)" d="M 33.949219 4.5625 L 33.949219 3.070312 C 33.949219 2.660156 33.617188 2.324219 33.207031 2.324219 C 32.796875 2.324219 32.464844 2.660156 32.464844 3.070312 L 32.464844 4.5625 L 33.949219 4.5625 " fill-opacity="1" fill-rule="nonzero"/><path fill="rgb(32%, 50%, 200%)" d="M 28.019531 16.5 L 29.5 16.5 L 29.5 15.007812 L 28.019531 15.007812 L 28.019531 16.5 " fill-opacity="1" fill-rule="nonzero"/><g clip-path="url(#clip-0)"><path fill="rgb(32%, 50%, 200%)" d="M 33.949219 6.054688 L 34.691406 6.054688 C 35.101562 6.054688 35.429688 5.722656 35.429688 5.308594 C 35.429688 4.898438 35.101562 4.5625 34.691406 4.5625 L 33.949219 4.5625 L 33.949219 6.054688 " fill-opacity="1" fill-rule="nonzero"/></g><path fill="rgb(32%, 50%, 200%)" d="M 29.5 12.023438 L 28.019531 12.023438 L 28.019531 13.511719 L 29.5 13.511719 L 29.5 12.023438 " fill-opacity="1" fill-rule="nonzero"/><path fill="rgb(32%, 50%, 200%)" d="M 32.464844 9.039062 L 30.984375 9.039062 L 30.984375 10.53125 L 32.464844 10.53125 L 32.464844 9.039062 " fill-opacity="1" fill-rule="nonzero"/><path fill="rgb(32%, 50%, 200%)" d="M 30.984375 4.5625 L 30.984375 3.070312 C 30.984375 2.660156 30.652344 2.324219 30.242188 2.324219 C 29.832031 2.324219 29.5 2.660156 29.5 3.070312 L 29.5 4.5625 L 30.984375 4.5625 " fill-opacity="1" fill-rule="nonzero"/><path fill="rgb(32%, 50%, 200%)" d="M 32.464844 6.054688 L 30.984375 6.054688 L 30.984375 7.546875 L 32.464844 7.546875 L 32.464844 6.054688 " fill-opacity="1" fill-rule="nonzero"/><g clip-path="url(#clip-1)"><path fill="rgb(32%, 50%, 200%)" d="M 13.070312 17.195312 C 13.046875 17.203125 13.027344 17.210938 13.007812 17.21875 C 12.945312 17.234375 12.882812 17.242188 12.820312 17.242188 C 12.757812 17.242188 12.695312 17.234375 12.632812 17.21875 C 12.613281 17.210938 12.59375 17.203125 12.574219 17.195312 C 12.539062 17.183594 12.507812 17.175781 12.472656 17.15625 L 6.914062 14.191406 C 6.671875 14.0625 6.519531 13.808594 6.519531 13.535156 L 6.519531 5.011719 C 6.519531 5.011719 6.519531 5.007812 6.519531 5.007812 C 6.519531 5.003906 6.519531 5.003906 6.519531 5 C 6.519531 4.980469 6.527344 4.960938 6.527344 4.941406 C 6.53125 4.898438 6.535156 4.851562 6.550781 4.808594 C 6.554688 4.78125 6.570312 4.757812 6.578125 4.734375 C 6.59375 4.699219 6.609375 4.664062 6.628906 4.628906 C 6.640625 4.605469 6.660156 4.585938 6.679688 4.5625 C 6.699219 4.53125 6.722656 4.503906 6.75 4.476562 C 6.769531 4.457031 6.792969 4.441406 6.816406 4.421875 C 6.835938 4.410156 6.855469 4.390625 6.875 4.375 C 6.886719 4.367188 6.898438 4.363281 6.910156 4.359375 C 6.921875 4.355469 6.929688 4.347656 6.941406 4.339844 L 12.5 1.652344 C 12.703125 1.554688 12.9375 1.554688 13.140625 1.652344 L 18.703125 4.339844 C 18.710938 4.347656 18.71875 4.355469 18.730469 4.359375 C 18.742188 4.363281 18.753906 4.367188 18.765625 4.375 C 18.789062 4.390625 18.804688 4.410156 18.824219 4.421875 C 18.847656 4.441406 18.871094 4.457031 18.890625 4.476562 C 18.917969 4.503906 18.941406 4.53125 18.964844 4.5625 C 18.980469 4.582031 19 4.605469 19.015625 4.628906 C 19.03125 4.664062 19.046875 4.699219 19.0625 4.734375 C 19.074219 4.757812 19.085938 4.78125 19.089844 4.808594 C 19.105469 4.851562 19.109375 4.898438 19.113281 4.941406 C 19.117188 4.960938 19.121094 4.980469 19.121094 5 C 19.121094 5.003906 19.121094 5.003906 19.121094 5.007812 C 19.121094 5.007812 19.121094 5.011719 19.121094 5.011719 L 19.121094 13.535156 C 19.121094 13.808594 18.96875 14.0625 18.726562 14.191406 L 13.167969 17.15625 C 13.136719 17.175781 13.101562 17.183594 13.070312 17.195312 Z M 17.96875 18.820312 L 18.011719 18.734375 L 19.796875 18.734375 L 19.796875 0.832031 L 5.777344 0.832031 C 4.960938 0.832031 4.296875 1.503906 4.296875 2.324219 L 3.585938 18.734375 L 17.640625 18.734375 C 17.757812 18.734375 17.867188 18.769531 17.96875 18.820312 " fill-opacity="1" fill-rule="nonzero"/></g><path fill="rgb(32%, 50%, 200%)" d="M 32.464844 17.988281 L 32.464844 18.734375 C 32.464844 19.148438 32.796875 19.480469 33.207031 19.480469 C 33.617188 19.480469 33.949219 19.148438 33.949219 18.734375 L 33.949219 17.988281 L 32.464844 17.988281 " fill-opacity="1" fill-rule="nonzero"/><path fill="rgb(32%, 50%, 200%)" d="M 31.722656 30.667969 C 31.722656 31.082031 31.394531 31.417969 30.984375 31.417969 C 30.574219 31.417969 30.242188 31.082031 30.242188 30.667969 L 30.242188 26.503906 L 29.285156 27.46875 C 28.996094 27.757812 28.523438 27.757812 28.234375 27.46875 L 27.277344 26.503906 L 27.277344 30.667969 C 27.277344 31.082031 26.945312 31.417969 26.535156 31.417969 C 26.125 31.417969 25.792969 31.082031 25.792969 30.667969 L 25.792969 24.703125 C 25.792969 24.402344 25.972656 24.128906 26.25 24.011719 C 26.527344 23.898438 26.847656 23.960938 27.058594 24.175781 L 28.757812 25.886719 L 30.460938 24.175781 C 30.671875 23.960938 30.992188 23.898438 31.269531 24.011719 C 31.546875 24.128906 31.722656 24.402344 31.722656 24.703125 Z M 28.757812 21.71875 C 25.488281 21.71875 22.828125 24.394531 22.828125 27.6875 C 22.828125 30.976562 25.488281 33.652344 28.757812 33.652344 C 32.03125 33.652344 34.691406 30.976562 34.691406 27.6875 C 34.691406 24.394531 32.03125 21.71875 28.757812 21.71875 " fill-opacity="1" fill-rule="nonzero"/><path fill="rgb(32%, 50%, 200%)" d="M 23.570312 17.988281 L 23.570312 16.5 L 22.828125 16.5 C 22.417969 16.5 22.085938 16.832031 22.085938 17.242188 C 22.085938 17.65625 22.417969 17.988281 22.828125 17.988281 L 23.570312 17.988281 " fill-opacity="1" fill-rule="nonzero"/><g clip-path="url(#clip-2)"><path fill="rgb(32%, 50%, 200%)" d="M 19.121094 26.941406 L 1.332031 26.941406 C 0.917969 26.941406 0.589844 27.273438 0.589844 27.6875 C 0.589844 28.097656 0.917969 28.429688 1.332031 28.429688 L 19.121094 28.429688 C 19.53125 28.429688 19.863281 28.097656 19.863281 27.6875 C 19.863281 27.273438 19.53125 26.941406 19.121094 26.941406 " fill-opacity="1" fill-rule="nonzero"/></g><path fill="rgb(32%, 50%, 200%)" d="M 24.3125 19.480469 C 24.722656 19.480469 25.054688 19.148438 25.054688 18.734375 L 25.054688 17.988281 L 23.570312 17.988281 L 23.570312 18.734375 C 23.570312 19.148438 23.902344 19.480469 24.3125 19.480469 " fill-opacity="1" fill-rule="nonzero"/><g clip-path="url(#clip-3)"><path fill="rgb(32%, 50%, 200%)" d="M 34.691406 16.5 L 33.949219 16.5 L 33.949219 17.988281 L 34.691406 17.988281 C 35.101562 17.988281 35.429688 17.65625 35.429688 17.242188 C 35.429688 16.832031 35.101562 16.5 34.691406 16.5 " fill-opacity="1" fill-rule="nonzero"/></g><g clip-path="url(#clip-4)"><path fill="rgb(32%, 50%, 200%)" d="M 34.691406 10.53125 L 33.949219 10.53125 L 33.949219 12.023438 L 34.691406 12.023438 C 35.101562 12.023438 35.429688 11.6875 35.429688 11.277344 C 35.429688 10.863281 35.101562 10.53125 34.691406 10.53125 " fill-opacity="1" fill-rule="nonzero"/></g><g clip-path="url(#clip-5)"><path fill="rgb(32%, 50%, 200%)" d="M 34.691406 7.546875 L 33.949219 7.546875 L 33.949219 9.039062 L 34.691406 9.039062 C 35.101562 9.039062 35.429688 8.703125 35.429688 8.292969 C 35.429688 7.882812 35.101562 7.546875 34.691406 7.546875 " fill-opacity="1" fill-rule="nonzero"/></g><g clip-path="url(#clip-6)"><path fill="rgb(32%, 50%, 200%)" d="M 34.691406 13.511719 L 33.949219 13.511719 L 33.949219 15.007812 L 34.691406 15.007812 C 35.101562 15.007812 35.429688 14.671875 35.429688 14.261719 C 35.429688 13.847656 35.101562 13.511719 34.691406 13.511719 " fill-opacity="1" fill-rule="nonzero"/></g><g clip-path="url(#clip-7)"><path fill="rgb(32%, 50%, 200%)" d="M 16.15625 32.90625 L 1.332031 32.90625 C 0.917969 32.90625 0.589844 33.242188 0.589844 33.652344 C 0.589844 34.066406 0.917969 34.398438 1.332031 34.398438 L 16.15625 34.398438 C 16.566406 34.398438 16.898438 34.066406 16.898438 33.652344 C 16.898438 33.242188 16.566406 32.90625 16.15625 32.90625 " fill-opacity="1" fill-rule="nonzero"/></g><g clip-path="url(#clip-8)"><path fill="rgb(32%, 50%, 200%)" d="M 19.121094 29.925781 L 1.332031 29.925781 C 0.917969 29.925781 0.589844 30.257812 0.589844 30.667969 C 0.589844 31.082031 0.917969 31.417969 1.332031 31.417969 L 19.121094 31.417969 C 19.53125 31.417969 19.863281 31.082031 19.863281 30.667969 C 19.863281 30.257812 19.53125 29.925781 19.121094 29.925781 " fill-opacity="1" fill-rule="nonzero"/></g><path fill="rgb(32%, 50%, 200%)" d="M 22.828125 15.007812 L 23.570312 15.007812 L 23.570312 13.511719 L 22.828125 13.511719 C 22.417969 13.511719 22.085938 13.847656 22.085938 14.261719 C 22.085938 14.671875 22.417969 15.007812 22.828125 15.007812 " fill-opacity="1" fill-rule="nonzero"/><path fill="rgb(32%, 50%, 200%)" d="M 22.828125 12.023438 L 23.570312 12.023438 L 23.570312 10.53125 L 22.828125 10.53125 C 22.417969 10.53125 22.085938 10.863281 22.085938 11.277344 C 22.085938 11.6875 22.417969 12.023438 22.828125 12.023438 " fill-opacity="1" fill-rule="nonzero"/><path fill="rgb(32%, 50%, 200%)" d="M 12.820312 3.152344 L 8.917969 5.039062 L 12.820312 7.082031 L 16.722656 5.039062 L 12.820312 3.152344 " fill-opacity="1" fill-rule="nonzero"/><path fill="rgb(32%, 50%, 200%)" d="M 8 13.085938 L 12.078125 15.257812 L 12.078125 8.375 L 8 6.242188 L 8 13.085938 " fill-opacity="1" fill-rule="nonzero"/><path fill="rgb(32%, 50%, 200%)" d="M 22.828125 9.039062 L 23.570312 9.039062 L 23.570312 7.546875 L 22.828125 7.546875 C 22.417969 7.546875 22.085938 7.882812 22.085938 8.292969 C 22.085938 8.703125 22.417969 9.039062 22.828125 9.039062 " fill-opacity="1" fill-rule="nonzero"/><path fill="rgb(32%, 50%, 200%)" d="M 13.5625 8.375 L 13.5625 15.257812 L 17.640625 13.085938 L 17.640625 6.242188 L 13.5625 8.375 " fill-opacity="1" fill-rule="nonzero"/><path fill="rgb(32%, 50%, 200%)" d="M 3.554688 22.464844 L 19.796875 22.464844 L 19.796875 20.226562 L 2.070312 20.226562 L 2.070312 20.972656 C 2.070312 21.796875 2.738281 22.464844 3.554688 22.464844 " fill-opacity="1" fill-rule="nonzero"/></svg>