<?xml version="1.0" encoding="UTF-8"?><svg xmlns="http://www.w3.org/2000/svg" xmlns:xlink="http://www.w3.org/1999/xlink" contentScriptType="text/ecmascript" width="36" zoomAndPan="magnify" contentStyleType="text/css" viewBox="0 0 36 36.000001" height="36.000001" preserveAspectRatio="xMidYMid meet" version="1.0"><defs><clipPath id="clip-0"><path d="M 0.488281 0.855469 L 35.511719 0.855469 L 35.511719 34.421875 L 0.488281 34.421875 Z M 0.488281 0.855469 " clip-rule="nonzero"/></clipPath></defs><path fill="rgb(32%, 50%, 200%)" d="M 17.691406 8.964844 L 14.304688 7.015625 L 14.304688 10.910156 L 17.691406 12.859375 Z M 17.691406 8.964844 " fill-opacity="1" fill-rule="nonzero"/><path fill="rgb(32%, 50%, 200%)" d="M 21.921875 15.296875 L 25.304688 13.347656 L 21.921875 11.402344 L 18.535156 13.347656 Z M 21.921875 15.296875 " fill-opacity="1" fill-rule="nonzero"/><path fill="rgb(32%, 50%, 200%)" d="M 22.203125 17.894531 L 22.203125 19.675781 L 25.296875 17.894531 L 25.585938 17.726562 L 25.585938 13.835938 L 22.203125 15.785156 Z M 22.203125 17.894531 " fill-opacity="1" fill-rule="nonzero"/><path fill="rgb(32%, 50%, 200%)" d="M 17.40625 13.347656 L 14.023438 11.398438 L 10.640625 13.347656 L 14.023438 15.296875 Z M 17.40625 13.347656 " fill-opacity="1" fill-rule="nonzero"/><path fill="rgb(32%, 50%, 200%)" d="M 18.253906 12.859375 L 21.636719 10.910156 L 21.636719 7.015625 L 18.253906 8.964844 Z M 18.253906 12.859375 " fill-opacity="1" fill-rule="nonzero"/><path fill="rgb(32%, 50%, 200%)" d="M 14.304688 17.894531 L 14.304688 19.675781 L 17.402344 17.894531 L 17.691406 17.726562 L 17.691406 13.835938 L 14.304688 15.785156 Z M 14.304688 17.894531 " fill-opacity="1" fill-rule="nonzero"/><path fill="rgb(32%, 50%, 200%)" d="M 21.355469 6.527344 L 17.972656 4.582031 L 14.585938 6.527344 L 17.972656 8.476562 Z M 21.355469 6.527344 " fill-opacity="1" fill-rule="nonzero"/><path fill="rgb(32%, 50%, 200%)" d="M 18.253906 17.726562 L 18.542969 17.894531 L 21.636719 19.675781 L 21.636719 15.785156 L 18.253906 13.835938 Z M 18.253906 17.726562 " fill-opacity="1" fill-rule="nonzero"/><path fill="rgb(32%, 50%, 200%)" d="M 13.742188 19.675781 L 13.742188 15.785156 L 10.355469 13.835938 L 10.355469 17.726562 L 10.644531 17.894531 Z M 13.742188 19.675781 " fill-opacity="1" fill-rule="nonzero"/><g clip-path="url(#clip-0)"><path fill="rgb(32%, 50%, 200%)" d="M 1.050781 34.375 L 34.894531 34.375 C 35.0625 34.375 35.203125 34.3125 35.316406 34.1875 C 35.429688 34.058594 35.476562 33.910156 35.457031 33.742188 L 33.765625 17.832031 C 33.75 17.6875 33.6875 17.566406 33.578125 17.46875 C 33.472656 17.371094 33.34375 17.324219 33.199219 17.324219 L 29.730469 17.324219 C 30.167969 16.035156 30.382812 14.710938 30.378906 13.347656 C 30.378906 12.527344 30.300781 11.714844 30.140625 10.90625 C 29.984375 10.101562 29.746094 9.320312 29.4375 8.5625 C 29.125 7.804688 28.742188 7.082031 28.289062 6.402344 C 27.835938 5.71875 27.324219 5.085938 26.746094 4.507812 C 26.171875 3.925781 25.542969 3.40625 24.867188 2.953125 C 24.1875 2.496094 23.472656 2.109375 22.71875 1.796875 C 21.96875 1.480469 21.191406 1.246094 20.394531 1.085938 C 19.59375 0.925781 18.785156 0.84375 17.972656 0.84375 C 17.15625 0.84375 16.351562 0.925781 15.550781 1.085938 C 14.75 1.246094 13.976562 1.480469 13.222656 1.796875 C 12.46875 2.109375 11.753906 2.496094 11.078125 2.953125 C 10.398438 3.40625 9.773438 3.925781 9.199219 4.507812 C 8.621094 5.085938 8.105469 5.71875 7.652344 6.402344 C 7.203125 7.082031 6.820312 7.804688 6.507812 8.5625 C 6.195312 9.320312 5.960938 10.101562 5.800781 10.90625 C 5.640625 11.714844 5.5625 12.527344 5.5625 13.347656 C 5.558594 14.710938 5.777344 16.035156 6.210938 17.324219 L 2.742188 17.324219 C 2.597656 17.324219 2.472656 17.371094 2.363281 17.46875 C 2.257812 17.566406 2.195312 17.6875 2.179688 17.832031 L 0.488281 33.742188 C 0.46875 33.910156 0.515625 34.058594 0.628906 34.1875 C 0.742188 34.3125 0.882812 34.375 1.050781 34.375 Z M 7.253906 19.597656 L 5 19.597656 C 4.851562 19.597656 4.726562 19.644531 4.617188 19.742188 C 4.511719 19.84375 4.449219 19.964844 4.433594 20.109375 L 3.308594 31.476562 C 3.292969 31.644531 3.339844 31.789062 3.453125 31.914062 C 3.566406 32.039062 3.703125 32.101562 3.871094 32.101562 L 32.074219 32.101562 C 32.238281 32.101562 32.378906 32.039062 32.492188 31.914062 C 32.605469 31.789062 32.652344 31.644531 32.636719 31.476562 L 31.507812 20.109375 C 31.496094 19.964844 31.433594 19.84375 31.324219 19.742188 C 31.21875 19.644531 31.089844 19.597656 30.945312 19.597656 L 28.6875 19.597656 C 28.898438 19.230469 29.085938 18.851562 29.253906 18.460938 L 32.636719 18.460938 L 34.210938 33.238281 L 1.675781 33.238281 L 3.25 18.460938 L 6.632812 18.460938 C 6.820312 18.851562 7.027344 19.230469 7.253906 19.597656 Z M 17.972656 1.980469 C 18.710938 1.980469 19.445312 2.054688 20.171875 2.199219 C 20.898438 2.34375 21.605469 2.5625 22.289062 2.847656 C 22.972656 3.132812 23.625 3.480469 24.238281 3.898438 C 24.855469 4.3125 25.425781 4.78125 25.949219 5.308594 C 26.472656 5.835938 26.941406 6.410156 27.351562 7.03125 C 27.761719 7.652344 28.109375 8.308594 28.394531 8.996094 C 28.675781 9.6875 28.890625 10.398438 29.035156 11.128906 C 29.179688 11.863281 29.253906 12.601562 29.253906 13.347656 C 29.253906 14.09375 29.179688 14.832031 29.035156 15.5625 C 28.890625 16.296875 28.675781 17.007812 28.394531 17.695312 C 28.109375 18.386719 27.761719 19.039062 27.351562 19.660156 C 26.941406 20.28125 26.472656 20.855469 25.949219 21.382812 C 25.425781 21.910156 24.855469 22.382812 24.238281 22.796875 C 23.625 23.210938 22.972656 23.5625 22.289062 23.847656 C 21.605469 24.132812 20.898438 24.347656 20.171875 24.496094 C 19.445312 24.640625 18.710938 24.710938 17.972656 24.710938 C 17.230469 24.710938 16.496094 24.640625 15.769531 24.496094 C 15.042969 24.347656 14.339844 24.132812 13.65625 23.847656 C 12.96875 23.5625 12.320312 23.210938 11.703125 22.796875 C 11.089844 22.382812 10.519531 21.910156 9.996094 21.382812 C 9.472656 20.855469 9.003906 20.28125 8.59375 19.660156 C 8.179688 19.039062 7.832031 18.386719 7.550781 17.695312 C 7.265625 17.007812 7.050781 16.296875 6.90625 15.5625 C 6.761719 14.832031 6.691406 14.09375 6.691406 13.347656 C 6.691406 12.601562 6.761719 11.863281 6.90625 11.128906 C 7.050781 10.398438 7.265625 9.6875 7.550781 8.996094 C 7.832031 8.308594 8.179688 7.652344 8.59375 7.03125 C 9.003906 6.410156 9.472656 5.835938 9.996094 5.308594 C 10.519531 4.78125 11.089844 4.3125 11.703125 3.898438 C 12.320312 3.480469 12.96875 3.132812 13.65625 2.847656 C 14.339844 2.5625 15.042969 2.34375 15.769531 2.199219 C 16.496094 2.054688 17.230469 1.980469 17.972656 1.980469 Z M 17.972656 1.980469 " fill-opacity="1" fill-rule="nonzero"/></g></svg>