<?xml version="1.0" encoding="UTF-8"?><svg xmlns="http://www.w3.org/2000/svg" xmlns:xlink="http://www.w3.org/1999/xlink" contentScriptType="text/ecmascript" width="36" zoomAndPan="magnify" contentStyleType="text/css" viewBox="0 0 36 36.000001" height="36.000001" preserveAspectRatio="xMidYMid meet" version="1.0"><defs><clipPath id="clip-0"><path d="M 0.511719 0.941406 L 35.488281 0.941406 L 35.488281 33.777344 L 0.511719 33.777344 Z M 0.511719 0.941406 " clip-rule="nonzero"/></clipPath></defs><path fill="rgb(32%, 50%, 200%)" d="M 23.863281 10.101562 L 23.863281 19.671875 L 22.042969 17.800781 L 21.910156 17.664062 L 21.910156 16.152344 C 21.910156 15.914062 21.761719 15.699219 21.539062 15.609375 C 21.316406 15.523438 21.058594 15.578125 20.894531 15.75 L 20.476562 16.1875 L 19.25 14.929688 Z M 25.808594 29.425781 L 4.382812 7.386719 L 7.441406 4.464844 L 8.292969 5.339844 L 7.960938 5.65625 C 7.726562 5.878906 7.722656 6.25 7.945312 6.480469 C 8.0625 6.597656 8.214844 6.660156 8.371094 6.660156 C 8.519531 6.660156 8.664062 6.605469 8.777344 6.496094 L 9.109375 6.179688 L 10.65625 7.769531 L 10.324219 8.085938 C 10.09375 8.308594 10.085938 8.679688 10.3125 8.910156 C 10.425781 9.03125 10.582031 9.089844 10.734375 9.089844 C 10.882812 9.089844 11.027344 9.035156 11.144531 8.925781 L 11.472656 8.613281 L 13.019531 10.203125 L 12.691406 10.515625 C 12.457031 10.742188 12.449219 11.109375 12.675781 11.34375 C 12.789062 11.460938 12.945312 11.519531 13.097656 11.519531 C 13.246094 11.519531 13.394531 11.464844 13.507812 11.359375 L 13.835938 11.042969 L 15.382812 12.632812 L 15.054688 12.949219 C 14.820312 13.171875 14.8125 13.542969 15.039062 13.773438 C 15.152344 13.890625 15.308594 13.953125 15.460938 13.953125 C 15.609375 13.953125 15.757812 13.898438 15.871094 13.789062 L 16.199219 13.472656 L 17.746094 15.066406 L 17.417969 15.378906 C 17.183594 15.601562 17.175781 15.972656 17.402344 16.203125 C 17.515625 16.324219 17.671875 16.382812 17.824219 16.382812 C 17.972656 16.382812 18.121094 16.328125 18.234375 16.21875 L 18.5625 15.90625 L 18.902344 16.253906 L 20.109375 17.496094 L 19.78125 17.808594 C 19.546875 18.035156 19.539062 18.402344 19.765625 18.636719 C 19.878906 18.753906 20.035156 18.8125 20.1875 18.8125 C 20.335938 18.8125 20.484375 18.757812 20.597656 18.652344 L 20.925781 18.335938 L 22.472656 19.925781 L 22.144531 20.242188 C 21.910156 20.464844 21.902344 20.835938 22.128906 21.066406 C 22.246094 21.183594 22.398438 21.246094 22.550781 21.246094 C 22.699219 21.246094 22.847656 21.191406 22.960938 21.082031 L 23.289062 20.765625 L 24.835938 22.359375 L 24.507812 22.671875 C 24.273438 22.894531 24.265625 23.265625 24.492188 23.496094 C 24.609375 23.617188 24.761719 23.675781 24.917969 23.675781 C 25.0625 23.675781 25.210938 23.621094 25.324219 23.511719 L 25.65625 23.199219 L 27.203125 24.789062 L 26.871094 25.101562 C 26.636719 25.328125 26.628906 25.695312 26.855469 25.929688 C 26.972656 26.046875 27.125 26.105469 27.28125 26.105469 C 27.425781 26.105469 27.574219 26.050781 27.6875 25.941406 L 28.019531 25.628906 L 28.867188 26.503906 Z M 20.734375 27.53125 L 20.734375 27.441406 C 20.734375 27.121094 20.472656 26.859375 20.148438 26.859375 C 19.820312 26.859375 19.558594 27.121094 19.558594 27.441406 L 19.558594 27.53125 L 18.574219 27.53125 L 18.574219 27.441406 C 18.574219 27.121094 18.3125 26.859375 17.984375 26.859375 C 17.660156 26.859375 17.398438 27.121094 17.398438 27.441406 L 17.398438 27.53125 L 16.414062 27.53125 L 16.414062 27.441406 C 16.414062 27.121094 16.148438 26.859375 15.824219 26.859375 C 15.5 26.859375 15.234375 27.121094 15.234375 27.441406 L 15.234375 27.53125 L 14.25 27.53125 L 14.25 27.441406 C 14.25 27.121094 13.988281 26.859375 13.664062 26.859375 C 13.339844 26.859375 13.074219 27.121094 13.074219 27.441406 L 13.074219 27.53125 L 12.089844 27.53125 L 12.089844 27.441406 C 12.089844 27.121094 11.828125 26.859375 11.503906 26.859375 C 11.175781 26.859375 10.914062 27.121094 10.914062 27.441406 L 10.914062 27.53125 L 9.929688 27.53125 L 9.929688 27.441406 C 9.929688 27.121094 9.667969 26.859375 9.339844 26.859375 C 9.015625 26.859375 8.753906 27.121094 8.753906 27.441406 L 8.753906 27.53125 L 7.214844 27.53125 L 14.707031 19.6875 L 15.929688 20.949219 L 12.710938 24.320312 C 12.546875 24.488281 12.503906 24.738281 12.597656 24.949219 C 12.6875 25.164062 12.902344 25.304688 13.136719 25.304688 L 20.164062 25.304688 L 22.332031 27.53125 Z M 19.03125 24.136719 L 14.503906 24.136719 L 16.75 21.789062 L 17.484375 22.546875 Z M 7.46875 3.058594 C 7.328125 3.0625 7.160156 3.113281 7.046875 3.21875 L 3.140625 6.953125 C 2.90625 7.175781 2.898438 7.546875 3.125 7.777344 L 13.886719 18.847656 L 5.417969 27.710938 C 5.257812 27.882812 5.210938 28.128906 5.304688 28.34375 C 5.398438 28.558594 5.609375 28.699219 5.84375 28.699219 L 23.464844 28.699219 L 25.371094 30.65625 C 25.484375 30.773438 25.640625 30.835938 25.792969 30.835938 C 25.941406 30.835938 26.089844 30.78125 26.203125 30.671875 L 30.109375 26.9375 C 30.222656 26.832031 30.289062 26.683594 30.289062 26.53125 C 30.292969 26.375 30.234375 26.226562 30.125 26.113281 L 25.042969 20.886719 L 25.042969 8.636719 C 25.042969 8.398438 24.894531 8.183594 24.671875 8.09375 C 24.445312 8.003906 24.191406 8.0625 24.023438 8.234375 L 18.433594 14.089844 L 7.878906 3.234375 C 7.773438 3.125 7.625 3.058594 7.46875 3.058594 " fill-opacity="1" fill-rule="nonzero"/><g clip-path="url(#clip-0)"><path fill="rgb(32%, 50%, 200%)" d="M 34.3125 28.777344 C 34.3125 29.5625 33.667969 30.199219 32.878906 30.199219 L 32.875 30.199219 L 32.875 5.941406 C 32.875 4.515625 31.703125 3.355469 30.265625 3.355469 L 10.652344 3.355469 C 10.328125 3.355469 10.0625 3.613281 10.0625 3.9375 C 10.0625 4.257812 10.328125 4.519531 10.652344 4.519531 L 30.265625 4.519531 C 31.054688 4.519531 31.695312 5.15625 31.695312 5.941406 L 31.695312 31.191406 C 31.695312 31.972656 31.054688 32.609375 30.265625 32.609375 L 3.121094 32.609375 C 2.332031 32.609375 1.6875 31.972656 1.6875 31.191406 L 1.6875 5.941406 C 1.6875 5.15625 2.332031 4.519531 3.121094 4.519531 L 4.640625 4.519531 C 4.964844 4.519531 5.226562 4.257812 5.226562 3.9375 C 5.226562 3.613281 4.964844 3.355469 4.640625 3.355469 L 4.316406 3.355469 C 4.402344 2.652344 5.007812 2.109375 5.734375 2.109375 L 32.878906 2.109375 C 33.667969 2.109375 34.3125 2.746094 34.3125 3.527344 Z M 32.878906 0.941406 L 5.734375 0.941406 C 4.355469 0.941406 3.222656 2.007812 3.132812 3.355469 L 3.121094 3.355469 C 1.683594 3.355469 0.511719 4.515625 0.511719 5.941406 L 0.511719 31.191406 C 0.511719 32.617188 1.683594 33.777344 3.121094 33.777344 L 30.265625 33.777344 C 31.644531 33.777344 32.777344 32.710938 32.867188 31.363281 L 32.878906 31.363281 C 34.316406 31.363281 35.488281 30.203125 35.488281 28.777344 L 35.488281 3.527344 C 35.488281 2.101562 34.316406 0.941406 32.878906 0.941406 " fill-opacity="1" fill-rule="nonzero"/></g><path fill="rgb(32%, 50%, 200%)" d="M 8.746094 17.527344 C 9.074219 17.527344 9.335938 17.269531 9.335938 16.945312 C 9.335938 16.625 9.074219 16.363281 8.746094 16.363281 L 5.652344 16.363281 C 5.328125 16.363281 5.0625 16.625 5.0625 16.945312 C 5.0625 17.269531 5.328125 17.527344 5.652344 17.527344 L 8.746094 17.527344 " fill-opacity="1" fill-rule="nonzero"/><path fill="rgb(32%, 50%, 200%)" d="M 6.640625 20.359375 C 6.316406 20.359375 6.050781 20.621094 6.050781 20.945312 C 6.050781 21.265625 6.316406 21.527344 6.640625 21.527344 L 7.773438 21.527344 C 8.097656 21.527344 8.363281 21.265625 8.363281 20.945312 C 8.363281 20.621094 8.097656 20.359375 7.773438 20.359375 L 6.640625 20.359375 " fill-opacity="1" fill-rule="nonzero"/><path fill="rgb(32%, 50%, 200%)" d="M 28.035156 7.757812 L 29.230469 7.757812 C 29.554688 7.757812 29.820312 7.5 29.820312 7.175781 C 29.820312 6.855469 29.554688 6.59375 29.230469 6.59375 L 28.035156 6.59375 C 27.707031 6.59375 27.445312 6.855469 27.445312 7.175781 C 27.445312 7.5 27.707031 7.757812 28.035156 7.757812 " fill-opacity="1" fill-rule="nonzero"/><path fill="rgb(32%, 50%, 200%)" d="M 17.484375 9.21875 L 19.984375 9.21875 C 20.308594 9.21875 20.574219 8.957031 20.574219 8.636719 C 20.574219 8.3125 20.308594 8.050781 19.984375 8.050781 L 17.484375 8.050781 C 17.160156 8.050781 16.894531 8.3125 16.894531 8.636719 C 16.894531 8.957031 17.160156 9.21875 17.484375 9.21875 " fill-opacity="1" fill-rule="nonzero"/></svg>