<?xml version="1.0" encoding="UTF-8"?><svg xmlns="http://www.w3.org/2000/svg" xmlns:xlink="http://www.w3.org/1999/xlink" contentScriptType="text/ecmascript" width="36" zoomAndPan="magnify" contentStyleType="text/css" viewBox="0 0 36 36.000001" height="36.000001" preserveAspectRatio="xMidYMid meet" version="1.0"><defs><clipPath id="clip-0"><path d="M 13 31 L 23 31 L 23 34.160156 L 13 34.160156 Z M 13 31 " clip-rule="nonzero"/></clipPath><clipPath id="clip-1"><path d="M 6 0.589844 L 30 0.589844 L 30 7 L 6 7 Z M 6 0.589844 " clip-rule="nonzero"/></clipPath><clipPath id="clip-2"><path d="M 0.488281 19 L 3 19 L 3 33 L 0.488281 33 Z M 0.488281 19 " clip-rule="nonzero"/></clipPath><clipPath id="clip-3"><path d="M 33 19 L 35.511719 19 L 35.511719 33 L 33 33 Z M 33 19 " clip-rule="nonzero"/></clipPath></defs><path fill="rgb(32%, 50%, 200%)" d="M 33.753906 7.535156 L 33.753906 9.851562 L 34.921875 9.851562 L 34.921875 4.0625 L 33.753906 4.0625 L 33.753906 6.378906 L 29.085938 6.378906 L 29.085938 7.535156 L 33.753906 7.535156 " fill-opacity="1" fill-rule="nonzero"/><path fill="rgb(32%, 50%, 200%)" d="M 2.828125 6.378906 L 2.828125 4.0625 L 1.664062 4.0625 L 1.664062 9.851562 L 2.828125 9.851562 L 2.828125 7.535156 L 6.914062 7.535156 L 6.914062 6.378906 L 2.828125 6.378906 " fill-opacity="1" fill-rule="nonzero"/><path fill="rgb(32%, 50%, 200%)" d="M 21.5 17.953125 C 21.5 18.84375 21.160156 19.652344 20.601562 20.269531 L 22.085938 20.269531 C 22.40625 20.269531 22.667969 20.007812 22.667969 19.691406 L 22.667969 14.480469 L 21.5 14.480469 L 21.5 17.953125 " fill-opacity="1" fill-rule="nonzero"/><path fill="rgb(32%, 50%, 200%)" d="M 12.75 8.695312 L 23.25 8.695312 L 23.25 7.535156 L 19.003906 7.535156 C 18.800781 7.878906 18.429688 8.113281 18 8.113281 C 17.570312 8.113281 17.199219 7.878906 16.996094 7.535156 L 12.75 7.535156 L 12.75 8.695312 " fill-opacity="1" fill-rule="nonzero"/><path fill="rgb(32%, 50%, 200%)" d="M 18 5.800781 C 18.429688 5.800781 18.800781 6.035156 19.003906 6.378906 L 23.25 6.378906 L 23.25 5.222656 L 12.75 5.222656 L 12.75 6.378906 L 16.996094 6.378906 C 17.199219 6.035156 17.570312 5.800781 18 5.800781 " fill-opacity="1" fill-rule="nonzero"/><path fill="rgb(32%, 50%, 200%)" d="M 12.339844 9.851562 L 10.589844 11.007812 L 25.410156 11.007812 L 23.660156 9.851562 L 12.339844 9.851562 " fill-opacity="1" fill-rule="nonzero"/><path fill="rgb(32%, 50%, 200%)" d="M 16.832031 17.953125 L 19.167969 17.953125 L 19.167969 19.109375 L 16.832031 19.109375 Z M 16.832031 15.636719 L 19.167969 15.636719 L 19.167969 16.796875 L 16.832031 16.796875 Z M 15.667969 17.953125 C 15.667969 19.230469 16.710938 20.269531 18 20.269531 C 19.289062 20.269531 20.332031 19.230469 20.332031 17.953125 L 20.332031 14.480469 L 15.667969 14.480469 L 15.667969 17.953125 " fill-opacity="1" fill-rule="nonzero"/><path fill="rgb(32%, 50%, 200%)" d="M 16.832031 23.164062 L 19.167969 23.164062 L 19.167969 26.636719 L 16.832031 26.636719 Z M 15.082031 30.449219 C 15.621094 30.230469 16.214844 30.105469 16.832031 30.105469 L 19.167969 30.105469 C 19.785156 30.105469 20.378906 30.230469 20.917969 30.449219 L 20.917969 21.425781 L 15.082031 21.425781 L 15.082031 30.449219 " fill-opacity="1" fill-rule="nonzero"/><g clip-path="url(#clip-0)"><path fill="rgb(32%, 50%, 200%)" d="M 19.167969 31.265625 L 16.832031 31.265625 C 15.101562 31.265625 13.65625 32.519531 13.378906 34.160156 L 22.621094 34.160156 C 22.34375 32.519531 20.898438 31.265625 19.167969 31.265625 " fill-opacity="1" fill-rule="nonzero"/></g><path fill="rgb(32%, 50%, 200%)" d="M 24.417969 6.378906 L 26.753906 6.378906 L 26.753906 3.40625 L 24.417969 4.953125 L 24.417969 6.378906 " fill-opacity="1" fill-rule="nonzero"/><path fill="rgb(32%, 50%, 200%)" d="M 24.417969 8.960938 L 26.753906 10.507812 L 26.753906 7.535156 L 24.417969 7.535156 L 24.417969 8.960938 " fill-opacity="1" fill-rule="nonzero"/><path fill="rgb(32%, 50%, 200%)" d="M 13.914062 20.269531 L 15.398438 20.269531 C 14.839844 19.652344 14.5 18.84375 14.5 17.953125 L 14.5 14.480469 L 13.332031 14.480469 L 13.332031 19.691406 C 13.332031 20.007812 13.59375 20.269531 13.914062 20.269531 " fill-opacity="1" fill-rule="nonzero"/><g clip-path="url(#clip-1)"><path fill="rgb(32%, 50%, 200%)" d="M 8.082031 1.75 L 27.917969 1.75 L 27.917969 6.378906 L 29.085938 6.378906 L 29.085938 1.167969 C 29.085938 0.851562 28.824219 0.589844 28.503906 0.589844 L 7.496094 0.589844 C 7.175781 0.589844 6.914062 0.851562 6.914062 1.167969 L 6.914062 6.378906 L 8.082031 6.378906 L 8.082031 1.75 " fill-opacity="1" fill-rule="nonzero"/></g><path fill="rgb(32%, 50%, 200%)" d="M 29.085938 12.746094 L 29.085938 7.535156 L 27.917969 7.535156 L 27.917969 12.167969 L 8.082031 12.167969 L 8.082031 7.535156 L 6.914062 7.535156 L 6.914062 12.746094 C 6.914062 13.0625 7.175781 13.324219 7.496094 13.324219 L 28.503906 13.324219 C 28.824219 13.324219 29.085938 13.0625 29.085938 12.746094 " fill-opacity="1" fill-rule="nonzero"/><path fill="rgb(32%, 50%, 200%)" d="M 11.582031 4.953125 L 9.246094 3.40625 L 9.246094 6.378906 L 11.582031 6.378906 L 11.582031 4.953125 " fill-opacity="1" fill-rule="nonzero"/><path fill="rgb(32%, 50%, 200%)" d="M 11.582031 7.535156 L 9.246094 7.535156 L 9.246094 10.507812 L 11.582031 8.960938 L 11.582031 7.535156 " fill-opacity="1" fill-rule="nonzero"/><path fill="rgb(32%, 50%, 200%)" d="M 23.660156 4.0625 L 25.410156 2.90625 L 10.589844 2.90625 L 12.339844 4.0625 L 23.660156 4.0625 " fill-opacity="1" fill-rule="nonzero"/><g clip-path="url(#clip-2)"><path fill="rgb(32%, 50%, 200%)" d="M 2.246094 19.109375 L 1.078125 19.109375 C 0.757812 19.109375 0.496094 19.371094 0.496094 19.691406 L 0.496094 32.421875 C 0.496094 32.742188 0.757812 33 1.078125 33 L 2.246094 33 C 2.566406 33 2.828125 32.742188 2.828125 32.421875 L 2.828125 19.691406 C 2.828125 19.371094 2.566406 19.109375 2.246094 19.109375 " fill-opacity="1" fill-rule="nonzero"/></g><path fill="rgb(32%, 50%, 200%)" d="M 6.914062 19.109375 L 5.746094 19.109375 C 5.425781 19.109375 5.164062 19.371094 5.164062 19.691406 L 5.164062 27.792969 C 5.164062 28.109375 5.425781 28.371094 5.746094 28.371094 L 6.914062 28.371094 C 7.234375 28.371094 7.496094 28.109375 7.496094 27.792969 L 7.496094 19.691406 C 7.496094 19.371094 7.234375 19.109375 6.914062 19.109375 " fill-opacity="1" fill-rule="nonzero"/><path fill="rgb(32%, 50%, 200%)" d="M 6.332031 30.6875 C 5.6875 30.6875 5.164062 31.203125 5.164062 31.84375 C 5.164062 32.484375 5.6875 33 6.332031 33 C 6.976562 33 7.496094 32.484375 7.496094 31.84375 C 7.496094 31.203125 6.976562 30.6875 6.332031 30.6875 " fill-opacity="1" fill-rule="nonzero"/><path fill="rgb(32%, 50%, 200%)" d="M 25.585938 19.109375 L 24.417969 19.109375 C 24.097656 19.109375 23.835938 19.371094 23.835938 19.691406 L 23.835938 32.421875 C 23.835938 32.742188 24.097656 33 24.417969 33 L 25.585938 33 C 25.90625 33 26.167969 32.742188 26.167969 32.421875 L 26.167969 19.691406 C 26.167969 19.371094 25.90625 19.109375 25.585938 19.109375 " fill-opacity="1" fill-rule="nonzero"/><g clip-path="url(#clip-3)"><path fill="rgb(32%, 50%, 200%)" d="M 34.921875 19.109375 L 33.753906 19.109375 C 33.433594 19.109375 33.171875 19.371094 33.171875 19.691406 L 33.171875 32.421875 C 33.171875 32.742188 33.433594 33 33.753906 33 L 34.921875 33 C 35.242188 33 35.503906 32.742188 35.503906 32.421875 L 35.503906 19.691406 C 35.503906 19.371094 35.242188 19.109375 34.921875 19.109375 " fill-opacity="1" fill-rule="nonzero"/></g><path fill="rgb(32%, 50%, 200%)" d="M 30.253906 19.109375 L 29.085938 19.109375 C 28.765625 19.109375 28.503906 19.371094 28.503906 19.691406 L 28.503906 27.792969 C 28.503906 28.109375 28.765625 28.371094 29.085938 28.371094 L 30.253906 28.371094 C 30.574219 28.371094 30.835938 28.109375 30.835938 27.792969 L 30.835938 19.691406 C 30.835938 19.371094 30.574219 19.109375 30.253906 19.109375 " fill-opacity="1" fill-rule="nonzero"/><path fill="rgb(32%, 50%, 200%)" d="M 29.667969 30.6875 C 29.023438 30.6875 28.503906 31.203125 28.503906 31.84375 C 28.503906 32.484375 29.023438 33 29.667969 33 C 30.3125 33 30.835938 32.484375 30.835938 31.84375 C 30.835938 31.203125 30.3125 30.6875 29.667969 30.6875 " fill-opacity="1" fill-rule="nonzero"/><path fill="rgb(32%, 50%, 200%)" d="M 11.582031 19.109375 L 10.414062 19.109375 C 10.09375 19.109375 9.832031 19.371094 9.832031 19.691406 L 9.832031 27.792969 C 9.832031 28.109375 10.09375 28.371094 10.414062 28.371094 L 11.582031 28.371094 C 11.902344 28.371094 12.164062 28.109375 12.164062 27.792969 L 12.164062 19.691406 C 12.164062 19.371094 11.902344 19.109375 11.582031 19.109375 " fill-opacity="1" fill-rule="nonzero"/><path fill="rgb(32%, 50%, 200%)" d="M 11 30.6875 C 10.351562 30.6875 9.832031 31.203125 9.832031 31.84375 C 9.832031 32.484375 10.351562 33 11 33 C 11.644531 33 12.164062 32.484375 12.164062 31.84375 C 12.164062 31.203125 11.644531 30.6875 11 30.6875 " fill-opacity="1" fill-rule="nonzero"/></svg>