<?xml version="1.0" encoding="UTF-8"?><svg xmlns="http://www.w3.org/2000/svg" xmlns:xlink="http://www.w3.org/1999/xlink" contentScriptType="text/ecmascript" width="36" zoomAndPan="magnify" contentStyleType="text/css" viewBox="0 0 36 36.000001" height="36.000001" preserveAspectRatio="xMidYMid meet" version="1.0"><defs><clipPath id="clip-0"><path d="M 0.488281 0 L 35.511719 0 L 35.511719 35.027344 L 0.488281 35.027344 Z M 0.488281 0 " clip-rule="nonzero"/></clipPath></defs><g clip-path="url(#clip-0)"><path fill="rgb(32%, 50%, 200%)" d="M 35.019531 5.238281 L 25.121094 5.238281 L 24.546875 0.433594 C 24.519531 0.1875 24.308594 0.00390625 24.0625 0.00390625 L 11.953125 0.00390625 C 11.707031 0.00390625 11.492188 0.1875 11.464844 0.433594 L 10.890625 5.238281 L 0.980469 5.238281 C 0.707031 5.238281 0.488281 5.457031 0.488281 5.730469 L 0.488281 10.96875 C 0.488281 11.242188 0.707031 11.460938 0.980469 11.460938 L 2.449219 11.460938 L 2.449219 17.511719 C 2.449219 17.785156 2.667969 18.003906 2.941406 18.003906 L 6.21875 18.003906 C 6.457031 18.003906 6.65625 17.832031 6.707031 17.597656 L 7.855469 11.457031 L 10.132812 11.457031 L 7.363281 34.476562 C 7.347656 34.613281 7.390625 34.757812 7.484375 34.859375 C 7.582031 34.960938 7.710938 35.023438 7.855469 35.023438 L 28.152344 35.023438 C 28.425781 35.023438 28.644531 34.804688 28.644531 34.53125 C 28.644531 34.496094 28.636719 34.460938 28.636719 34.429688 L 25.867188 11.457031 L 28.144531 11.457031 L 29.292969 17.597656 C 29.335938 17.832031 29.542969 18.003906 29.78125 18.003906 L 33.058594 18.003906 C 33.332031 18.003906 33.550781 17.785156 33.550781 17.511719 L 33.550781 11.457031 L 35.019531 11.457031 C 35.292969 11.457031 35.511719 11.238281 35.511719 10.964844 L 35.511719 5.722656 C 35.511719 5.457031 35.292969 5.238281 35.019531 5.238281 Z M 12.375 0.980469 L 17.5 0.980469 L 17.5 3.109375 C 17.5 3.382812 17.71875 3.601562 17.992188 3.601562 C 18.265625 3.601562 18.484375 3.382812 18.484375 3.109375 L 18.484375 0.980469 L 23.625 0.980469 L 24.136719 5.238281 L 11.871094 5.238281 Z M 27.589844 34.039062 L 18.484375 34.039062 L 18.484375 32.484375 C 18.484375 32.210938 18.265625 31.992188 17.992188 31.992188 C 17.71875 31.992188 17.5 32.210938 17.5 32.484375 L 17.5 34.039062 L 8.410156 34.039062 L 11.125 11.449219 L 17.507812 11.449219 L 17.507812 13 C 17.507812 13.273438 17.726562 13.496094 18 13.496094 C 18.273438 13.496094 18.492188 13.273438 18.492188 13 L 18.492188 11.449219 L 24.890625 11.449219 Z M 34.527344 10.46875 L 33.058594 10.46875 C 32.785156 10.46875 32.566406 10.6875 32.566406 10.964844 L 32.566406 17.015625 L 30.191406 17.015625 L 29.042969 10.875 C 29 10.640625 28.796875 10.46875 28.554688 10.46875 L 7.445312 10.46875 C 7.203125 10.46875 7.007812 10.640625 6.957031 10.875 L 5.808594 17.015625 L 3.433594 17.015625 L 3.433594 10.964844 C 3.433594 10.6875 3.214844 10.46875 2.941406 10.46875 L 1.472656 10.46875 L 1.472656 6.214844 L 34.527344 6.214844 Z M 34.527344 10.46875 " fill-opacity="1" fill-rule="nonzero"/></g><path fill="rgb(32%, 50%, 200%)" d="M 17.992188 24.207031 C 17.71875 24.207031 17.5 24.425781 17.5 24.699219 L 17.5 28.59375 C 17.5 28.867188 17.71875 29.085938 17.992188 29.085938 C 18.265625 29.085938 18.484375 28.867188 18.484375 28.59375 L 18.484375 24.695312 C 18.484375 24.425781 18.261719 24.207031 17.992188 24.207031 Z M 17.992188 24.207031 " fill-opacity="1" fill-rule="nonzero"/><path fill="rgb(32%, 50%, 200%)" d="M 17.992188 16.414062 C 17.71875 16.414062 17.5 16.632812 17.5 16.90625 L 17.5 20.800781 C 17.5 21.074219 17.71875 21.292969 17.992188 21.292969 C 18.265625 21.292969 18.484375 21.074219 18.484375 20.800781 L 18.484375 16.90625 C 18.484375 16.632812 18.261719 16.414062 17.992188 16.414062 Z M 17.992188 16.414062 " fill-opacity="1" fill-rule="nonzero"/></svg>