<?xml version="1.0" encoding="UTF-8"?><svg xmlns="http://www.w3.org/2000/svg" xmlns:xlink="http://www.w3.org/1999/xlink" contentScriptType="text/ecmascript" width="36" zoomAndPan="magnify" contentStyleType="text/css" viewBox="0 0 36 36.000001" height="36.000001" preserveAspectRatio="xMidYMid meet" version="1.0"><defs><clipPath id="clip-0"><path d="M 3.398438 0 L 32.585938 0 L 32.585938 35.027344 L 3.398438 35.027344 Z M 3.398438 0 " clip-rule="nonzero"/></clipPath></defs><path fill="rgb(32%, 50%, 200%)" d="M 14.417969 9.773438 L 29.082031 9.773438 C 29.238281 9.773438 29.375 9.71875 29.484375 9.605469 C 29.597656 9.492188 29.652344 9.359375 29.652344 9.199219 C 29.652344 9.039062 29.597656 8.90625 29.484375 8.792969 C 29.375 8.679688 29.238281 8.625 29.082031 8.625 L 14.417969 8.625 C 14.261719 8.625 14.125 8.679688 14.011719 8.792969 C 13.902344 8.90625 13.84375 9.039062 13.84375 9.199219 C 13.84375 9.359375 13.902344 9.492188 14.011719 9.605469 C 14.125 9.71875 14.261719 9.773438 14.417969 9.773438 Z M 14.417969 9.773438 " fill-opacity="1" fill-rule="nonzero"/><g clip-path="url(#clip-0)"><path fill="rgb(32%, 50%, 200%)" d="M 31.996094 0 L 10.226562 0 C 10.066406 0 9.933594 0.0546875 9.820312 0.167969 C 9.707031 0.28125 9.652344 0.414062 9.652344 0.574219 L 9.652344 4.5625 L 6.773438 4.5625 C 6.613281 4.5625 6.480469 4.621094 6.367188 4.734375 C 6.253906 4.847656 6.199219 4.984375 6.199219 5.140625 L 6.199219 7.050781 C 6.214844 7.199219 6.277344 7.324219 6.386719 7.425781 C 6.496094 7.523438 6.625 7.574219 6.777344 7.574219 C 6.925781 7.574219 7.054688 7.523438 7.167969 7.425781 C 7.277344 7.324219 7.339844 7.199219 7.351562 7.050781 L 7.351562 5.714844 L 9.652344 5.714844 L 9.652344 12.527344 C 9.652344 12.6875 9.707031 12.820312 9.820312 12.933594 C 9.933594 13.046875 10.066406 13.101562 10.226562 13.101562 C 10.386719 13.101562 10.519531 13.046875 10.632812 12.933594 C 10.746094 12.820312 10.800781 12.6875 10.800781 12.527344 L 10.800781 1.148438 L 31.425781 1.148438 L 31.425781 30.871094 L 27.230469 30.871094 L 27.109375 27.929688 C 27.378906 27.820312 27.617188 27.667969 27.832031 27.476562 C 28.046875 27.28125 28.222656 27.058594 28.359375 26.804688 C 28.5 26.550781 28.589844 26.28125 28.632812 25.996094 C 28.675781 25.710938 28.667969 25.425781 28.613281 25.140625 C 28.558594 24.859375 28.453125 24.59375 28.308594 24.34375 C 28.160156 24.097656 27.972656 23.882812 27.75 23.699219 C 27.527344 23.515625 27.28125 23.375 27.007812 23.277344 C 26.734375 23.179688 26.457031 23.132812 26.167969 23.132812 C 25.894531 23.132812 25.628906 23.179688 25.371094 23.273438 L 22.9375 19.578125 C 23.390625 19.101562 23.617188 18.535156 23.621094 17.878906 C 23.632812 17.539062 23.582031 17.207031 23.460938 16.890625 C 23.34375 16.570312 23.164062 16.289062 22.929688 16.042969 C 22.695312 15.796875 22.421875 15.605469 22.105469 15.472656 C 21.792969 15.339844 21.46875 15.273438 21.125 15.273438 C 20.785156 15.273438 20.460938 15.339844 20.148438 15.472656 C 19.832031 15.605469 19.558594 15.796875 19.324219 16.042969 C 19.089844 16.289062 18.910156 16.570312 18.792969 16.890625 C 18.671875 17.207031 18.621094 17.539062 18.632812 17.878906 C 18.632812 17.945312 18.632812 18.007812 18.632812 18.078125 L 16.21875 18.859375 C 16.050781 18.585938 15.839844 18.355469 15.582031 18.160156 C 15.328125 17.96875 15.042969 17.835938 14.730469 17.753906 C 14.421875 17.671875 14.109375 17.65625 13.789062 17.695312 C 13.472656 17.738281 13.175781 17.839844 12.894531 18 L 8.136719 12.851562 C 8.324219 12.578125 8.449219 12.277344 8.515625 11.949219 C 8.582031 11.625 8.585938 11.296875 8.519531 10.96875 C 8.457031 10.644531 8.332031 10.339844 8.148438 10.066406 C 7.964844 9.789062 7.734375 9.554688 7.457031 9.371094 C 7.179688 9.1875 6.875 9.0625 6.550781 9 C 6.222656 8.9375 5.894531 8.9375 5.570312 9.003906 C 5.242188 9.070312 4.941406 9.199219 4.667969 9.386719 C 4.394531 9.574219 4.164062 9.808594 3.984375 10.085938 C 3.800781 10.367188 3.679688 10.667969 3.621094 10.996094 C 3.558594 11.324219 3.5625 11.652344 3.632812 11.976562 C 3.703125 12.300781 3.835938 12.601562 4.023438 12.875 C 4.214844 13.148438 4.449219 13.375 4.730469 13.554688 C 4.835938 13.621094 4.941406 13.679688 5.050781 13.730469 L 5.246094 13.800781 L 5.433594 13.855469 C 5.507812 13.878906 5.585938 13.898438 5.664062 13.914062 L 5.824219 13.914062 C 5.910156 13.925781 5.992188 13.933594 6.078125 13.9375 C 6.136719 13.9375 6.191406 13.9375 6.25 13.9375 L 6.429688 13.9375 L 6.65625 13.898438 C 6.765625 13.863281 6.875 13.824219 6.976562 13.777344 L 7.136719 13.699219 L 7.289062 13.621094 L 12.050781 18.757812 C 12.019531 18.804688 11.992188 18.855469 11.96875 18.90625 C 11.929688 18.972656 11.890625 19.042969 11.855469 19.113281 C 11.820312 19.1875 11.808594 19.234375 11.78125 19.300781 C 11.757812 19.363281 11.730469 19.460938 11.703125 19.546875 C 11.679688 19.632812 11.703125 19.652344 11.671875 19.707031 C 11.640625 19.851562 11.625 19.996094 11.621094 20.144531 C 11.621094 20.476562 11.683594 20.796875 11.8125 21.101562 C 11.9375 21.40625 12.117188 21.675781 12.351562 21.910156 C 12.585938 22.144531 12.855469 22.324219 13.160156 22.453125 C 13.46875 22.578125 13.785156 22.640625 14.117188 22.640625 C 14.449219 22.640625 14.765625 22.578125 15.070312 22.453125 C 15.378906 22.324219 15.648438 22.144531 15.882812 21.910156 C 16.117188 21.675781 16.296875 21.40625 16.421875 21.101562 C 16.546875 20.796875 16.613281 20.476562 16.613281 20.144531 C 16.613281 20.082031 16.613281 20.015625 16.613281 19.941406 L 19 19.164062 C 19.039062 19.230469 19.082031 19.292969 19.128906 19.351562 L 19.261719 19.519531 L 19.382812 19.648438 C 19.472656 19.734375 19.570312 19.816406 19.671875 19.886719 L 19.792969 19.964844 C 19.886719 20.023438 19.988281 20.078125 20.089844 20.125 L 20.160156 20.160156 C 20.292969 20.210938 20.425781 20.253906 20.558594 20.285156 L 20.667969 20.285156 C 20.8125 20.316406 20.960938 20.332031 21.109375 20.335938 C 21.273438 20.335938 21.4375 20.320312 21.597656 20.285156 L 21.761719 20.242188 C 21.835938 20.226562 21.910156 20.203125 21.984375 20.179688 L 24.417969 23.835938 C 24.304688 23.953125 24.203125 24.074219 24.113281 24.207031 C 24.082031 24.261719 24.058594 24.320312 24.027344 24.371094 C 23.976562 24.453125 23.933594 24.539062 23.890625 24.625 C 23.855469 24.71875 23.824219 24.816406 23.804688 24.914062 C 23.804688 24.972656 23.761719 25.03125 23.746094 25.09375 C 23.714844 25.253906 23.699219 25.414062 23.695312 25.578125 C 23.699219 25.742188 23.714844 25.90625 23.746094 26.066406 C 23.746094 26.121094 23.78125 26.167969 23.792969 26.222656 C 23.820312 26.324219 23.851562 26.425781 23.886719 26.523438 C 23.914062 26.582031 23.941406 26.636719 23.972656 26.695312 C 24.019531 26.777344 24.058594 26.863281 24.105469 26.941406 L 24.230469 27.101562 C 24.285156 27.171875 24.339844 27.238281 24.398438 27.300781 C 24.445312 27.351562 24.5 27.398438 24.554688 27.441406 L 24.753906 27.609375 L 24.9375 27.71875 L 25.160156 27.839844 C 25.304688 27.902344 25.457031 27.953125 25.609375 27.992188 C 25.679688 27.992188 25.753906 28.023438 25.832031 28.035156 L 25.992188 28.0625 L 26.105469 30.824219 L 10.800781 30.824219 L 10.800781 19.28125 C 10.800781 19.121094 10.746094 18.984375 10.632812 18.875 C 10.519531 18.761719 10.386719 18.707031 10.226562 18.707031 C 10.066406 18.707031 9.933594 18.761719 9.820312 18.875 C 9.707031 18.984375 9.652344 19.121094 9.652344 19.28125 L 9.652344 31.441406 C 9.652344 31.601562 9.707031 31.738281 9.820312 31.851562 C 9.929688 31.964844 10.066406 32.019531 10.226562 32.019531 L 26.917969 32.019531 L 26.917969 33.875 L 7.351562 33.875 L 7.351562 15.957031 C 7.339844 15.808594 7.277344 15.683594 7.167969 15.582031 C 7.054688 15.480469 6.925781 15.429688 6.777344 15.429688 C 6.625 15.429688 6.496094 15.480469 6.386719 15.582031 C 6.277344 15.683594 6.214844 15.808594 6.199219 15.957031 L 6.199219 34.441406 C 6.199219 34.605469 6.253906 34.742188 6.363281 34.855469 C 6.476562 34.96875 6.613281 35.027344 6.773438 35.027344 L 27.507812 35.027344 C 27.667969 35.027344 27.804688 34.972656 27.914062 34.859375 C 28.027344 34.746094 28.082031 34.613281 28.082031 34.453125 L 28.082031 32.019531 L 31.996094 32.019531 C 32.15625 32.019531 32.292969 31.964844 32.40625 31.851562 C 32.519531 31.738281 32.574219 31.601562 32.570312 31.441406 L 32.570312 0.574219 C 32.570312 0.414062 32.515625 0.28125 32.402344 0.167969 C 32.292969 0.0546875 32.15625 0 31.996094 0 Z M 26.429688 26.941406 C 26.351562 26.960938 26.269531 26.96875 26.1875 26.972656 C 26.007812 26.96875 25.835938 26.933594 25.671875 26.867188 C 25.507812 26.796875 25.363281 26.699219 25.238281 26.574219 C 25.113281 26.449219 25.015625 26.300781 24.945312 26.136719 C 24.878906 25.972656 24.84375 25.800781 24.84375 25.625 C 24.84375 25.519531 24.859375 25.414062 24.882812 25.3125 C 24.882812 25.285156 24.882812 25.261719 24.882812 25.234375 C 24.90625 25.160156 24.9375 25.085938 24.972656 25.015625 L 25.011719 24.945312 C 25.121094 24.75 25.269531 24.585938 25.457031 24.460938 C 25.671875 24.324219 25.90625 24.257812 26.15625 24.257812 C 26.335938 24.238281 26.511719 24.253906 26.679688 24.308594 C 26.851562 24.359375 27.007812 24.441406 27.144531 24.554688 C 27.285156 24.667969 27.394531 24.800781 27.480469 24.960938 C 27.566406 25.117188 27.617188 25.285156 27.636719 25.460938 C 27.652344 25.640625 27.636719 25.816406 27.585938 25.988281 C 27.535156 26.15625 27.453125 26.3125 27.339844 26.453125 C 27.226562 26.589844 27.089844 26.703125 26.933594 26.785156 C 26.777344 26.871094 26.609375 26.921875 26.429688 26.941406 Z M 21.351562 19.195312 C 21.273438 19.203125 21.191406 19.203125 21.109375 19.195312 C 21.027344 19.203125 20.949219 19.203125 20.867188 19.195312 L 20.785156 19.195312 L 20.644531 19.152344 L 20.539062 19.109375 C 20.507812 19.09375 20.476562 19.078125 20.449219 19.054688 C 20.40625 19.035156 20.367188 19.015625 20.332031 18.988281 C 20.101562 18.816406 19.9375 18.59375 19.84375 18.320312 C 19.800781 18.191406 19.78125 18.054688 19.777344 17.917969 C 19.777344 17.582031 19.886719 17.285156 20.105469 17.03125 C 20.324219 16.777344 20.601562 16.625 20.933594 16.578125 C 21.265625 16.527344 21.574219 16.597656 21.855469 16.78125 C 22.140625 16.960938 22.328125 17.214844 22.417969 17.539062 C 22.511719 17.863281 22.488281 18.175781 22.34375 18.480469 C 22.203125 18.785156 21.976562 19.007812 21.667969 19.144531 L 21.597656 19.144531 C 21.542969 19.164062 21.492188 19.183594 21.4375 19.195312 Z M 6.976562 12.445312 C 6.71875 12.683594 6.410156 12.800781 6.058594 12.800781 L 5.964844 12.800781 C 5.742188 12.78125 5.535156 12.714844 5.34375 12.589844 C 5.246094 12.527344 5.160156 12.453125 5.082031 12.367188 C 5 12.28125 4.9375 12.183594 4.882812 12.082031 C 4.828125 11.976562 4.789062 11.871094 4.765625 11.757812 C 4.738281 11.640625 4.726562 11.527344 4.730469 11.410156 C 4.738281 11.292969 4.757812 11.179688 4.789062 11.070312 C 4.824219 10.957031 4.871094 10.851562 4.933594 10.753906 C 4.996094 10.65625 5.070312 10.566406 5.152344 10.484375 C 5.238281 10.40625 5.332031 10.339844 5.433594 10.28125 C 5.535156 10.226562 5.644531 10.1875 5.757812 10.160156 C 5.871094 10.132812 5.984375 10.117188 6.101562 10.121094 C 6.21875 10.125 6.332031 10.140625 6.445312 10.171875 C 6.554688 10.203125 6.660156 10.25 6.761719 10.308594 C 6.863281 10.371094 6.953125 10.441406 7.035156 10.523438 C 7.113281 10.609375 7.183594 10.699219 7.242188 10.800781 C 7.300781 10.902344 7.34375 11.011719 7.371094 11.121094 C 7.402344 11.234375 7.417969 11.351562 7.414062 11.464844 C 7.414062 11.851562 7.273438 12.179688 6.988281 12.441406 Z M 12.8125 19.867188 C 12.875 19.597656 13.007812 19.367188 13.210938 19.175781 C 13.292969 19.101562 13.382812 19.035156 13.480469 18.980469 C 13.578125 18.925781 13.683594 18.886719 13.792969 18.859375 C 13.898438 18.828125 14.011719 18.816406 14.121094 18.816406 C 14.234375 18.816406 14.34375 18.828125 14.453125 18.859375 C 14.5625 18.886719 14.664062 18.925781 14.761719 18.980469 C 14.863281 19.035156 14.953125 19.101562 15.03125 19.175781 C 15.113281 19.253906 15.183594 19.339844 15.246094 19.433594 C 15.304688 19.53125 15.351562 19.628906 15.386719 19.738281 C 15.410156 19.816406 15.425781 19.882812 15.441406 19.945312 C 15.445312 20.015625 15.445312 20.082031 15.441406 20.148438 C 15.441406 20.328125 15.40625 20.5 15.335938 20.664062 C 15.269531 20.828125 15.171875 20.972656 15.046875 21.101562 C 14.921875 21.226562 14.777344 21.324219 14.609375 21.390625 C 14.445312 21.457031 14.277344 21.492188 14.097656 21.492188 C 13.917969 21.492188 13.75 21.457031 13.582031 21.390625 C 13.417969 21.324219 13.273438 21.226562 13.148438 21.101562 C 13.023438 20.972656 12.925781 20.828125 12.859375 20.664062 C 12.789062 20.5 12.753906 20.328125 12.753906 20.148438 C 12.753906 20.058594 12.765625 19.96875 12.785156 19.878906 Z M 12.8125 19.867188 " fill-opacity="1" fill-rule="nonzero"/></g><path fill="rgb(32%, 50%, 200%)" d="M 14.417969 6.984375 L 29.082031 6.984375 C 29.25 7 29.398438 6.953125 29.523438 6.835938 C 29.648438 6.722656 29.710938 6.578125 29.710938 6.410156 C 29.710938 6.238281 29.648438 6.097656 29.523438 5.980469 C 29.398438 5.867188 29.25 5.816406 29.082031 5.832031 L 14.417969 5.832031 C 14.25 5.816406 14.101562 5.867188 13.976562 5.980469 C 13.851562 6.097656 13.785156 6.238281 13.785156 6.410156 C 13.785156 6.578125 13.851562 6.722656 13.976562 6.835938 C 14.101562 6.953125 14.25 7 14.417969 6.984375 Z M 14.417969 6.984375 " fill-opacity="1" fill-rule="nonzero"/><path fill="rgb(32%, 50%, 200%)" d="M 29.082031 14.207031 L 25.851562 14.207031 C 25.703125 14.21875 25.578125 14.28125 25.476562 14.390625 C 25.375 14.503906 25.324219 14.632812 25.324219 14.78125 C 25.324219 14.929688 25.375 15.0625 25.476562 15.171875 C 25.578125 15.28125 25.703125 15.34375 25.851562 15.359375 L 29.082031 15.359375 C 29.25 15.375 29.398438 15.324219 29.523438 15.210938 C 29.648438 15.09375 29.710938 14.953125 29.710938 14.78125 C 29.710938 14.613281 29.648438 14.46875 29.523438 14.355469 C 29.398438 14.238281 29.25 14.191406 29.082031 14.207031 Z M 29.082031 14.207031 " fill-opacity="1" fill-rule="nonzero"/><path fill="rgb(32%, 50%, 200%)" d="M 14.417969 12.566406 L 29.082031 12.566406 C 29.25 12.582031 29.398438 12.53125 29.523438 12.417969 C 29.648438 12.300781 29.710938 12.160156 29.710938 11.988281 C 29.710938 11.820312 29.648438 11.675781 29.523438 11.5625 C 29.398438 11.445312 29.25 11.398438 29.082031 11.414062 L 14.417969 11.414062 C 14.25 11.398438 14.101562 11.445312 13.976562 11.5625 C 13.851562 11.675781 13.785156 11.820312 13.785156 11.988281 C 13.785156 12.160156 13.851562 12.300781 13.976562 12.417969 C 14.101562 12.53125 14.25 12.582031 14.417969 12.566406 Z M 14.417969 12.566406 " fill-opacity="1" fill-rule="nonzero"/><path fill="rgb(32%, 50%, 200%)" d="M 14.417969 4.195312 L 29.082031 4.195312 C 29.25 4.210938 29.398438 4.160156 29.523438 4.042969 C 29.648438 3.929688 29.710938 3.789062 29.710938 3.617188 C 29.710938 3.445312 29.648438 3.304688 29.523438 3.1875 C 29.398438 3.074219 29.25 3.023438 29.082031 3.039062 L 14.417969 3.039062 C 14.25 3.023438 14.101562 3.074219 13.976562 3.1875 C 13.851562 3.304688 13.785156 3.445312 13.785156 3.617188 C 13.785156 3.789062 13.851562 3.929688 13.976562 4.042969 C 14.101562 4.160156 14.25 4.210938 14.417969 4.195312 Z M 14.417969 4.195312 " fill-opacity="1" fill-rule="nonzero"/></svg>