<?xml version="1.0" encoding="UTF-8"?><svg xmlns="http://www.w3.org/2000/svg" xmlns:xlink="http://www.w3.org/1999/xlink" contentScriptType="text/ecmascript" width="36" zoomAndPan="magnify" contentStyleType="text/css" viewBox="0 0 36 36.000001" height="36.000001" preserveAspectRatio="xMidYMid meet" version="1.0"><defs><clipPath id="clip-0"><path d="M 0.878906 12 L 24 12 L 24 35 L 0.878906 35 Z M 0.878906 12 " clip-rule="nonzero"/></clipPath><clipPath id="clip-1"><path d="M 20 26 L 35.179688 26 L 35.179688 35 L 20 35 Z M 20 26 " clip-rule="nonzero"/></clipPath></defs><path fill="rgb(32%, 50%, 200%)" d="M 12.242188 18.199219 C 9.097656 18.199219 6.535156 20.753906 6.535156 23.894531 C 6.535156 27.035156 9.097656 29.589844 12.242188 29.589844 C 15.390625 29.589844 17.949219 27.035156 17.949219 23.894531 C 17.949219 22.75 17.613281 21.652344 16.976562 20.707031 C 16.808594 20.464844 16.476562 20.398438 16.230469 20.5625 C 15.984375 20.730469 15.921875 21.0625 16.085938 21.308594 C 16.605469 22.070312 16.878906 22.964844 16.878906 23.894531 C 16.878906 26.441406 14.796875 28.519531 12.242188 28.519531 C 9.6875 28.519531 7.609375 26.441406 7.609375 23.894531 C 7.609375 21.34375 9.6875 19.269531 12.242188 19.269531 C 12.539062 19.269531 12.78125 19.027344 12.78125 18.734375 C 12.78125 18.4375 12.539062 18.199219 12.242188 18.199219 Z M 12.242188 18.199219 " fill-opacity="1" fill-rule="nonzero"/><g clip-path="url(#clip-0)"><path fill="rgb(32%, 50%, 200%)" d="M 22.15625 28.972656 L 20.753906 27.570312 C 20.628906 27.445312 20.59375 27.25 20.664062 27.085938 C 20.664062 27.082031 20.671875 27.066406 20.671875 27.0625 C 20.746094 26.890625 20.90625 26.777344 21.085938 26.777344 L 23.070312 26.777344 C 23.363281 26.777344 23.605469 26.535156 23.605469 26.242188 L 23.605469 20.933594 C 23.605469 20.636719 23.363281 20.398438 23.070312 20.398438 L 21.085938 20.398438 C 20.90625 20.398438 20.746094 20.285156 20.667969 20.097656 C 20.59375 19.921875 20.628906 19.730469 20.753906 19.601562 L 22.15625 18.203125 C 22.367188 17.992188 22.367188 17.65625 22.15625 17.445312 L 18.398438 13.691406 C 18.1875 13.484375 17.847656 13.484375 17.636719 13.691406 C 17.429688 13.902344 17.429688 14.242188 17.636719 14.449219 L 21.019531 17.824219 L 19.996094 18.84375 C 19.5625 19.277344 19.4375 19.933594 19.683594 20.519531 C 19.921875 21.097656 20.472656 21.46875 21.085938 21.46875 L 22.53125 21.46875 L 22.53125 25.707031 L 21.085938 25.707031 C 20.472656 25.707031 19.921875 26.078125 19.6875 26.644531 C 19.683594 26.648438 19.679688 26.664062 19.675781 26.664062 C 19.4375 27.242188 19.5625 27.894531 19.996094 28.328125 L 21.019531 29.351562 L 18.019531 32.347656 L 16.996094 31.324219 C 16.558594 30.890625 15.90625 30.765625 15.316406 31.011719 C 14.738281 31.25 14.367188 31.800781 14.367188 32.410156 L 14.367188 33.855469 L 10.121094 33.855469 L 10.121094 32.410156 C 10.121094 31.800781 9.746094 31.25 9.160156 31.007812 C 8.582031 30.765625 7.925781 30.890625 7.492188 31.324219 L 6.46875 32.347656 L 3.464844 29.351562 L 4.488281 28.328125 C 4.925781 27.894531 5.050781 27.242188 4.804688 26.652344 C 4.566406 26.078125 4.015625 25.707031 3.402344 25.707031 L 1.953125 25.707031 L 1.953125 21.46875 L 3.402344 21.46875 C 4.015625 21.46875 4.566406 21.097656 4.808594 20.507812 C 5.050781 19.933594 4.925781 19.277344 4.488281 18.84375 L 3.464844 17.824219 L 6.46875 14.828125 L 7.492188 15.847656 C 7.925781 16.28125 8.582031 16.40625 9.171875 16.164062 C 9.746094 15.925781 10.121094 15.375 10.121094 14.761719 L 10.121094 13.320312 L 14.367188 13.320312 L 14.367188 14.761719 C 14.367188 15.375 14.738281 15.925781 15.316406 16.164062 C 15.511719 16.242188 15.703125 16.332031 15.890625 16.425781 C 16.15625 16.5625 16.476562 16.457031 16.613281 16.191406 C 16.746094 15.929688 16.640625 15.609375 16.378906 15.472656 C 16.164062 15.367188 15.945312 15.265625 15.726562 15.171875 C 15.550781 15.101562 15.4375 14.941406 15.4375 14.761719 L 15.4375 12.78125 C 15.4375 12.488281 15.199219 12.246094 14.902344 12.246094 L 9.582031 12.246094 C 9.289062 12.246094 9.046875 12.488281 9.046875 12.78125 L 9.046875 14.761719 C 9.046875 14.941406 8.933594 15.101562 8.746094 15.179688 C 8.570312 15.253906 8.378906 15.21875 8.25 15.09375 L 6.847656 13.691406 C 6.640625 13.484375 6.300781 13.484375 6.089844 13.691406 L 2.328125 17.445312 C 2.121094 17.65625 2.121094 17.992188 2.328125 18.203125 L 3.730469 19.601562 C 3.855469 19.726562 3.890625 19.921875 3.820312 20.09375 C 3.820312 20.09375 3.8125 20.109375 3.8125 20.109375 C 3.742188 20.285156 3.578125 20.398438 3.402344 20.398438 L 1.417969 20.398438 C 1.121094 20.398438 0.882812 20.636719 0.882812 20.933594 L 0.882812 26.242188 C 0.882812 26.535156 1.121094 26.777344 1.417969 26.777344 L 3.402344 26.777344 C 3.578125 26.777344 3.742188 26.890625 3.820312 27.078125 C 3.890625 27.25 3.855469 27.445312 3.730469 27.570312 L 2.328125 28.972656 C 2.121094 29.179688 2.121094 29.519531 2.328125 29.730469 L 6.089844 33.480469 C 6.300781 33.691406 6.640625 33.691406 6.847656 33.480469 L 8.25 32.082031 C 8.378906 31.957031 8.570312 31.921875 8.742188 31.992188 C 8.746094 31.992188 8.757812 32 8.761719 32 C 8.933594 32.074219 9.046875 32.234375 9.046875 32.410156 L 9.046875 34.390625 C 9.046875 34.6875 9.289062 34.925781 9.585938 34.925781 L 14.902344 34.925781 C 15.199219 34.925781 15.4375 34.6875 15.4375 34.390625 L 15.4375 32.410156 C 15.4375 32.234375 15.550781 32.074219 15.722656 32.003906 C 15.722656 32 15.738281 31.996094 15.738281 31.996094 C 15.914062 31.921875 16.109375 31.957031 16.234375 32.082031 L 17.636719 33.480469 C 17.738281 33.582031 17.875 33.640625 18.019531 33.640625 C 18.160156 33.640625 18.296875 33.582031 18.398438 33.480469 L 22.15625 29.726562 C 22.367188 29.519531 22.367188 29.179688 22.15625 28.972656 Z M 22.15625 28.972656 " fill-opacity="1" fill-rule="nonzero"/></g><path fill="rgb(32%, 50%, 200%)" d="M 27.683594 21.972656 C 27.683594 23.875 29.230469 25.421875 31.136719 25.421875 C 33.039062 25.421875 34.589844 23.875 34.589844 21.972656 C 34.589844 20.074219 33.039062 18.527344 31.136719 18.527344 C 29.230469 18.527344 27.683594 20.074219 27.683594 21.972656 Z M 33.515625 21.972656 C 33.515625 23.285156 32.449219 24.351562 31.136719 24.351562 C 29.824219 24.351562 28.753906 23.285156 28.753906 21.972656 C 28.753906 20.664062 29.824219 19.597656 31.136719 19.597656 C 32.449219 19.597656 33.515625 20.664062 33.515625 21.972656 Z M 33.515625 21.972656 " fill-opacity="1" fill-rule="nonzero"/><g clip-path="url(#clip-1)"><path fill="rgb(32%, 50%, 200%)" d="M 34.640625 32.347656 C 34.9375 32.347656 35.175781 32.109375 35.175781 31.8125 L 35.175781 30.472656 C 35.175781 28.246094 33.363281 26.4375 31.136719 26.4375 C 28.90625 26.4375 27.09375 28.246094 27.09375 30.472656 L 27.09375 33.917969 L 20.566406 33.917969 C 20.269531 33.917969 20.027344 34.15625 20.027344 34.453125 C 20.027344 34.75 20.269531 34.988281 20.566406 34.988281 L 27.605469 34.988281 C 27.613281 34.988281 27.621094 34.992188 27.628906 34.992188 L 34.640625 34.992188 C 34.9375 34.992188 35.175781 34.75 35.175781 34.457031 C 35.175781 34.160156 34.9375 33.921875 34.640625 33.921875 L 28.167969 33.921875 L 28.167969 30.472656 C 28.167969 28.835938 29.5 27.507812 31.136719 27.507812 C 32.773438 27.507812 34.105469 28.835938 34.105469 30.472656 L 34.105469 31.8125 C 34.105469 32.109375 34.34375 32.347656 34.640625 32.347656 Z M 34.640625 32.347656 " fill-opacity="1" fill-rule="nonzero"/></g><path fill="rgb(32%, 50%, 200%)" d="M 5.171875 11.914062 C 5.46875 11.914062 5.707031 11.671875 5.707031 11.378906 L 5.707031 2.378906 L 9.265625 2.378906 C 9.5625 2.378906 9.800781 2.136719 9.800781 1.84375 C 9.800781 1.546875 9.5625 1.308594 9.265625 1.308594 L 5.171875 1.308594 C 4.875 1.308594 4.636719 1.546875 4.636719 1.84375 L 4.636719 11.378906 C 4.636719 11.671875 4.875 11.914062 5.171875 11.914062 Z M 5.171875 11.914062 " fill-opacity="1" fill-rule="nonzero"/><path fill="rgb(32%, 50%, 200%)" d="M 27.484375 2.378906 L 31.121094 2.378906 L 31.121094 15.332031 C 31.121094 15.625 31.363281 15.867188 31.660156 15.867188 C 31.953125 15.867188 32.195312 15.625 32.195312 15.332031 L 32.195312 1.84375 C 32.195312 1.546875 31.953125 1.308594 31.660156 1.308594 L 27.484375 1.308594 C 27.191406 1.308594 26.949219 1.546875 26.949219 1.84375 C 26.949219 2.136719 27.191406 2.378906 27.484375 2.378906 Z M 27.484375 2.378906 " fill-opacity="1" fill-rule="nonzero"/><path fill="rgb(32%, 50%, 200%)" d="M 12.4375 4.683594 L 24.394531 4.683594 C 24.6875 4.683594 24.929688 4.441406 24.929688 4.148438 L 24.929688 0.5625 C 24.929688 0.269531 24.6875 0.0273438 24.394531 0.0273438 L 12.4375 0.0273438 C 12.140625 0.0273438 11.902344 0.269531 11.902344 0.5625 L 11.902344 4.148438 C 11.902344 4.441406 12.140625 4.683594 12.4375 4.683594 Z M 12.972656 1.097656 L 23.855469 1.097656 L 23.855469 3.613281 L 12.972656 3.613281 Z M 12.972656 1.097656 " fill-opacity="1" fill-rule="nonzero"/><path fill="rgb(32%, 50%, 200%)" d="M 12.242188 20.429688 C 11.945312 20.429688 11.707031 20.667969 11.707031 20.964844 L 11.707031 23.894531 C 11.707031 24.1875 11.945312 24.429688 12.242188 24.429688 L 14.199219 24.429688 C 14.496094 24.429688 14.738281 24.1875 14.738281 23.894531 C 14.738281 23.597656 14.496094 23.359375 14.199219 23.359375 L 12.78125 23.359375 L 12.78125 20.964844 C 12.78125 20.667969 12.539062 20.429688 12.242188 20.429688 Z M 12.242188 20.429688 " fill-opacity="1" fill-rule="nonzero"/><path fill="rgb(32%, 50%, 200%)" d="M 11.113281 8.894531 L 23.222656 8.894531 C 23.519531 8.894531 23.757812 8.65625 23.757812 8.359375 C 23.757812 8.0625 23.519531 7.824219 23.222656 7.824219 L 11.113281 7.824219 C 10.816406 7.824219 10.578125 8.0625 10.578125 8.359375 C 10.578125 8.65625 10.816406 8.894531 11.113281 8.894531 Z M 11.113281 8.894531 " fill-opacity="1" fill-rule="nonzero"/><path fill="rgb(32%, 50%, 200%)" d="M 23.222656 12.144531 L 20.761719 12.144531 C 20.46875 12.144531 20.226562 12.382812 20.226562 12.679688 C 20.226562 12.976562 20.46875 13.214844 20.761719 13.214844 L 23.222656 13.214844 C 23.519531 13.214844 23.757812 12.976562 23.757812 12.679688 C 23.757812 12.382812 23.519531 12.144531 23.222656 12.144531 Z M 23.222656 12.144531 " fill-opacity="1" fill-rule="nonzero"/><path fill="rgb(32%, 50%, 200%)" d="M 26.449219 9.496094 C 26.550781 9.601562 26.691406 9.652344 26.828125 9.652344 C 26.964844 9.652344 27.101562 9.601562 27.207031 9.496094 L 28.726562 7.980469 C 28.933594 7.769531 28.933594 7.433594 28.726562 7.222656 C 28.515625 7.015625 28.175781 7.015625 27.96875 7.222656 L 26.828125 8.359375 L 26.375 7.910156 C 26.164062 7.703125 25.824219 7.703125 25.617188 7.910156 C 25.40625 8.121094 25.40625 8.457031 25.617188 8.667969 Z M 26.449219 9.496094 " fill-opacity="1" fill-rule="nonzero"/><path fill="rgb(32%, 50%, 200%)" d="M 26.449219 13.816406 C 26.550781 13.921875 26.691406 13.972656 26.828125 13.972656 C 26.964844 13.972656 27.101562 13.921875 27.207031 13.816406 L 28.726562 12.300781 C 28.933594 12.089844 28.933594 11.753906 28.726562 11.542969 C 28.515625 11.335938 28.175781 11.335938 27.96875 11.542969 L 26.828125 12.679688 L 26.375 12.230469 C 26.164062 12.019531 25.824219 12.019531 25.617188 12.230469 C 25.40625 12.4375 25.40625 12.777344 25.617188 12.988281 Z M 26.449219 13.816406 " fill-opacity="1" fill-rule="nonzero"/></svg>