<?xml version="1.0" encoding="UTF-8"?><svg xmlns="http://www.w3.org/2000/svg" xmlns:xlink="http://www.w3.org/1999/xlink" contentScriptType="text/ecmascript" width="36" zoomAndPan="magnify" contentStyleType="text/css" viewBox="0 0 36 36.000001" height="36.000001" preserveAspectRatio="xMidYMid meet" version="1.0"><defs><clipPath id="clip-0"><path d="M 0.878906 0 L 35.179688 0 L 35.179688 35.027344 L 0.878906 35.027344 Z M 0.878906 0 " clip-rule="nonzero"/></clipPath></defs><g clip-path="url(#clip-0)"><path fill="rgb(32%, 50%, 200%)" d="M 21.464844 0 L 0.878906 8.21875 L 0.878906 14.328125 L 7.261719 14.328125 L 7.261719 25.035156 L 0.878906 29.011719 L 0.878906 35.027344 L 20.3125 35.027344 L 35.179688 22.664062 L 35.179688 18.308594 L 30.390625 18.308594 L 30.390625 7.589844 L 35.179688 4.40625 L 35.179688 0 Z M 21.773438 1.59375 L 31.300781 1.59375 L 19.816406 7.960938 L 5.820312 7.960938 Z M 33.582031 2.152344 L 33.582031 3.554688 L 20.820312 12.046875 L 20.820312 9.226562 Z M 28.796875 8.652344 L 28.796875 19.902344 L 31.914062 19.902344 L 19.765625 28.65625 L 13.640625 28.65625 L 13.640625 14.328125 L 20.265625 14.328125 Z M 2.476562 9.554688 L 19.226562 9.554688 L 19.226562 12.738281 L 12.046875 12.738281 L 12.046875 30.25 L 19.226562 30.25 L 19.226562 33.433594 L 2.476562 33.433594 L 2.476562 30.25 L 8.855469 30.25 L 8.855469 12.738281 L 2.476562 12.738281 Z M 33.582031 20.660156 L 33.582031 21.917969 L 20.820312 32.53125 L 20.820312 29.859375 Z M 7.261719 26.910156 L 7.261719 28.65625 L 4.457031 28.65625 Z M 7.261719 26.910156 " fill-opacity="1" fill-rule="nonzero"/></g></svg>