<?xml version="1.0" encoding="UTF-8"?><svg xmlns="http://www.w3.org/2000/svg" xmlns:xlink="http://www.w3.org/1999/xlink" contentScriptType="text/ecmascript" width="36" zoomAndPan="magnify" contentStyleType="text/css" viewBox="0 0 36 36.000001" height="36.000001" preserveAspectRatio="xMidYMid meet" version="1.0"><defs><clipPath id="clip-0"><path d="M 0.488281 0 L 24 0 L 24 9 L 0.488281 9 Z M 0.488281 0 " clip-rule="nonzero"/></clipPath><clipPath id="clip-1"><path d="M 11 16 L 35.511719 16 L 35.511719 35.027344 L 11 35.027344 Z M 11 16 " clip-rule="nonzero"/></clipPath></defs><g clip-path="url(#clip-0)"><path fill="rgb(32%, 50%, 200%)" d="M 22.519531 7.34375 L 1.617188 7.34375 L 1.617188 5.085938 L 22.519531 5.085938 Z M 23.648438 3.957031 L 17.433594 3.957031 L 17.433594 3.152344 L 20.976562 1.128906 L 21.390625 1.128906 L 21.390625 2.824219 L 22.519531 2.824219 L 22.519531 0 L 20.675781 0 L 16.304688 2.496094 L 16.304688 3.957031 L 10.09375 3.957031 L 10.09375 3.152344 L 13.632812 1.128906 L 14.042969 1.128906 L 14.042969 2.824219 L 15.175781 2.824219 L 15.175781 0 L 13.328125 0 L 8.960938 2.496094 L 8.960938 3.957031 L 2.746094 3.957031 L 2.746094 3.152344 L 6.285156 1.128906 L 6.699219 1.128906 L 6.699219 2.824219 L 7.832031 2.824219 L 7.832031 0 L 5.984375 0 L 1.617188 2.496094 L 1.617188 3.957031 L 0.488281 3.957031 L 0.488281 8.472656 L 23.648438 8.472656 L 23.648438 3.957031 " fill-opacity="1" fill-rule="nonzero"/></g><path fill="rgb(32%, 50%, 200%)" d="M 21.390625 9.605469 L 22.519531 9.605469 L 22.519531 15.253906 L 21.390625 15.253906 L 21.390625 9.605469 " fill-opacity="1" fill-rule="nonzero"/><path fill="rgb(32%, 50%, 200%)" d="M 5.003906 10.734375 L 19.128906 10.734375 L 19.128906 11.863281 L 5.003906 11.863281 Z M 6.136719 12.996094 L 18 12.996094 L 18 15.253906 L 19.128906 15.253906 L 19.128906 12.996094 L 20.261719 12.996094 L 20.261719 9.605469 L 3.875 9.605469 L 3.875 12.996094 L 5.003906 12.996094 L 5.003906 23.164062 L 2.746094 23.164062 L 2.746094 9.605469 L 1.617188 9.605469 L 1.617188 24.292969 L 10.65625 24.292969 L 10.65625 23.164062 L 6.136719 23.164062 L 6.136719 12.996094 " fill-opacity="1" fill-rule="nonzero"/><path fill="rgb(32%, 50%, 200%)" d="M 7.265625 14.125 L 16.871094 14.125 L 16.871094 15.253906 L 7.265625 15.253906 L 7.265625 14.125 " fill-opacity="1" fill-rule="nonzero"/><path fill="rgb(32%, 50%, 200%)" d="M 7.265625 16.382812 L 10.65625 16.382812 L 10.65625 17.511719 L 7.265625 17.511719 L 7.265625 16.382812 " fill-opacity="1" fill-rule="nonzero"/><path fill="rgb(32%, 50%, 200%)" d="M 7.265625 18.640625 L 10.65625 18.640625 L 10.65625 19.773438 L 7.265625 19.773438 L 7.265625 18.640625 " fill-opacity="1" fill-rule="nonzero"/><path fill="rgb(32%, 50%, 200%)" d="M 7.265625 20.902344 L 10.65625 20.902344 L 10.65625 22.03125 L 7.265625 22.03125 L 7.265625 20.902344 " fill-opacity="1" fill-rule="nonzero"/><g clip-path="url(#clip-1)"><path fill="rgb(32%, 50%, 200%)" d="M 34.382812 33.898438 L 12.914062 33.898438 L 12.914062 17.511719 L 34.382812 17.511719 Z M 11.785156 16.382812 L 11.785156 35.027344 L 35.511719 35.027344 L 35.511719 16.382812 L 11.785156 16.382812 " fill-opacity="1" fill-rule="nonzero"/></g><path fill="rgb(32%, 50%, 200%)" d="M 15.738281 30.507812 C 16.050781 30.507812 16.304688 30.761719 16.304688 31.070312 C 16.304688 31.386719 16.050781 31.636719 15.738281 31.636719 C 15.429688 31.636719 15.175781 31.386719 15.175781 31.070312 C 15.175781 30.761719 15.429688 30.507812 15.738281 30.507812 Z M 20.824219 23.164062 C 21.136719 23.164062 21.390625 23.414062 21.390625 23.726562 C 21.390625 24.039062 21.136719 24.292969 20.824219 24.292969 C 20.511719 24.292969 20.261719 24.039062 20.261719 23.726562 C 20.261719 23.414062 20.511719 23.164062 20.824219 23.164062 Z M 27.039062 26.554688 C 27.351562 26.554688 27.605469 26.804688 27.605469 27.117188 C 27.605469 27.429688 27.351562 27.683594 27.039062 27.683594 C 26.730469 27.683594 26.472656 27.429688 26.472656 27.117188 C 26.472656 26.804688 26.730469 26.554688 27.039062 26.554688 Z M 31.558594 19.773438 C 31.867188 19.773438 32.125 20.027344 32.125 20.335938 C 32.125 20.652344 31.867188 20.902344 31.558594 20.902344 C 31.246094 20.902344 30.996094 20.652344 30.996094 20.335938 C 30.996094 20.027344 31.246094 19.773438 31.558594 19.773438 Z M 15.738281 32.765625 C 16.675781 32.765625 17.433594 32.007812 17.433594 31.070312 C 17.433594 30.703125 17.3125 30.363281 17.109375 30.085938 L 20.382812 25.355469 C 20.523438 25.394531 20.671875 25.421875 20.824219 25.421875 C 21.257812 25.421875 21.652344 25.253906 21.949219 24.984375 L 25.371094 26.851562 C 25.355469 26.9375 25.34375 27.027344 25.34375 27.117188 C 25.34375 28.050781 26.105469 28.8125 27.039062 28.8125 C 27.976562 28.8125 28.734375 28.050781 28.734375 27.117188 C 28.734375 26.738281 28.605469 26.390625 28.390625 26.105469 L 31.148438 21.976562 C 31.277344 22.011719 31.414062 22.03125 31.558594 22.03125 C 32.492188 22.03125 33.253906 21.273438 33.253906 20.335938 C 33.253906 19.402344 32.492188 18.640625 31.558594 18.640625 C 30.625 18.640625 29.863281 19.402344 29.863281 20.335938 C 29.863281 20.71875 29.992188 21.066406 30.207031 21.351562 L 27.449219 25.480469 C 27.320312 25.445312 27.183594 25.421875 27.039062 25.421875 C 26.605469 25.421875 26.214844 25.59375 25.914062 25.859375 L 22.492188 23.992188 C 22.507812 23.90625 22.519531 23.820312 22.519531 23.726562 C 22.519531 22.792969 21.757812 22.03125 20.824219 22.03125 C 19.890625 22.03125 19.128906 22.792969 19.128906 23.726562 C 19.128906 24.097656 19.253906 24.4375 19.457031 24.714844 L 16.179688 29.441406 C 16.039062 29.40625 15.894531 29.375 15.738281 29.375 C 14.804688 29.375 14.042969 30.136719 14.042969 31.070312 C 14.042969 32.007812 14.804688 32.765625 15.738281 32.765625 " fill-opacity="1" fill-rule="nonzero"/><path fill="rgb(32%, 50%, 200%)" d="M 18.566406 28.8125 L 19.695312 28.8125 L 19.695312 32.765625 L 18.566406 32.765625 L 18.566406 28.8125 " fill-opacity="1" fill-rule="nonzero"/><path fill="rgb(32%, 50%, 200%)" d="M 20.824219 26.554688 L 21.957031 26.554688 L 21.957031 32.765625 L 20.824219 32.765625 L 20.824219 26.554688 " fill-opacity="1" fill-rule="nonzero"/><path fill="rgb(32%, 50%, 200%)" d="M 23.085938 27.117188 L 24.214844 27.117188 L 24.214844 32.765625 L 23.085938 32.765625 L 23.085938 27.117188 " fill-opacity="1" fill-rule="nonzero"/><path fill="rgb(32%, 50%, 200%)" d="M 25.34375 29.941406 L 26.472656 29.941406 L 26.472656 32.765625 L 25.34375 32.765625 L 25.34375 29.941406 " fill-opacity="1" fill-rule="nonzero"/><path fill="rgb(32%, 50%, 200%)" d="M 27.605469 29.941406 L 28.734375 29.941406 L 28.734375 32.765625 L 27.605469 32.765625 L 27.605469 29.941406 " fill-opacity="1" fill-rule="nonzero"/><path fill="rgb(32%, 50%, 200%)" d="M 29.863281 24.859375 L 30.996094 24.859375 L 30.996094 32.765625 L 29.863281 32.765625 L 29.863281 24.859375 " fill-opacity="1" fill-rule="nonzero"/><path fill="rgb(32%, 50%, 200%)" d="M 32.125 23.164062 L 33.253906 23.164062 L 33.253906 32.765625 L 32.125 32.765625 L 32.125 23.164062 " fill-opacity="1" fill-rule="nonzero"/></svg>