<?xml version="1.0" encoding="UTF-8"?><svg xmlns="http://www.w3.org/2000/svg" xmlns:xlink="http://www.w3.org/1999/xlink" contentScriptType="text/ecmascript" width="36" zoomAndPan="magnify" contentStyleType="text/css" viewBox="0 0 36 36.000001" height="36.000001" preserveAspectRatio="xMidYMid meet" version="1.0"><defs><clipPath id="clip-0"><path d="M 5 4 L 34.785156 4 L 34.785156 25 L 5 25 Z M 5 4 " clip-rule="nonzero"/></clipPath><clipPath id="clip-1"><path d="M 1.21875 0 L 25 0 L 25 35.027344 L 1.21875 35.027344 Z M 1.21875 0 " clip-rule="nonzero"/></clipPath></defs><path fill="rgb(32%, 50%, 200%)" d="M 11.878906 6.546875 L 13.527344 6.546875 C 14.179688 6.546875 14.730469 6.945312 14.730469 7.34375 L 16.429688 7.34375 C 16.429688 5.996094 15.230469 4.945312 13.730469 4.847656 L 13.730469 3.949219 L 12.03125 3.949219 L 12.03125 4.847656 L 11.929688 4.847656 C 10.328125 4.847656 9.082031 5.945312 9.082031 7.34375 L 9.082031 7.445312 C 9.082031 8.246094 9.628906 8.945312 10.679688 9.492188 L 10.78125 9.542969 L 10.980469 9.59375 L 14.128906 10.191406 C 14.578125 10.441406 14.730469 10.644531 14.730469 10.691406 L 14.730469 10.792969 C 14.730469 11.242188 14.179688 11.59375 13.527344 11.59375 L 11.878906 11.59375 C 11.230469 11.59375 10.679688 11.191406 10.679688 10.792969 L 8.980469 10.792969 C 8.980469 12.140625 10.28125 13.292969 11.828125 13.292969 L 11.929688 13.292969 L 11.929688 14.289062 L 13.628906 14.289062 L 13.628906 13.292969 C 15.128906 13.242188 16.328125 12.140625 16.328125 10.792969 L 16.328125 10.691406 C 16.328125 10.144531 16.027344 9.34375 14.679688 8.644531 L 14.578125 8.59375 L 13.527344 8.394531 L 11.230469 7.945312 C 10.730469 7.644531 10.628906 7.445312 10.628906 7.445312 L 10.628906 7.34375 C 10.730469 6.945312 11.28125 6.546875 11.878906 6.546875 Z M 11.878906 6.546875 " fill-opacity="1" fill-rule="nonzero"/><g clip-path="url(#clip-0)"><path fill="rgb(32%, 50%, 200%)" d="M 33.871094 4.996094 L 27.273438 4.996094 L 27.273438 6.695312 L 31.972656 6.695312 L 22.625 16.988281 L 18.925781 12.492188 L 12.628906 21.636719 L 8.628906 13.992188 L 5.28125 18.9375 L 6.679688 19.886719 L 8.429688 17.238281 L 12.429688 24.832031 L 19.027344 15.191406 L 22.527344 19.488281 L 33.023438 7.945312 L 33.023438 12.390625 L 34.722656 12.390625 L 34.722656 5.847656 C 34.722656 5.398438 34.371094 4.996094 33.871094 4.996094 Z M 33.871094 4.996094 " fill-opacity="1" fill-rule="nonzero"/></g><g clip-path="url(#clip-1)"><path fill="rgb(32%, 50%, 200%)" d="M 22.375 25.882812 L 2.980469 25.882812 L 2.980469 1.699219 L 22.375 1.699219 L 22.375 11.992188 L 24.074219 11.992188 L 24.074219 0 L 1.28125 0 L 1.28125 35.027344 L 19.925781 35.027344 C 22.175781 35.027344 24.027344 33.179688 24.027344 30.929688 L 24.027344 20.585938 L 22.328125 20.585938 L 22.328125 25.882812 Z M 12.679688 31.929688 C 11.929688 31.929688 11.378906 31.328125 11.378906 30.628906 C 11.378906 29.878906 11.980469 29.332031 12.679688 29.332031 C 13.378906 29.332031 13.980469 29.929688 13.980469 30.628906 C 13.980469 31.328125 13.378906 31.929688 12.679688 31.929688 Z M 12.679688 31.929688 " fill-opacity="1" fill-rule="nonzero"/></g></svg>