<?xml version="1.0" encoding="UTF-8"?><svg xmlns="http://www.w3.org/2000/svg" xmlns:xlink="http://www.w3.org/1999/xlink" contentScriptType="text/ecmascript" width="75" zoomAndPan="magnify" contentStyleType="text/css" viewBox="0 0 75 74.999997" height="74.999997" preserveAspectRatio="xMidYMid meet" version="1.0"><defs><clipPath id="clip-0"><path d="M 36 2.835938 L 72.71875 2.835938 L 72.71875 39 L 36 39 Z M 36 2.835938 " clip-rule="nonzero"/></clipPath><clipPath id="clip-1"><path d="M 20 61 L 30 61 L 30 71.835938 L 20 71.835938 Z M 20 61 " clip-rule="nonzero"/></clipPath><clipPath id="clip-2"><path d="M 34 53 L 44 53 L 44 71.835938 L 34 71.835938 Z M 34 53 " clip-rule="nonzero"/></clipPath><clipPath id="clip-3"><path d="M 48 44 L 58 44 L 58 71.835938 L 48 71.835938 Z M 48 44 " clip-rule="nonzero"/></clipPath></defs><g clip-path="url(#clip-0)"><path fill="rgb(12.548828%, 38.038635%, 67.059326%)" d="M 68.925781 2.835938 L 66.617188 2.835938 L 66.617188 7.4375 C 66.617188 7.609375 66.660156 7.765625 66.726562 7.910156 L 61.746094 12.542969 C 59.070312 10.09375 55.519531 8.585938 51.609375 8.585938 C 43.335938 8.585938 36.605469 15.292969 36.605469 23.539062 C 36.605469 31.78125 43.335938 38.488281 51.609375 38.488281 C 59.882812 38.488281 66.617188 31.78125 66.617188 23.539062 C 66.617188 20.015625 65.378906 16.777344 63.324219 14.21875 L 69.378906 8.585938 L 72.386719 8.585938 L 72.386719 6.289062 L 68.925781 6.289062 Z M 64.308594 23.539062 C 64.308594 30.511719 58.613281 36.1875 51.609375 36.1875 C 44.609375 36.1875 38.914062 30.511719 38.914062 23.539062 C 38.914062 16.5625 44.609375 10.886719 51.609375 10.886719 C 54.851562 10.886719 57.804688 12.113281 60.054688 14.113281 L 58.363281 15.6875 C 56.542969 14.132812 54.1875 13.1875 51.609375 13.1875 C 45.882812 13.1875 41.222656 17.832031 41.222656 23.539062 C 41.222656 29.242188 45.882812 33.886719 51.609375 33.886719 C 57.339844 33.886719 62 29.242188 62 23.539062 C 62 21.226562 61.226562 19.09375 59.933594 17.371094 L 61.628906 15.792969 C 63.300781 17.9375 64.308594 20.621094 64.308594 23.539062 Z M 59.691406 23.539062 C 59.691406 27.976562 56.066406 31.585938 51.609375 31.585938 C 47.15625 31.585938 43.53125 27.976562 43.53125 23.539062 C 43.53125 19.097656 47.15625 15.488281 51.609375 15.488281 C 53.523438 15.488281 55.277344 16.15625 56.664062 17.265625 L 54.945312 18.863281 C 54.003906 18.191406 52.855469 17.789062 51.609375 17.789062 C 48.429688 17.789062 45.839844 20.367188 45.839844 23.539062 C 45.839844 26.707031 48.429688 29.289062 51.609375 29.289062 C 54.792969 29.289062 57.382812 26.707031 57.382812 23.539062 C 57.382812 22.4375 57.054688 21.421875 56.515625 20.546875 L 58.238281 18.945312 C 59.152344 20.25 59.691406 21.832031 59.691406 23.539062 Z M 55.074219 23.539062 C 55.074219 25.441406 53.519531 26.988281 51.609375 26.988281 C 49.703125 26.988281 48.148438 25.441406 48.148438 23.539062 C 48.148438 21.636719 49.703125 20.085938 51.609375 20.085938 C 52.183594 20.085938 52.71875 20.242188 53.199219 20.488281 L 50.824219 22.695312 L 52.398438 24.378906 L 54.78125 22.160156 C 54.96875 22.582031 55.074219 23.046875 55.074219 23.539062 Z M 55.074219 23.539062 " fill-opacity="1" fill-rule="nonzero"/></g><path fill="rgb(12.548828%, 38.038635%, 67.059326%)" d="M 4.425781 56.566406 C 2.816406 57.941406 2.554688 60.335938 3.824219 62.027344 C 4.492188 62.914062 5.507812 63.492188 6.613281 63.613281 C 6.757812 63.628906 6.902344 63.636719 7.050781 63.636719 C 8.007812 63.636719 8.945312 63.292969 9.679688 62.667969 L 15.425781 57.761719 C 15.542969 57.660156 15.636719 57.539062 15.707031 57.402344 L 19.910156 49.027344 L 22.230469 49.605469 L 20.597656 52.859375 C 20.144531 53.765625 20.070312 54.792969 20.390625 55.753906 C 20.714844 56.714844 21.390625 57.496094 22.300781 57.949219 C 24.105469 58.847656 26.308594 58.183594 27.308594 56.4375 L 30.679688 50.558594 C 30.828125 50.300781 30.871094 49.996094 30.796875 49.707031 L 29.644531 45.109375 C 29.546875 44.726562 29.261719 44.421875 28.890625 44.296875 L 23.058594 42.359375 L 24.582031 37.808594 L 28.007812 39.515625 C 28.390625 39.703125 28.847656 39.667969 29.195312 39.421875 L 34.976562 35.308594 C 35.828125 34.703125 36.367188 33.761719 36.449219 32.722656 C 36.539062 31.6875 36.164062 30.671875 35.425781 29.933594 C 34.183594 28.699219 32.191406 28.554688 30.789062 29.605469 L 28.546875 31.28125 L 24.441406 28.011719 C 26.210938 26.761719 27.371094 24.707031 27.371094 22.386719 C 27.371094 18.582031 24.265625 15.488281 20.445312 15.488281 C 16.625 15.488281 13.519531 18.582031 13.519531 22.386719 C 13.519531 24.359375 14.355469 26.132812 15.691406 27.390625 L 7.339844 30.511719 C 7.070312 30.613281 6.84375 30.8125 6.714844 31.074219 L 3.394531 37.691406 C 2.917969 38.636719 2.902344 39.730469 3.34375 40.691406 C 3.789062 41.648438 4.632812 42.347656 5.660156 42.601562 C 7.25 42.996094 8.878906 42.253906 9.613281 40.792969 L 12.003906 36.023438 L 13.972656 35.535156 L 11.28125 42.683594 C 11.191406 42.929688 11.183594 43.203125 11.269531 43.449219 L 12.289062 46.5 L 10.242188 51.597656 Z M 20.445312 17.789062 C 22.992188 17.789062 25.0625 19.851562 25.0625 22.386719 C 25.0625 24.925781 22.992188 26.988281 20.445312 26.988281 C 17.898438 26.988281 15.828125 24.925781 15.828125 22.386719 C 15.828125 19.851562 17.898438 17.789062 20.445312 17.789062 Z M 12.28125 52.714844 L 14.589844 46.964844 C 14.691406 46.710938 14.699219 46.433594 14.613281 46.175781 L 13.589844 43.109375 L 16.910156 34.292969 C 17.058594 33.890625 16.972656 33.441406 16.6875 33.121094 C 16.402344 32.804688 15.964844 32.667969 15.546875 32.773438 L 10.929688 33.921875 C 10.605469 34.003906 10.328125 34.222656 10.175781 34.523438 L 7.546875 39.761719 C 7.300781 40.253906 6.753906 40.503906 6.21875 40.371094 C 5.875 40.285156 5.589844 40.050781 5.441406 39.726562 C 5.292969 39.40625 5.296875 39.039062 5.457031 38.722656 L 8.578125 32.503906 L 17.191406 29.289062 L 22.347656 29.289062 L 27.804688 33.636719 C 28.210938 33.964844 28.792969 33.972656 29.21875 33.65625 L 32.175781 31.449219 C 32.664062 31.082031 33.359375 31.132812 33.792969 31.5625 C 34.054688 31.824219 34.179688 32.167969 34.148438 32.535156 C 34.121094 32.902344 33.9375 33.222656 33.636719 33.4375 L 28.417969 37.152344 L 24.421875 35.160156 C 24.125 35.011719 23.773438 35 23.464844 35.128906 C 23.15625 35.253906 22.917969 35.511719 22.8125 35.824219 L 20.503906 42.726562 C 20.300781 43.328125 20.628906 43.980469 21.234375 44.179688 L 27.558594 46.28125 L 28.445312 49.820312 L 25.304688 55.296875 C 24.910156 55.984375 24.042969 56.25 23.332031 55.894531 C 22.972656 55.714844 22.707031 55.40625 22.582031 55.027344 C 22.453125 54.652344 22.484375 54.246094 22.664062 53.890625 L 24.9375 49.355469 C 25.097656 49.042969 25.101562 48.675781 24.957031 48.359375 C 24.808594 48.042969 24.527344 47.808594 24.1875 47.722656 L 19.570312 46.574219 C 19.042969 46.449219 18.496094 46.695312 18.257812 47.175781 L 13.742188 56.167969 L 8.171875 60.925781 C 7.808594 61.238281 7.34375 61.378906 6.863281 61.328125 C 6.382812 61.277344 5.960938 61.035156 5.671875 60.652344 C 5.128906 59.929688 5.238281 58.902344 5.929688 58.316406 L 11.960938 53.164062 C 12.101562 53.039062 12.210938 52.886719 12.28125 52.714844 Z M 12.28125 52.714844 " fill-opacity="1" fill-rule="nonzero"/><g clip-path="url(#clip-1)"><path fill="rgb(12.548828%, 38.038635%, 67.059326%)" d="M 26.214844 71.835938 L 26.214844 66.085938 L 27.601562 67.925781 L 29.449219 66.546875 L 25.984375 61.949219 C 25.550781 61.367188 24.574219 61.367188 24.136719 61.949219 L 20.675781 66.546875 L 22.523438 67.925781 L 23.90625 66.085938 L 23.90625 71.835938 Z M 26.214844 71.835938 " fill-opacity="1" fill-rule="nonzero"/></g><g clip-path="url(#clip-2)"><path fill="rgb(12.548828%, 38.038635%, 67.059326%)" d="M 37.988281 53.898438 L 34.527344 58.496094 L 36.375 59.878906 L 37.757812 58.039062 L 37.757812 71.835938 L 40.066406 71.835938 L 40.066406 58.039062 L 41.453125 59.878906 L 43.300781 58.496094 L 39.835938 53.898438 C 39.402344 53.316406 38.425781 53.316406 37.988281 53.898438 Z M 37.988281 53.898438 " fill-opacity="1" fill-rule="nonzero"/></g><g clip-path="url(#clip-3)"><path fill="rgb(12.548828%, 38.038635%, 67.059326%)" d="M 53.917969 71.835938 L 53.917969 48.835938 L 55.304688 50.675781 L 57.152344 49.296875 L 53.6875 44.699219 C 53.253906 44.117188 52.277344 44.117188 51.839844 44.699219 L 48.378906 49.296875 L 50.226562 50.675781 L 51.609375 48.835938 L 51.609375 71.835938 Z M 53.917969 71.835938 " fill-opacity="1" fill-rule="nonzero"/></g></svg>