<?xml version="1.0" encoding="UTF-8"?><svg xmlns="http://www.w3.org/2000/svg" xmlns:xlink="http://www.w3.org/1999/xlink" contentScriptType="text/ecmascript" width="75" zoomAndPan="magnify" contentStyleType="text/css" viewBox="0 0 75 74.999997" height="74.999997" preserveAspectRatio="xMidYMid meet" version="1.0"><defs><clipPath id="clip-0"><path d="M 3.335938 3.335938 L 71.585938 3.335938 L 71.585938 71.585938 L 3.335938 71.585938 Z M 3.335938 3.335938 " clip-rule="nonzero"/></clipPath></defs><path fill="rgb(12.548828%, 38.038635%, 67.059326%)" d="M 45.167969 53.972656 C 45.167969 55.1875 44.179688 56.175781 42.964844 56.175781 C 41.753906 56.175781 40.765625 55.1875 40.765625 53.972656 C 40.765625 53.777344 40.804688 53.578125 40.863281 53.382812 C 41.671875 52.679688 42.65625 52.171875 43.734375 51.933594 C 44.585938 52.25 45.167969 53.058594 45.167969 53.972656 Z M 51.75 57.890625 C 50.421875 58.675781 49.570312 60.109375 49.570312 61.679688 C 49.570312 62.15625 49.652344 62.625 49.808594 63.078125 C 48.574219 64.292969 46.917969 64.984375 45.167969 64.984375 C 41.527344 64.984375 38.5625 62.019531 38.5625 58.378906 C 38.5625 57.511719 38.734375 56.6875 39.039062 55.925781 C 39.761719 57.371094 41.242188 58.378906 42.964844 58.378906 C 45.394531 58.378906 47.371094 56.402344 47.371094 53.972656 C 47.371094 53.273438 47.195312 52.605469 46.890625 52.007812 C 49.535156 52.722656 51.53125 55.050781 51.75 57.890625 Z M 45.167969 67.183594 C 47.800781 67.183594 50.277344 66.019531 51.953125 63.988281 L 52.433594 63.410156 L 52.066406 62.746094 C 51.871094 62.402344 51.773438 62.046875 51.773438 61.679688 C 51.773438 60.765625 52.363281 59.933594 53.234375 59.621094 L 53.914062 59.289062 L 53.964844 58.570312 C 53.96875 58.507812 53.972656 58.441406 53.972656 58.378906 C 53.972656 53.523438 50.023438 49.570312 45.167969 49.570312 C 40.3125 49.570312 36.363281 53.523438 36.363281 58.378906 C 36.363281 63.234375 40.3125 67.183594 45.167969 67.183594 " fill-opacity="1" fill-rule="nonzero"/><g clip-path="url(#clip-0)"><path fill="rgb(12.548828%, 38.038635%, 67.059326%)" d="M 68.976562 59.601562 L 68.914062 59.667969 C 64.675781 63.835938 59.53125 66.746094 53.929688 68.238281 C 56.648438 65.816406 58.378906 62.300781 58.378906 58.378906 C 58.378906 54.457031 56.648438 50.9375 53.929688 48.519531 C 59.53125 50.011719 64.675781 52.925781 68.914062 57.085938 L 68.976562 57.152344 C 69.238281 57.503906 69.386719 57.933594 69.386719 58.378906 C 69.386719 58.820312 69.238281 59.25 68.976562 59.601562 Z M 21.421875 59.667969 L 21.359375 59.601562 C 21.097656 59.25 20.949219 58.820312 20.949219 58.378906 C 20.949219 57.933594 21.097656 57.503906 21.359375 57.152344 L 21.421875 57.085938 C 25.660156 52.921875 30.804688 50.011719 36.40625 48.519531 C 33.6875 50.9375 31.957031 54.457031 31.957031 58.378906 C 31.957031 62.300781 33.6875 65.816406 36.40625 68.238281 C 30.804688 66.746094 25.660156 63.832031 21.421875 59.667969 Z M 16.546875 46.269531 L 8.839844 46.269531 C 7.019531 46.269531 5.539062 44.789062 5.539062 42.964844 L 5.539062 27.554688 C 5.539062 24.519531 8.007812 22.050781 11.042969 22.050781 L 22.417969 22.050781 C 23.128906 22.050781 23.832031 21.816406 24.398438 21.390625 L 31.828125 15.820312 C 32.148438 15.578125 32.542969 15.445312 32.941406 15.445312 L 33.402344 15.445312 C 34.425781 15.445312 35.261719 16.28125 35.261719 17.304688 C 35.261719 17.878906 35 18.414062 34.542969 18.765625 L 27.566406 24.191406 C 26.605469 24.941406 25.40625 25.355469 24.1875 25.355469 L 15.445312 25.355469 L 15.445312 41.867188 L 19.847656 41.867188 C 21.671875 41.867188 23.152344 43.34375 23.152344 45.167969 L 23.152344 52.675781 C 22.015625 53.554688 20.921875 54.496094 19.882812 55.519531 L 19.675781 55.730469 C 19.5 55.949219 19.359375 56.1875 19.230469 56.433594 C 18.929688 56.050781 18.746094 55.582031 18.75 55.074219 L 18.75 48.46875 C 18.75 47.257812 17.761719 46.269531 16.546875 46.269531 Z M 9.941406 67.183594 C 9.941406 68.398438 8.953125 69.386719 7.742188 69.386719 C 6.527344 69.386719 5.539062 68.398438 5.539062 67.183594 L 5.539062 47.339844 C 6.460938 48.039062 7.597656 48.46875 8.839844 48.46875 L 9.941406 48.46875 Z M 8.839844 14.34375 C 8.839844 11.308594 11.308594 8.839844 14.34375 8.839844 C 17.382812 8.839844 19.847656 11.308594 19.847656 14.34375 C 19.847656 17.382812 17.382812 19.847656 14.34375 19.847656 C 11.308594 19.847656 8.839844 17.382812 8.839844 14.34375 Z M 27.554688 14.472656 L 27.554688 12.015625 L 42.964844 10.089844 L 42.964844 16.402344 L 37.113281 15.671875 C 36.480469 14.242188 35.0625 13.246094 33.402344 13.246094 L 32.941406 13.246094 C 32.070312 13.246094 31.210938 13.53125 30.507812 14.058594 L 29.609375 14.734375 Z M 45.167969 7.742188 L 51.773438 7.742188 L 51.773438 18.75 L 45.167969 18.75 Z M 45.167969 34.160156 L 47.371094 34.160156 L 47.371094 45.242188 C 46.640625 45.199219 45.902344 45.167969 45.167969 45.167969 Z M 56.175781 58.378906 C 56.175781 64.445312 51.238281 69.386719 45.167969 69.386719 C 39.097656 69.386719 34.160156 64.445312 34.160156 58.378906 C 34.160156 52.304688 39.097656 47.371094 45.167969 47.371094 C 51.238281 47.371094 56.175781 52.304688 56.175781 58.378906 Z M 53.972656 29.757812 L 56.175781 29.757812 L 56.175781 46.882812 C 55.449219 46.652344 54.714844 46.4375 53.972656 46.246094 Z M 62.78125 25.355469 L 64.984375 25.355469 L 64.984375 51.089844 C 64.265625 50.617188 63.523438 50.175781 62.78125 49.757812 Z M 53.972656 5.539062 L 56.175781 5.539062 L 56.175781 20.949219 L 53.972656 20.949219 Z M 70.660156 55.730469 L 70.453125 55.519531 C 69.414062 54.496094 68.320312 53.554688 67.183594 52.675781 L 67.183594 23.152344 L 60.578125 23.152344 L 60.578125 48.613281 C 59.855469 48.273438 59.121094 47.957031 58.378906 47.667969 L 58.378906 27.554688 L 51.773438 27.554688 L 51.773438 45.773438 C 51.046875 45.640625 50.3125 45.535156 49.570312 45.441406 L 49.570312 31.957031 L 42.964844 31.957031 L 42.964844 45.242188 C 36.625 45.621094 30.585938 47.632812 25.355469 51.089844 L 25.355469 45.167969 C 25.355469 42.132812 22.886719 39.664062 19.847656 39.664062 L 17.648438 39.664062 L 17.648438 27.554688 L 24.1875 27.554688 C 25.890625 27.554688 27.574219 26.980469 28.917969 25.933594 L 35.898438 20.507812 C 36.726562 19.863281 37.234375 18.9375 37.394531 17.921875 L 42.964844 18.621094 L 42.964844 20.949219 L 51.773438 20.949219 C 51.773438 22.164062 52.761719 23.152344 53.972656 23.152344 L 56.175781 23.152344 C 57.390625 23.152344 58.378906 22.164062 58.378906 20.949219 L 58.378906 5.539062 C 58.378906 4.328125 57.390625 3.335938 56.175781 3.335938 L 53.972656 3.335938 C 52.761719 3.335938 51.773438 4.328125 51.773438 5.539062 L 42.964844 5.539062 L 42.964844 7.871094 L 25.355469 10.070312 L 25.355469 16.417969 L 27.074219 16.632812 L 23.078125 19.628906 C 22.890625 19.773438 22.652344 19.847656 22.417969 19.847656 L 19.730469 19.847656 C 21.160156 18.449219 22.050781 16.5 22.050781 14.34375 C 22.050781 10.097656 18.59375 6.640625 14.34375 6.640625 C 10.097656 6.640625 6.640625 10.097656 6.640625 14.34375 C 6.640625 16.625 7.636719 18.667969 9.214844 20.078125 C 5.847656 20.902344 3.335938 23.9375 3.335938 27.554688 L 3.335938 67.183594 C 3.335938 69.613281 5.3125 71.585938 7.742188 71.585938 C 10.171875 71.585938 12.144531 69.613281 12.144531 67.183594 L 12.144531 48.46875 L 16.546875 48.46875 L 16.546875 55.070312 C 16.542969 56.675781 17.4375 58.128906 18.792969 58.898438 C 18.890625 59.671875 19.1875 60.410156 19.675781 61.027344 L 19.882812 61.238281 C 26.667969 67.910156 35.648438 71.585938 45.167969 71.585938 C 54.6875 71.585938 63.667969 67.910156 70.453125 61.238281 L 70.660156 61.027344 C 71.257812 60.273438 71.585938 59.335938 71.585938 58.378906 C 71.585938 57.417969 71.257812 56.480469 70.660156 55.730469 " fill-opacity="1" fill-rule="nonzero"/></g></svg>